<svg id="Group_21341" data-name="Group 21341" xmlns="http://www.w3.org/2000/svg" xmlns:xlink="http://www.w3.org/1999/xlink" width="84.721" height="82.499" viewBox="0 0 84.721 82.499">
  <defs>
    <clipPath id="clip-path">
      <rect id="Rectangle_1359" data-name="Rectangle 1359" width="84.721" height="82.499" fill="none"/>
    </clipPath>
    <clipPath id="clip-path-3">
      <rect id="Rectangle_1337" data-name="Rectangle 1337" width="71.861" height="72.434" fill="none"/>
    </clipPath>
    <clipPath id="clip-path-4">
      <rect id="Rectangle_1338" data-name="Rectangle 1338" width="5.969" height="6.653" fill="none"/>
    </clipPath>
    <clipPath id="clip-path-5">
      <rect id="Rectangle_1339" data-name="Rectangle 1339" width="21.422" height="5.168" fill="none"/>
    </clipPath>
    <clipPath id="clip-path-6">
      <rect id="Rectangle_1340" data-name="Rectangle 1340" width="9.187" height="72.442" fill="none"/>
    </clipPath>
    <clipPath id="clip-path-7">
      <rect id="Rectangle_1341" data-name="Rectangle 1341" width="10.416" height="72.108" fill="none"/>
    </clipPath>
    <clipPath id="clip-path-8">
      <rect id="Rectangle_1342" data-name="Rectangle 1342" width="56.516" height="3.037" fill="none"/>
    </clipPath>
    <clipPath id="clip-path-9">
      <rect id="Rectangle_1343" data-name="Rectangle 1343" width="58.118" height="4.9" fill="none"/>
    </clipPath>
    <clipPath id="clip-path-10">
      <rect id="Rectangle_1348" data-name="Rectangle 1348" width="68.272" height="78.684" fill="none"/>
    </clipPath>
    <clipPath id="clip-path-11">
      <rect id="Rectangle_1344" data-name="Rectangle 1344" width="13.792" height="13.642" fill="none"/>
    </clipPath>
    <clipPath id="clip-path-12">
      <rect id="Rectangle_1345" data-name="Rectangle 1345" width="4.514" height="4.891" fill="none"/>
    </clipPath>
    <clipPath id="clip-path-13">
      <rect id="Rectangle_1346" data-name="Rectangle 1346" width="14.419" height="4.639" fill="none"/>
    </clipPath>
    <clipPath id="clip-path-14">
      <rect id="Rectangle_1347" data-name="Rectangle 1347" width="12.166" height="9.589" fill="none"/>
    </clipPath>
    <clipPath id="clip-path-15">
      <rect id="Rectangle_1349" data-name="Rectangle 1349" width="7.225" height="50.924" fill="none"/>
    </clipPath>
    <clipPath id="clip-path-16">
      <rect id="Rectangle_1350" data-name="Rectangle 1350" width="5.14" height="4.555" fill="none"/>
    </clipPath>
    <clipPath id="clip-path-17">
      <rect id="Rectangle_1351" data-name="Rectangle 1351" width="2.748" height="2.945" fill="none"/>
    </clipPath>
    <clipPath id="clip-path-18">
      <rect id="Rectangle_1352" data-name="Rectangle 1352" width="5.311" height="4.615" fill="none"/>
    </clipPath>
    <clipPath id="clip-path-19">
      <rect id="Rectangle_1353" data-name="Rectangle 1353" width="3.013" height="3.41" fill="none"/>
    </clipPath>
    <clipPath id="clip-path-20">
      <rect id="Rectangle_1354" data-name="Rectangle 1354" width="5.486" height="4.407" fill="none"/>
    </clipPath>
    <clipPath id="clip-path-21">
      <rect id="Rectangle_1355" data-name="Rectangle 1355" width="2.698" height="2.966" fill="none"/>
    </clipPath>
    <clipPath id="clip-path-22">
      <rect id="Rectangle_1356" data-name="Rectangle 1356" width="5.574" height="4.463" fill="none"/>
    </clipPath>
    <clipPath id="clip-path-23">
      <rect id="Rectangle_1357" data-name="Rectangle 1357" width="2.965" height="3.439" fill="none"/>
    </clipPath>
  </defs>
  <g id="Group_21272" data-name="Group 21272" clip-path="url(#clip-path)">
    <g id="Group_21271" data-name="Group 21271" transform="translate(0 0)">
      <g id="Group_21270" data-name="Group 21270" clip-path="url(#clip-path)">
        <path id="Path_39191" data-name="Path 39191" d="M.773,2.527,4.831.141A1.028,1.028,0,0,1,5.349,0H9.926L23.3.842l14.832.11,35.481-.6,7.316.733a.636.636,0,0,1,.563.525l1.475,8.451,1.751,61.226-2.459,8.345a1.108,1.108,0,0,1-.769.948L75.965,81.9l-41.294.6L11.6,82.084,3.13,81.163a1.3,1.3,0,0,1-1.171-1.007L.033,75.425a1.308,1.308,0,0,1-.016-.5L.507,8.253.266,3.469a1.031,1.031,0,0,1,.507-.942" transform="translate(0 0)" fill="#3b1111"/>
        <path id="Path_39192" data-name="Path 39192" d="M1.742,3.844,5.418,1.163l4.669-.08,13.885.841,14.314.19,34.766-.6,8,.521,2.234,11.633.877,57.86L81.843,79.8l-5.53,1.077-41.706.833L12.3,81.364l-8.689-.991-2.137-4.9L2,8.946Z" transform="translate(-0.478 -0.351)" fill="#684429"/>
        <path id="Path_39193" data-name="Path 39193" d="M1.872,3.563,5.548,1.108,10.217.915,24.1,1.755l14.314.3,34.766-.6,8,.477,1.539,8.616L83.768,69.9l-1.385,4.26-5.969,1.93-41.5.744L12.6,76.59l-7.608-.535L2.115,73.947,2.664,7.508Z" transform="translate(-0.608 -0.297)" fill="#835636"/>
        <g id="Group_21209" data-name="Group 21209" transform="translate(11.82 8.92)" opacity="0.2" style="mix-blend-mode: multiply;isolation: isolate">
          <g id="Group_21208" data-name="Group 21208">
            <g id="Group_21207" data-name="Group 21207" clip-path="url(#clip-path-3)">
              <path id="Path_39194" data-name="Path 39194" d="M39.984,80.829l41.5-.744,5.97-1.93,1.385-4.26L87.655,13.208l.829,4.4.877,57.86-2.316,8.268-5.529,1.076-41.707.833L17.5,85.3l14.573-2.117Z" transform="translate(-17.501 -13.208)" fill="#3b1111"/>
            </g>
          </g>
        </g>
        <g id="Group_21212" data-name="Group 21212" transform="translate(75.806 73.868)" opacity="0.2" style="mix-blend-mode: multiply;isolation: isolate">
          <g id="Group_21211" data-name="Group 21211">
            <g id="Group_21210" data-name="Group 21210" clip-path="url(#clip-path-4)">
              <path id="Path_39195" data-name="Path 39195" d="M112.241,111.3l.029,4.722,5.53-1.076.411-5.577Z" transform="translate(-112.241 -109.372)" fill="#82603f"/>
            </g>
          </g>
        </g>
        <g id="Group_21215" data-name="Group 21215" transform="translate(34.303 76.186)" opacity="0.2" style="mix-blend-mode: multiply;isolation: isolate">
          <g id="Group_21214" data-name="Group 21214">
            <g id="Group_21213" data-name="Group 21213" clip-path="url(#clip-path-5)">
              <path id="Path_39196" data-name="Path 39196" d="M68.608,117.725l3.6-4.919-21.423.355,3.536,4.812Z" transform="translate(-50.79 -112.805)" fill="#82603f"/>
            </g>
          </g>
        </g>
        <path id="Path_39197" data-name="Path 39197" d="M13.374,4.634,9.126,3.806l-4.079.587-.432,2.5.432,4.233L3.771,72.4,5.8,75.455h4.923l2.286-.9-.365-3.337L8.783,67.682,9.864,12.157l3.51-3.4Z" transform="translate(-1.224 -1.236)" fill="#af8158"/>
        <g id="Group_21218" data-name="Group 21218" transform="translate(2.962 1.777)" opacity="0.2" style="mix-blend-mode: multiply;isolation: isolate">
          <g id="Group_21217" data-name="Group 21217">
            <g id="Group_21216" data-name="Group 21216" clip-path="url(#clip-path-6)">
              <path id="Path_39198" data-name="Path 39198" d="M13.573,3.493,9.326,2.631l-4.079.611L4.814,6.43l.432,4.312L4.386,71.9,6,75.073l5.1-.387,1.7-.733-.384-3.114L8.561,67.45l.925-55.674,4.087-3.4Z" transform="translate(-4.386 -2.631)" fill="#82603f"/>
            </g>
          </g>
        </g>
        <path id="Path_39199" data-name="Path 39199" d="M105.657,5.031l4.247-.821,4.079.582.432,2.476-.148,3.893,2.22,60.077L114.355,74.8l-4.817,1.11-2.285-.894.18-6.74,4.185-4.953L109.669,13.1l-4.012-3.984Z" transform="translate(-34.298 -1.367)" fill="#af8158"/>
        <g id="Group_21221" data-name="Group 21221" transform="translate(71.359 2.057)" opacity="0.2" style="mix-blend-mode: multiply;isolation: isolate">
          <g id="Group_21220" data-name="Group 21220">
            <g id="Group_21219" data-name="Group 21219" clip-path="url(#clip-path-7)">
              <path id="Path_39200" data-name="Path 39200" d="M105.657,3.9l4.247-.855,4.079.606.432,3.161-.756,4.3,2.413,59.624-1.718,3.692-4.994.727-1.7-.727.2-6.519L112,62.985l-2.333-50.262L105.657,8.74Z" transform="translate(-105.657 -3.045)" fill="#82603f"/>
            </g>
          </g>
        </g>
        <path id="Path_39201" data-name="Path 39201" d="M20.158,4.973,30.3,4.757l12.357.57,15.076.054,18.258-.034.365,1.4-1.085-.24-18.058.675L42.183,6.816,29.666,6.4l-9.508-.022Z" transform="translate(-6.544 -1.544)" fill="#af8158"/>
        <g id="Group_21224" data-name="Group 21224" transform="translate(13.615 2.609)" opacity="0.2" style="mix-blend-mode: multiply;isolation: isolate">
          <g id="Group_21223" data-name="Group 21223">
            <g id="Group_21222" data-name="Group 21222" clip-path="url(#clip-path-8)">
              <path id="Path_39202" data-name="Path 39202" d="M20.158,4.079,30.3,3.863l12.357.57,15.076.054,16.354-.27,2.311.288.28,1.7-.323.263-1.085-.24L57.209,6.9,42.183,6.533,29.666,6.114l-9.508-.022Z" transform="translate(-20.158 -3.863)" fill="#82603f"/>
            </g>
          </g>
        </g>
        <path id="Path_39203" data-name="Path 39203" d="M19.925,105.9l9.29.173,13.436.072,14.767-.276,19.876-.7.427,2.887-3.311.288-16.552.515-15.676.287-13.6.08-8.66-.411Z" transform="translate(-6.468 -34.142)" fill="#af8158"/>
        <g id="Group_21227" data-name="Group 21227" transform="translate(13.457 70.191)" opacity="0.2" style="mix-blend-mode: multiply;isolation: isolate">
          <g id="Group_21226" data-name="Group 21226">
            <g id="Group_21225" data-name="Group 21225" clip-path="url(#clip-path-9)">
              <path id="Path_39204" data-name="Path 39204" d="M19.925,104.89l9.29.173,13.436.072,15.727-.6,15.293-.6,4.092.253.28,3.212-.323.263-3.311.288-16.552.515-15.676.288-13.6.08-8.66-.411Z" transform="translate(-19.925 -103.929)" fill="#82603f"/>
            </g>
          </g>
        </g>
        <g id="Group_21242" data-name="Group 21242" transform="translate(13.093 0.888)" style="mix-blend-mode: multiply;isolation: isolate">
          <g id="Group_21241" data-name="Group 21241">
            <g id="Group_21240" data-name="Group 21240" clip-path="url(#clip-path-10)">
              <g id="Group_21230" data-name="Group 21230" transform="translate(0 64.976)" opacity="0.4" style="mix-blend-mode: multiply;isolation: isolate">
                <g id="Group_21229" data-name="Group 21229">
                  <g id="Group_21228" data-name="Group 21228" clip-path="url(#clip-path-11)">
                    <path id="Path_39205" data-name="Path 39205" d="M19.387,111.164l1.469-3.213,1.4-1.676.453.012,1.628-1.458.03-.559,4.5-3.745,4.309-3-4.894,2.643-4.755,4.016v.637l-1.578,1.432-.43-.02-1.444,1.721Z" transform="translate(-19.387 -97.522)" fill="#584f35"/>
                  </g>
                </g>
              </g>
              <g id="Group_21233" data-name="Group 21233" transform="translate(0.98)" opacity="0.4" style="mix-blend-mode: multiply;isolation: isolate">
                <g id="Group_21232" data-name="Group 21232">
                  <g id="Group_21231" data-name="Group 21231" clip-path="url(#clip-path-12)">
                    <path id="Path_39206" data-name="Path 39206" d="M20.838,1.315l1.378,1.9.217.6,1.78,1.462.351.061.787.871-.6-.931-.31,0L23.168,3.787,23.1,3.194,21.762,1.371Z" transform="translate(-20.838 -1.315)" fill="#584f35"/>
                  </g>
                </g>
              </g>
              <g id="Group_21236" data-name="Group 21236" transform="translate(53.654 2.481)" opacity="0.4" style="mix-blend-mode: multiply;isolation: isolate">
                <g id="Group_21235" data-name="Group 21235">
                  <g id="Group_21234" data-name="Group 21234" clip-path="url(#clip-path-13)">
                    <path id="Path_39207" data-name="Path 39207" d="M98.828,9.353l4.165-.294.447.116,2-1.234,6.42-2.179,1.1-.774.287,1.419-1.2.264-2.325,1.08-4.027.787-2.172,1.088-.43-.16Z" transform="translate(-98.828 -4.988)" fill="#584f35"/>
                  </g>
                </g>
              </g>
              <g id="Group_21239" data-name="Group 21239" transform="translate(56.106 69.095)" opacity="0.4" style="mix-blend-mode: multiply;isolation: isolate">
                <g id="Group_21238" data-name="Group 21238">
                  <g id="Group_21237" data-name="Group 21237" clip-path="url(#clip-path-14)">
                    <path id="Path_39208" data-name="Path 39208" d="M102.459,103.62l3.933,1.7.367.311,1.446,1.638,2.3.459,2.207.534s1.574,1.578,1.53,1.566.384,3.258.384,3.258l-.656.128-.173-3.031-1.573-1.764-2.67-.471-1.052.242-1.324-.681-.418-1.145-.428-.367Z" transform="translate(-102.459 -103.62)" fill="#584f35"/>
                  </g>
                </g>
              </g>
            </g>
          </g>
        </g>
        <g id="Group_21245" data-name="Group 21245" transform="translate(1.264 13.935)" opacity="0.4" style="mix-blend-mode: multiply;isolation: isolate">
          <g id="Group_21244" data-name="Group 21244">
            <g id="Group_21243" data-name="Group 21243" clip-path="url(#clip-path-15)">
              <path id="Path_39209" data-name="Path 39209" d="M1.872,21.437l.565-.288,1.575-.517.12.185H9.1l-5.007.619-.127-.289-1.545.645L1.872,71.557Z" transform="translate(-1.872 -20.633)" fill="#584f35"/>
            </g>
          </g>
        </g>
        <g id="Group_21248" data-name="Group 21248" transform="translate(73.097 4.442)" opacity="0.4" style="mix-blend-mode: multiply;isolation: isolate">
          <g id="Group_21247" data-name="Group 21247">
            <g id="Group_21246" data-name="Group 21246" clip-path="url(#clip-path-16)">
              <path id="Path_39210" data-name="Path 39210" d="M110.739,6.577,108.23,7.832l.681,1.6,2.091,1.7,2.369-1.664L112.934,6.8Z" transform="translate(-108.23 -6.577)" fill="#3b1111"/>
            </g>
          </g>
        </g>
        <path id="Path_39211" data-name="Path 39211" d="M109.691,6.139l-1.462,1.55.681,1.6,2.225.8,1.643-1.967-1-1.611Z" transform="translate(-35.133 -1.993)" fill="#411818"/>
        <path id="Path_39212" data-name="Path 39212" d="M110.028,6.632l-1.2,1.276.561,1.316,1.831.661,1.352-1.619-.821-1.326Z" transform="translate(-35.326 -2.153)" fill="#2c2c31"/>
        <path id="Path_39213" data-name="Path 39213" d="M110.143,6.918l-1.018,1.059.435,1.063,1.576.538,1.1-1.32-.677-1.115Z" transform="translate(-35.424 -2.246)" fill="#6c717b"/>
        <path id="Path_39214" data-name="Path 39214" d="M110.313,7.1l-.869.9.371.908,1.22-.047.783-.858-.3-.715Z" transform="translate(-35.527 -2.306)" fill="#9096a4"/>
        <g id="Group_21251" data-name="Group 21251" transform="translate(74.495 4.788)" opacity="0.4" style="mix-blend-mode: multiply;isolation: isolate">
          <g id="Group_21250" data-name="Group 21250">
            <g id="Group_21249" data-name="Group 21249" clip-path="url(#clip-path-17)">
              <path id="Path_39215" data-name="Path 39215" d="M110.3,9.53l.55-.044.5.088.172.059.819-1.425-.4-1.01.292-.109.821,1.326-1.352,1.62Z" transform="translate(-110.3 -7.089)" fill="#3b1111"/>
            </g>
          </g>
        </g>
        <g id="Group_21254" data-name="Group 21254" transform="translate(74.515 68.594)" opacity="0.4" style="mix-blend-mode: multiply;isolation: isolate">
          <g id="Group_21253" data-name="Group 21253">
            <g id="Group_21252" data-name="Group 21252" clip-path="url(#clip-path-18)">
              <path id="Path_39216" data-name="Path 39216" d="M114.107,101.564l-3.777,1.193.715,1.959,1.423,1.464,3.153-.885.02-2.543Z" transform="translate(-110.33 -101.564)" fill="#3b1111"/>
            </g>
          </g>
        </g>
        <path id="Path_39217" data-name="Path 39217" d="M112.067,100.875l-1.738,1.657.715,1.96,2.354.977,1.865-2.034-.967-2.051Z" transform="translate(-35.815 -32.746)" fill="#411818"/>
        <path id="Path_39218" data-name="Path 39218" d="M112.411,101.417l-1.446,1.376.6,1.649,1.938.8,1.536-1.675-.792-1.736Z" transform="translate(-36.021 -32.922)" fill="#2c2c31"/>
        <path id="Path_39219" data-name="Path 39219" d="M112.526,101.726l-1.236,1.151.477,1.371,1.67.658,1.245-1.366-.648-1.5Z" transform="translate(-36.126 -33.022)" fill="#6c717b"/>
        <path id="Path_39220" data-name="Path 39220" d="M112.7,101.931l-1.068.992.416,1.2,1.266.09.843-.824-.17-1.191Z" transform="translate(-36.239 -33.089)" fill="#9096a4"/>
        <g id="Group_21257" data-name="Group 21257" transform="translate(76.005 68.914)" opacity="0.4" style="mix-blend-mode: multiply;isolation: isolate">
          <g id="Group_21256" data-name="Group 21256">
            <g id="Group_21255" data-name="Group 21255" clip-path="url(#clip-path-19)">
              <path id="Path_39221" data-name="Path 39221" d="M112.536,104.835l.6-.02.529.12.182.072.952-1.493-.355-1.374.319-.1.792,1.736-1.537,1.675Z" transform="translate(-112.536 -102.037)" fill="#3b1111"/>
            </g>
          </g>
        </g>
        <g id="Group_21260" data-name="Group 21260" transform="translate(5.159 3.471)" opacity="0.4" style="mix-blend-mode: multiply;isolation: isolate">
          <g id="Group_21259" data-name="Group 21259">
            <g id="Group_21258" data-name="Group 21258" clip-path="url(#clip-path-20)">
              <path id="Path_39222" data-name="Path 39222" d="M10.092,5.225,7.638,6.586l.748,1.568,1.958,1.392,2.78-1.384L12.09,5.139Z" transform="translate(-7.638 -5.139)" fill="#3b1111"/>
            </g>
          </g>
        </g>
        <path id="Path_39223" data-name="Path 39223" d="M9.032,4.9,7.639,6.507l.748,1.568,2.256.708L12.2,6.747,11.136,5.18Z" transform="translate(-2.48 -1.589)" fill="#411818"/>
        <path id="Path_39224" data-name="Path 39224" d="M9.384,5.379,8.237,6.706,8.853,8l1.858.582L11.993,6.9l-.877-1.29Z" transform="translate(-2.674 -1.746)" fill="#2c2c31"/>
        <path id="Path_39225" data-name="Path 39225" d="M9.506,5.664l-.972,1.1.48,1.044,1.6.469,1.039-1.366-.725-1.085Z" transform="translate(-2.77 -1.838)" fill="#6c717b"/>
        <path id="Path_39226" data-name="Path 39226" d="M9.681,5.845l-.83.941.41.891,1.216-.1.746-.891-.33-.7Z" transform="translate(-2.873 -1.897)" fill="#9096a4"/>
        <g id="Group_21263" data-name="Group 21263" transform="translate(6.621 3.867)" opacity="0.4" style="mix-blend-mode: multiply;isolation: isolate">
          <g id="Group_21262" data-name="Group 21262">
            <g id="Group_21261" data-name="Group 21261" clip-path="url(#clip-path-21)">
              <path id="Path_39227" data-name="Path 39227" d="M9.8,8.248l.548-.068.5.068.174.051.756-1.459-.442-.993.286-.122.877,1.29L11.219,8.692Z" transform="translate(-9.803 -5.726)" fill="#3b1111"/>
            </g>
          </g>
        </g>
        <g id="Group_21266" data-name="Group 21266" transform="translate(3.834 68.718)" opacity="0.4" style="mix-blend-mode: multiply;isolation: isolate">
          <g id="Group_21265" data-name="Group 21265">
            <g id="Group_21264" data-name="Group 21264" clip-path="url(#clip-path-22)">
              <path id="Path_39228" data-name="Path 39228" d="M9.4,101.747,5.676,103.1l.8,1.928,1.281,1.182,3.5-.309-.471-3.252Z" transform="translate(-5.676 -101.747)" fill="#3b1111"/>
            </g>
          </g>
        </g>
        <path id="Path_39229" data-name="Path 39229" d="M7.342,101.189,5.676,102.92l.8,1.927,2.394.875,1.778-2.113L9.592,101.6Z" transform="translate(-1.843 -32.848)" fill="#411818"/>
        <path id="Path_39230" data-name="Path 39230" d="M7.7,101.721l-1.386,1.437.669,1.622,1.97.72,1.464-1.739-.864-1.7Z" transform="translate(-2.051 -33.021)" fill="#2c2c31"/>
        <path id="Path_39231" data-name="Path 39231" d="M7.826,102.029l-1.185,1.2.534,1.349,1.7.586,1.186-1.419-.712-1.472Z" transform="translate(-2.156 -33.121)" fill="#6c717b"/>
        <path id="Path_39232" data-name="Path 39232" d="M8.009,102.229l-1.025,1.037.467,1.182,1.268.035.807-.86-.22-1.183Z" transform="translate(-2.267 -33.186)" fill="#9096a4"/>
        <g id="Group_21269" data-name="Group 21269" transform="translate(5.404 69.04)" opacity="0.4" style="mix-blend-mode: multiply;isolation: isolate">
          <g id="Group_21268" data-name="Group 21268">
            <g id="Group_21267" data-name="Group 21267" clip-path="url(#clip-path-23)">
              <path id="Path_39233" data-name="Path 39233" d="M8,105.114l.593-.045.534.1.184.063L10.2,103.7l-.413-1.359.315-.116.865,1.7L9.5,105.663Z" transform="translate(-8.002 -102.224)" fill="#3b1111"/>
            </g>
          </g>
        </g>
        <path id="Path_39234" data-name="Path 39234" d="M44.43,23.638H38.952a.5.5,0,0,0-.5.5v2.895H28.09V24.142a.5.5,0,0,0-.5-.5H22.108a.5.5,0,0,0-.5.5v5.79a.5.5,0,0,0,.5.5h1.406v9.2a1.516,1.516,0,0,0,1.516,1.516h2.987v3.909a1.27,1.27,0,0,0,1.27,1.27h8.307a1.27,1.27,0,0,0,1.27-1.27V41.152h2.644a1.516,1.516,0,0,0,1.516-1.516v-9.2H44.43a.5.5,0,0,0,.5-.5v-5.79a.5.5,0,0,0-.5-.5M28.19,34.8a1.37,1.37,0,1,1,1.37-1.37,1.37,1.37,0,0,1-1.37,1.37M36.2,37.942a.386.386,0,0,1-.385.385H30.723a.386.386,0,0,1-.386-.385V35.985a.385.385,0,0,1,.386-.385h5.092a.385.385,0,0,1,.385.385ZM38.691,34.8a1.37,1.37,0,1,1,1.37-1.37,1.37,1.37,0,0,1-1.37,1.37" transform="translate(-7.013 -7.673)" fill="#3a1e16"/>
        <path id="Path_39235" data-name="Path 39235" d="M68.275,65.125H62.8a.5.5,0,0,0-.5.5v2.895H51.935V65.629a.5.5,0,0,0-.5-.5H45.953a.5.5,0,0,0-.5.5v5.79a.5.5,0,0,0,.5.5h1.406v9.2a1.516,1.516,0,0,0,1.516,1.516h2.987v3.909a1.27,1.27,0,0,0,1.27,1.27h8.307a1.27,1.27,0,0,0,1.27-1.27V82.639h2.644a1.516,1.516,0,0,0,1.516-1.516v-9.2h1.406a.5.5,0,0,0,.5-.5v-5.79a.5.5,0,0,0-.5-.5M52.035,76.286a1.37,1.37,0,1,1,1.37-1.37,1.37,1.37,0,0,1-1.37,1.37m8.011,3.143a.386.386,0,0,1-.385.385H54.568a.386.386,0,0,1-.386-.385V77.472a.385.385,0,0,1,.386-.385H59.66a.385.385,0,0,1,.385.385Zm2.491-3.143a1.37,1.37,0,1,1,1.37-1.37,1.37,1.37,0,0,1-1.37,1.37" transform="translate(-14.753 -21.141)" fill="#3a1e16"/>
        <path id="Path_39236" data-name="Path 39236" d="M92.12,23.638H86.643a.5.5,0,0,0-.5.5v2.895H75.78V24.142a.5.5,0,0,0-.5-.5H69.8a.5.5,0,0,0-.5.5v5.79a.5.5,0,0,0,.5.5H71.2v9.2a1.516,1.516,0,0,0,1.516,1.516h2.987v3.909a1.27,1.27,0,0,0,1.27,1.27h8.307a1.27,1.27,0,0,0,1.27-1.27V41.152H89.2a1.516,1.516,0,0,0,1.516-1.516v-9.2H92.12a.5.5,0,0,0,.5-.5v-5.79a.5.5,0,0,0-.5-.5M75.88,34.8a1.37,1.37,0,1,1,1.37-1.37,1.37,1.37,0,0,1-1.37,1.37m8.011,3.143a.386.386,0,0,1-.385.385H78.413a.385.385,0,0,1-.385-.385V35.985a.385.385,0,0,1,.385-.385h5.092a.385.385,0,0,1,.385.385ZM86.381,34.8a1.37,1.37,0,1,1,1.37-1.37,1.37,1.37,0,0,1-1.37,1.37" transform="translate(-22.494 -7.673)" fill="#3a1e16"/>
        <path id="Path_39237" data-name="Path 39237" d="M44.43,21.428H38.952a.5.5,0,0,0-.5.5v2.895H28.09V21.932a.5.5,0,0,0-.5-.5H22.108a.5.5,0,0,0-.5.5v5.79a.5.5,0,0,0,.5.5h1.406v9.2a1.516,1.516,0,0,0,1.516,1.516h2.987v3.909a1.27,1.27,0,0,0,1.27,1.27h8.307a1.27,1.27,0,0,0,1.27-1.27V38.942h2.644a1.516,1.516,0,0,0,1.516-1.516v-9.2H44.43a.5.5,0,0,0,.5-.5v-5.79a.5.5,0,0,0-.5-.5M28.19,32.589a1.37,1.37,0,1,1,1.37-1.37,1.37,1.37,0,0,1-1.37,1.37M36.2,35.732a.386.386,0,0,1-.385.385H30.723a.386.386,0,0,1-.386-.385V33.775a.385.385,0,0,1,.386-.385h5.092a.385.385,0,0,1,.385.385Zm2.491-3.143a1.37,1.37,0,1,1,1.37-1.37,1.37,1.37,0,0,1-1.37,1.37" transform="translate(-7.013 -6.956)" fill="#fcbf10"/>
        <path id="Path_39238" data-name="Path 39238" d="M68.275,62.915H62.8a.5.5,0,0,0-.5.5v2.895H51.935V63.419a.5.5,0,0,0-.5-.5H45.953a.5.5,0,0,0-.5.5v5.79a.5.5,0,0,0,.5.5h1.406v9.2a1.516,1.516,0,0,0,1.516,1.516h2.987v3.909a1.27,1.27,0,0,0,1.27,1.27h8.307a1.27,1.27,0,0,0,1.27-1.27V80.429h2.644a1.516,1.516,0,0,0,1.516-1.516v-9.2h1.406a.5.5,0,0,0,.5-.5v-5.79a.5.5,0,0,0-.5-.5M52.035,74.076a1.37,1.37,0,1,1,1.37-1.37,1.37,1.37,0,0,1-1.37,1.37m8.011,3.143a.386.386,0,0,1-.385.385H54.568a.386.386,0,0,1-.386-.385V75.262a.385.385,0,0,1,.386-.385H59.66a.385.385,0,0,1,.385.385Zm2.491-3.143a1.37,1.37,0,1,1,1.37-1.37,1.37,1.37,0,0,1-1.37,1.37" transform="translate(-14.753 -20.424)" fill="#511110"/>
        <path id="Path_39239" data-name="Path 39239" d="M92.12,21.428H86.643a.5.5,0,0,0-.5.5v2.895H75.78V21.932a.5.5,0,0,0-.5-.5H69.8a.5.5,0,0,0-.5.5v5.79a.5.5,0,0,0,.5.5H71.2v9.2a1.516,1.516,0,0,0,1.516,1.516h2.987v3.909a1.27,1.27,0,0,0,1.27,1.27h8.307a1.27,1.27,0,0,0,1.27-1.27V38.942H89.2a1.516,1.516,0,0,0,1.516-1.516v-9.2H92.12a.5.5,0,0,0,.5-.5v-5.79a.5.5,0,0,0-.5-.5M75.88,32.589a1.37,1.37,0,1,1,1.37-1.37,1.37,1.37,0,0,1-1.37,1.37m8.011,3.143a.386.386,0,0,1-.385.385H78.413a.385.385,0,0,1-.385-.385V33.775a.385.385,0,0,1,.385-.385h5.092a.385.385,0,0,1,.385.385Zm2.491-3.143a1.37,1.37,0,1,1,1.37-1.37,1.37,1.37,0,0,1-1.37,1.37" transform="translate(-22.494 -6.956)" fill="#ff7f30"/>
      </g>
    </g>
  </g>
</svg>
