<svg id="Group_22271" data-name="Group 22271" xmlns="http://www.w3.org/2000/svg" xmlns:xlink="http://www.w3.org/1999/xlink" width="640" height="120" viewBox="0 0 640 120">
  <defs>
    <clipPath id="clip-path">
      <path id="Path_259467" data-name="Path 259467" d="M0,0H640V120H0V0Z" fill="none"/>
    </clipPath>
    <clipPath id="clip-path-2">
      <rect id="Rectangle_1400" data-name="Rectangle 1400" width="640" height="120" fill="#724428"/>
    </clipPath>
    <clipPath id="clip-path-3">
      <rect id="Rectangle_1398" data-name="Rectangle 1398" width="8.252" height="25.404" transform="translate(628.463 64.175)" fill="none"/>
    </clipPath>
    <clipPath id="clip-path-4">
      <rect id="Rectangle_1399" data-name="Rectangle 1399" width="16.846" height="13.386" transform="translate(620.171 102.645)" fill="none"/>
    </clipPath>
    <clipPath id="clip-path-5">
      <rect id="Rectangle_1608" data-name="Rectangle 1608" width="589.926" height="70.355" transform="translate(-217)" fill="none"/>
    </clipPath>
  </defs>
  <g id="Mask_Group_28356" data-name="Mask Group 28356" clip-path="url(#clip-path)">
    <g id="Group_21389" data-name="Group 21389">
      <g id="Group_21388" data-name="Group 21388" clip-path="url(#clip-path-2)">
        <path id="Path_39297" data-name="Path 39297" d="M.1,41.537l.077.63a13.668,13.668,0,0,0,.9,2.379c-.328,1.6-.806,4.272-.92,4.909L.1,52.535v55.548c0,2.562,7.431,11.84,10.938,11.84l470.238,0,2.322-.087c6.229-.136,56.73-.987,59.816-1.118,4.245,1,26.354,1.182,28.924,1.207h53.629c.074,0,.149,0,.225-.007l.1.084,1.258-.311c.414-.1,2.7-.793,7.162-4.3,3.567-2.806,5.088-4.832,4.919-6.61L640,92.517l-1.482-2.56c-.034-.442-.08-1.863.054-6.29l1.062-23.247V11.38c0-3.226-10.058-11.286-13.172-11.286H593.986l-3.619,1.3L543.7.094H135.067c-.178,0-.921.01-2.064.027-4.33.056-26.422.347-36.089.572-2.408.038-4.092.062-4.6.067-1.022-.087-4.92-.243-23-.547C66.339.143,64.2.094,63.9.094H14.448c-.087,0-.173,0-.26.01L14.017,0,12.873.382l-1.4.55c-.187.084-.384.176-.6.279l-.282.135c-.277.135-.564.28-.976.5C9.313,2,9,2.171,8.562,2.415L3.495,5.575c-.274.194-.534.382-.773.563l-.187.147c-.184.14-.362.28-.513.407l-.249.217c-.128.111-.252.22-.381.343L1.15,7.5c-.134.144-.25.279-.324.376S.67,8.09.62,8.169a2.6,2.6,0,0,0-.278.5L0,9.479l.1.394Z" fill="#ffb100"/>
        <path id="Path_39298" data-name="Path 39298" d="M638.572,83.667l1.062-23.247V11.38c0-3.226-10.058-11.286-13.172-11.286H593.987l-3.62,1.3L543.7.094H135.067c-.178,0-.921.01-2.064.027-4.33.057-26.421.347-36.089.572-2.408.038-4.091.062-4.6.067-1.022-.087-4.92-.243-23-.547C66.339.143,64.2.094,63.9.094H14.448c-.087,0-.173,0-.259.01L14.017,0,12.873.383l-1.4.55c-.187.083-.385.175-.6.278l-.282.135c-.276.135-.563.28-.976.5C9.313,2,9,2.171,8.562,2.415L3.495,5.575c-.274.194-.533.382-.773.563l-.186.147c-.184.14-.363.28-.514.407l-.249.217c-.128.111-.251.22-.381.343L1.15,7.5c-.134.144-.25.279-.323.376S.67,8.091.62,8.169a2.65,2.65,0,0,0-.278.5L0,9.479l.1.395V41.537l.077.63a13.791,13.791,0,0,0,.9,2.38c-.328,1.6-.805,4.271-.919,4.908L.1,52.535v55.549c0,2.562,7.431,11.839,10.938,11.839l470.238,0,2.323-.087c6.229-.136,56.729-.987,59.815-1.118,4.246,1,26.355,1.181,28.924,1.207h53.629c.075,0,.15,0,.226-.007l.105.084,1.258-.311c.413-.1,2.7-.792,7.161-4.3,3.567-2.806,5.088-4.832,4.919-6.61L640,92.517l-1.481-2.56c-.034-.442-.081-1.863.053-6.29M612.3,11.623c2.611.032,6.248.076,7.588.08.039.013.039.012.029.008a8.733,8.733,0,0,1,.88.48c.448.292.893.625,1.3.928.47.352.9.668,1.257.893.454.359.907.733,1.337,1.1l.895.863a6.262,6.262,0,0,1,1.21,1.525c-.259,15.125-.018,11.728.011,42.391v.563c-.1,1.283-.264,4.458-.544,13.092l-.525,11.75a6.893,6.893,0,0,0,.227,5.865,5.174,5.174,0,0,1,.231.566,31.834,31.834,0,0,1,.67,3.877v3.1c-.027.173-.053.357-.081.552a10.293,10.293,0,0,1-1.077,3.769c-.786,1.368-3.257,3.133-6.146,4.388-.157.068-1.738.673-8.749.975H570.953c-3.241-.429-28.183-1.066-28.336-1.066l-1.032.028c-9.974.261-57.327.732-59.484.922,7.884-.269,219.2.1,74.163.116H20.777a2.573,2.573,0,0,1-1.364-.384,21.063,21.063,0,0,1-4.634-3.7,9.361,9.361,0,0,1-.886-1.942c-.144-2.943.349-49.5.286-50.22-.079-.907,1.618-4.344,2.059-5.091l-.073-2.556a13,13,0,0,1-2.054-2.487c-.371-5.6-.55-19.676-.622-25.174,1.567-.82,3.9-2.193,6.965-4.106.721-.261,1.3-.453,1.644-.562,28.141-.232,33.158-.35,33.359-.354l0-.2h4.926l0,.058c.54-.04,2.776.042,4.525.138,1.827.1,18.952.273,26.2.343,1.254.026,2.069.041,2.228.041l.478-.005c1.582-.014,38.264-.33,41.936-.575h29.411l0,.08,74.12-.048h0c17.065-.014,162.584-.024,190.573-.032H541.886l46.077,1.2.51-.173c.016-.005,1.7-.575,3.248-1.024ZM4.135,8.364Z" fill="#410c0f"/>
        <path id="Path_39299" data-name="Path 39299" d="M637.011,10.27c0-1.333-8.315-8.663-10.549-8.663h-32.02l-3.725,1.334L543.59,1.607H135.066c-1.46,0-41.351.666-42.867.666-1.064,0-27.209-.666-28.3-.666H14.448c-1.923,0-11.727,6-11.727,7.108V40.426l1.117,2.665L2.721,49.31v57.663c0,1.333,6.578,9.216,8.315,9.216H481.175l62.52-1.221,28.64,1.221h53.631c2.234,0,11.045-6.328,11.045-8.327V92.316l-1.365-3.22,1.365-29.787Zm-7.522,48.677L628.25,86.718l1.239,2.809v13.118c0,1.744-8,7.263-10.024,7.263h-48.7l-28.114-1.065-61.223,1.065H18.368c-1.577,0-7.547-6.875-7.547-8.038V50.424L11.835,45l-1.014-2.324V14.087c0-.968,8.9-6.2,10.644-6.2H65.478c.985,0,26.893.581,27.859.581,1.376,0,40.992-.581,42.317-.581H541.987l45.647,1.163,3.381-1.163h28.9c2.027,0,9.574,6.393,9.574,7.555Z" fill="#885e39"/>
        <path id="Path_39300" data-name="Path 39300" d="M13.7,1.76c-2.84.907-10.38,5.576-10.945,6.823.592,1.772,6.16,6.156,8.065,5.5,2.1-.72,10.643-6.2,10.643-6.2A34.44,34.44,0,0,0,13.7,1.76" fill="#674734"/>
        <path id="Path_39301" data-name="Path 39301" d="M542.653,108.843l1.041,6.124s-59.874,1.263-61.9,1.143a47.489,47.489,0,0,1,.144-6.2s59.335-1.057,60.714-1.065" fill="#674734"/>
        <path id="Path_39302" data-name="Path 39302" d="M92.539,2.363a14.971,14.971,0,0,1,.8,6.105s39.7-.343,42.317-.58a15.31,15.31,0,0,0-.588-6.281s-41.081.517-42.527.756" fill="#674734"/>
        <path id="Path_39303" data-name="Path 39303" d="M590.717,2.94a58.692,58.692,0,0,1-3.083,6.11s2.256-.764,3.992-1.241a27.127,27.127,0,0,0,2.816-6.2s-2.512.917-3.725,1.334" fill="#674734"/>
        <path id="Path_39304" data-name="Path 39304" d="M3.838,43.091S10.2,44.6,11.9,45.066c0,0-.909,4.115-1.082,5.357a63.806,63.806,0,0,0-8.08-1.62s.844-4.745,1.1-5.712" fill="#674734"/>
        <g id="Group_21384" data-name="Group 21384" opacity="0.5">
          <g id="Group_21383" data-name="Group 21383">
            <g id="Group_21382" data-name="Group 21382" clip-path="url(#clip-path-3)">
              <path id="Path_39305" data-name="Path 39305" d="M629.256,64.175l7.459,1.589s-1.309,22.384-.73,23.815c0,0-4.416-1.592-7.522-2.863Z" fill="#674734"/>
            </g>
          </g>
        </g>
        <g id="Group_21387" data-name="Group 21387" opacity="0.5">
          <g id="Group_21386" data-name="Group 21386">
            <g id="Group_21385" data-name="Group 21385" clip-path="url(#clip-path-4)">
              <path id="Path_39306" data-name="Path 39306" d="M629.489,102.645s5.075,1.659,7.522,5.216c0,0,.325,1.014-3.919,4.353s-6.171,3.817-6.171,3.817a78.511,78.511,0,0,1-6.75-6.043s7.521-3.022,9.318-7.343" fill="#674734"/>
            </g>
          </g>
        </g>
        <path id="Path_39307" data-name="Path 39307" d="M570.767,109.908a32.313,32.313,0,0,0,1.569,6.281s-25.121-.158-28.641-1.222a44.167,44.167,0,0,1-1.042-6.124s25.648.667,28.114,1.065" fill="#86602c"/>
        <path id="Path_39308" data-name="Path 39308" d="M14.169,11.547S17.592,9.4,20.389,7.73A23.348,23.348,0,0,0,13.7,1.761a47.111,47.111,0,0,1,7.844,5.731s31.967.6,33.847.6c0,0-4.918.119-33.7.358a43.585,43.585,0,0,0-7.522,3.1" fill="#ab7748"/>
        <path id="Path_39309" data-name="Path 39309" d="M92.2,2.273a9.146,9.146,0,0,1,1.138,6.2s-27.437-.542-27.86-.58a21.437,21.437,0,0,0-1-6.24s26.661.416,27.724.625" fill="#8b6335"/>
        <path id="Path_39310" data-name="Path 39310" d="M543.633,2.005s-.289,4.174-.434,5.248c0,0,41.553,1.568,44.435,1.8,0,0-43.966-1.125-45.647-1.164s-375.378-.038-376.825.082c0,0,375.084-.695,376.446-.835,1.157-.12,1.88-4.413,2.025-5.129" fill="#ab7748"/>
        <path id="Path_39311" data-name="Path 39311" d="M2.721,40.426s6.24.585,7.976.943a17.345,17.345,0,0,0,1.206,3.7L3.838,43.091a14.948,14.948,0,0,1-1.117-2.665" fill="#8b6335"/>
        <path id="Path_39312" data-name="Path 39312" d="M10.842,13.813s-1.054,25.4-.021,28.863,1.082,2.39,1.082,2.39S10.842,49.36,10.7,50.791s.145,34.176,0,38.112-.578,12.776-.144,13.73c0,0,1.591,1.789,2.459,2.743a13.173,13.173,0,0,1-1.736-3.936c-.265-2.625.434-48.5.289-50.172a15.091,15.091,0,0,1,1.591-6.083,4.372,4.372,0,0,1-1.591-2.862c-.434-6.56-.7-25.921-.723-28.51" fill="#ab7748"/>
        <path id="Path_39313" data-name="Path 39313" d="M3.176,9.519s4.629,3.578,6.943,3.7a19.184,19.184,0,0,0,4.05-1.669s-3.037,1.908-3.471,2.981c0,0-2.6-.715-7.522-5.009" fill="#ab7748"/>
        <path id="Path_39314" data-name="Path 39314" d="M627.4,12.978s2.314,1.193,2.6,2.505c0,0,.289,40.438-.579,43.3,0,0-.289-39.126,0-42.823a6.757,6.757,0,0,0-2.025-2.982" fill="#ab7748"/>
        <path id="Path_39315" data-name="Path 39315" d="M628.56,84.251s-.049,1.948-.1,2.465a14.849,14.849,0,0,0,1.026,2.811A38.34,38.34,0,0,1,629.573,95a45.643,45.643,0,0,0-.868-5.142c-.434-1.432-1.736-2.505-.145-5.606" fill="#ab7748"/>
        <path id="Path_39316" data-name="Path 39316" d="M626.825,2.005s-4.484,4.413-6.22,4.89-6.654.716-11.138.954c0,0,8.63.12,10.56.12,1.446,0,3.616,2.027,4.773,2.743,0,0-2.6-2.147-2.748-2.982s3.616-3.7,4.773-5.725" fill="#ab7748"/>
        <path id="Path_39317" data-name="Path 39317" d="M64.476,109.908s415.728.6,417.319.6,59.335-1.653,60.859-1.661c0,0-57.676.707-60.425.946-2.014.174-417.753.119-417.753.119" fill="#ab7748"/>
        <path id="Path_39318" data-name="Path 39318" d="M64.331,1.647a24.421,24.421,0,0,1,1.591,5.606S90.659,8.366,92.973,8.445c0,0-25.749-.238-27.919-.357-1.156-.064-4-.194-4.843-.137,0,0,3.879-.34,4.554-.818s-.53-5.009-.434-5.486" fill="#ab7748"/>
        <path id="Path_39319" data-name="Path 39319" d="M629.573,97.385s.145,5.009-.145,5.725a17.947,17.947,0,0,1-9.257,6.878l-13.454.04s11.14-.12,13.888-1.312,6.075-3.221,7.377-5.487,1.3-4.651,1.591-5.844" fill="#ab7748"/>
        <path id="Path_39320" data-name="Path 39320" d="M630.011,20.068s7-7.868,7-7.593V38.457l-4.43,3.751-2.555-1.1Z" fill="#674734"/>
        <path id="Path_39321" data-name="Path 39321" d="M42.132,116.189c.283-.671,5.522-6.281,5.522-6.281l19.255,0,9.2.013-.85,3.124-.991,3.14Z" fill="#674734"/>
      </g>
    </g>
    <g id="Group_22264" data-name="Group 22264" transform="translate(246.334 24.822)" opacity="0.736">
      <g id="Group_22264-2" data-name="Group 22264" transform="translate(0 0)" clip-path="url(#clip-path-5)">
        <g id="Group_22266" data-name="Group 22266" transform="translate(-217)">
          <path id="Path_39790" data-name="Path 39790" d="M20.941,21.925A3.191,3.191,0,0,0,21.8,20.5c.051-.572-.383-.909-.848-1.446S15.723,15,15.566,14.871c-.082-.063-1.131-.876-2.158-1.673a1.265,1.265,0,0,0,.2-.421,4.746,4.746,0,0,0-.371-1.861c-.3-.388-.724-.054-1.277.2a5.5,5.5,0,0,0-.652.451c-.367-.275-1.556-1.124-1.969-.923-.913.444-.913,2.866-.913,2.866a1.209,1.209,0,0,0,.156.236c-.969.794-1.785,1.474-1.848,1.525-.154.121-3.845,3.06-4.038,3.212s-1.544,1.257-1.656,1.939c-.222,1.364,1.17,2.754,1.17,2.754.621.047,5.772-3.7,5.772-3.7s2.744-2.625,3.074-3.065c.023-.031.075-.1.115-.152,1.352,1.207,2.691,2.335,2.691,2.335s3.081,1.962,3.524,2.133,3.378,1.408,3.553,1.2" transform="translate(0.762 7.949)" fill="#4c2a18"/>
          <path id="Path_39791" data-name="Path 39791" d="M7.17,29.767,9.328,31.44a1.265,1.265,0,0,0-.2.421A4.741,4.741,0,0,0,9.5,33.723c.3.39.724.054,1.277-.2a5.929,5.929,0,0,0,.652-.453c.367.276,1.556,1.124,1.969.923.911-.442.913-2.866.913-2.866a1.2,1.2,0,0,0-.157-.234c.971-.8,1.785-1.474,1.85-1.525l4.038-3.214c.192-.152,1.544-1.257,1.654-1.939.224-1.362-1.168-2.754-1.168-2.754-.621-.045-5.772,3.7-5.772,3.7s-2.744,2.623-3.074,3.064l-.117.152c-1.35-1.2-2.689-2.333-2.689-2.333S5.79,24.08,5.348,23.911s-3.378-1.409-3.553-1.2a3.166,3.166,0,0,0-.857,1.427c-.051.57.383.909.848,1.444s5.227,4.059,5.384,4.181" transform="translate(0.699 16.064)" fill="#4c2a18"/>
          <path id="Path_39792" data-name="Path 39792" d="M9.24,16.508,7.173,20.089s-2.557,1.485-3.455,2.067l.009.005c.3.161,3.461,1.733,3.461,1.733l1.647,3.44,2.013-3.316,3.915-1.74-3.326-1.925Z" transform="translate(2.783 12.359)" fill="#4c2a18"/>
          <path id="Path_39793" data-name="Path 39793" d="M2.261,13.173l1.387-.051.869-1.1-.063-1.661L3.333,9.594,1.861,9.8,1,10.83l.2,1.687Z" transform="translate(0.751 7.183)" fill="#4c2a18"/>
          <path id="Path_39794" data-name="Path 39794" d="M13.747,12.876l.9-1.137-.063-1.714L13.424,9.24l-1.518.213-.883,1.06.2,1.74,1.093.675Z" transform="translate(8.253 6.918)" fill="#4c2a18"/>
          <path id="Path_39795" data-name="Path 39795" d="M2.328,27.2.856,27.4,0,28.433l.2,1.687,1.06.656,1.387-.051.869-1.1-.063-1.661Z" transform="translate(0 20.362)" fill="#4c2a18"/>
          <path id="Path_39796" data-name="Path 39796" d="M13.251,27.043l-.883,1.06.2,1.738,1.093.677,1.429-.052.9-1.137-.063-1.714-1.156-.785Z" transform="translate(9.26 20.087)" fill="#4c2a18"/>
          <path id="Path_39797" data-name="Path 39797" d="M2.47,7.852c.588.163,6.5.24,6.692.247s8.628-.082,8.875-.072,4.178-.1,4.711-.539C23.814,6.6,21.5,4.79,21.5,4.79c-.439-.439-10.508-.682-10.508-.682s-3.805.2-4.345.325a28.425,28.425,0,0,0-4.326,1.1,4.718,4.718,0,0,0-.944,1.649c-.03.49.511.511,1.1.673" transform="translate(1.026 3.076)" fill="#4c2a18"/>
          <path id="Path_39798" data-name="Path 39798" d="M3.427,3.527c.588.163,6.5.456,6.692.465s8.628-.082,8.875-.073,2.931.117,3.464-.327c1.068-.887-.005-2.91-.005-2.91C22.014.245,11.945,0,11.945,0S8.14.2,7.6.325,3.471.932,3.273,1.2a4.78,4.78,0,0,0-.946,1.649c-.028.49.512.511,1.1.673" transform="translate(1.742)" fill="#4c2a18"/>
          <path id="Path_39799" data-name="Path 39799" d="M17.982,35.905a28.214,28.214,0,0,0,4.326-1.1,4.712,4.712,0,0,0,.946-1.647c.028-.49-.512-.511-1.1-.673s-6.5-.24-6.692-.248-8.628.082-8.875.073-2.931-.117-3.464.327a1.942,1.942,0,0,0-.474,2.219c.439.437,7.822,1.373,7.822,1.373s6.97-.206,7.511-.325" transform="translate(1.86 24.136)" fill="#4c2a18"/>
          <path id="Path_39800" data-name="Path 39800" d="M19.678,36.215c-.245.009-8.677-.082-8.873-.073s-6.106.084-6.694.247-1.126.184-1.1.675a4.753,4.753,0,0,0,.944,1.647,28.427,28.427,0,0,0,4.326,1.1c.542.121,4.345.325,4.345.325s10.071-.243,10.508-.682c0,0,1.074-2.021.007-2.908-.535-.444-3.221-.337-3.466-.327" transform="translate(2.255 27.058)" fill="#4c2a18"/>
        </g>
        <g id="Group_22267" data-name="Group 22267" transform="translate(-4)">
          <path id="Path_39801" data-name="Path 39801" d="M204.771,22.217c.442-.171,3.524-2.133,3.524-2.133s1.34-1.128,2.691-2.335c.04.054.093.122.115.152.33.442,3.074,3.065,3.074,3.065s5.152,3.749,5.772,3.7c0,0,1.392-1.39,1.17-2.754-.112-.68-1.464-1.787-1.656-1.939s-3.884-3.092-4.038-3.212c-.063-.051-.88-.731-1.848-1.525a1.261,1.261,0,0,0,.156-.234s0-2.424-.913-2.868c-.413-.2-1.6.649-1.969.925a5.374,5.374,0,0,0-.652-.453c-.553-.259-.974-.593-1.277-.2a4.732,4.732,0,0,0-.371,1.859,1.265,1.265,0,0,0,.2.421l-2.158,1.673c-.157.124-4.919,3.644-5.384,4.181s-.9.874-.848,1.446a3.2,3.2,0,0,0,.857,1.427c.175.212,3.111-1.026,3.553-1.2" transform="translate(150.006 9.063)" fill="#4c2a18"/>
          <path id="Path_39802" data-name="Path 39802" d="M220.374,27.075c.465-.537.9-.874.848-1.446a3.181,3.181,0,0,0-.857-1.427c-.175-.213-3.111,1.026-3.553,1.2s-3.524,2.133-3.524,2.133-1.339,1.128-2.691,2.335c-.04-.054-.093-.121-.115-.152-.33-.441-3.074-3.065-3.074-3.065s-5.152-3.749-5.772-3.7c0,0-1.392,1.39-1.17,2.754.112.682,1.464,1.787,1.656,1.939s3.884,3.092,4.038,3.212c.063.051.88.731,1.848,1.525a1.26,1.26,0,0,0-.156.234s0,2.424.913,2.868c.413.2,1.6-.649,1.969-.923a5.5,5.5,0,0,0,.652.451c.553.259.974.593,1.277.2a4.732,4.732,0,0,0,.371-1.859,1.265,1.265,0,0,0-.2-.421c1.026-.8,2.076-1.611,2.158-1.674.157-.124,4.919-3.646,5.384-4.181" transform="translate(150.068 17.179)" fill="#4c2a18"/>
          <path id="Path_39803" data-name="Path 39803" d="M208.748,18l-2.2,3.845-3.326,1.925,3.915,1.74,2.013,3.316,1.647-3.44s3.163-1.57,3.461-1.733l.009-.005c-.9-.582-3.455-2.067-3.455-2.067Z" transform="translate(152.153 13.474)" fill="#4c2a18"/>
          <path id="Path_39804" data-name="Path 39804" d="M210.31,11.845l-.063,1.663.869,1.1,1.387.052,1.06-.658.2-1.686-.857-1.028-1.472-.208Z" transform="translate(157.41 8.297)" fill="#4c2a18"/>
          <path id="Path_39805" data-name="Path 39805" d="M203.585,13.741l.2-1.738-.883-1.06-1.516-.215-1.156.787-.065,1.712.9,1.137,1.429.054Z" transform="translate(149.864 8.032)" fill="#4c2a18"/>
          <path id="Path_39806" data-name="Path 39806" d="M213.908,28.894l-1.472-.208-1.121.762-.063,1.663.871,1.1,1.385.052,1.06-.658.2-1.686Z" transform="translate(158.162 21.477)" fill="#4c2a18"/>
          <path id="Path_39807" data-name="Path 39807" d="M201.146,32.007l1.093-.677.2-1.738-.883-1.06-1.518-.215-1.156.787-.063,1.714.9,1.137Z" transform="translate(148.856 21.201)" fill="#4c2a18"/>
          <path id="Path_39808" data-name="Path 39808" d="M203.8,9.216c.245.007,8.651.666,8.848.671s6.1.329,6.694.2,1.137-.107,1.142-.6a4.763,4.763,0,0,0-.829-1.708A28.368,28.368,0,0,0,215.418,6.4c-.532-.156-4.312-.616-4.312-.616s-10.064-.437-10.531-.03c0,0-2.438,1.653-1.434,2.607.5.479,4.419.848,4.664.855" transform="translate(148.913 4.178)" fill="#4c2a18"/>
          <path id="Path_39809" data-name="Path 39809" d="M202.8,5.082c.245.007,8.652.666,8.848.671s6.112.11,6.708-.012,1.138-.107,1.144-.6a4.728,4.728,0,0,0-.831-1.707c-.178-.287-3.725-1.014-4.256-1.17s-4.312-.617-4.312-.617-10.064-.435-10.531-.028c0,0-1.21,1.946-.2,2.9.5.479,3.19.553,3.434.56" transform="translate(148.964 1.082)" fill="#4c2a18"/>
          <path id="Path_39810" data-name="Path 39810" d="M215.564,33.673c-.245.009-8.677-.08-8.873-.073s-6.106.084-6.694.247-1.126.184-1.1.675a4.753,4.753,0,0,0,.944,1.647,28.627,28.627,0,0,0,4.326,1.1c.542.119,7.511.325,7.511.325s7.383-.936,7.822-1.374A1.941,1.941,0,0,0,219.03,34c-.535-.444-3.221-.336-3.466-.327" transform="translate(148.914 25.155)" fill="#4c2a18"/>
          <path id="Path_39811" data-name="Path 39811" d="M217.312,38.2c-.588-.163-6.5-.24-6.692-.247s-8.628.082-8.875.073-2.931-.117-3.464.325c-1.068.888.005,2.91.005,2.91.439.439,10.508.682,10.508.682s3.805-.2,4.345-.325a28.422,28.422,0,0,0,4.326-1.1,4.725,4.725,0,0,0,.944-1.647c.03-.491-.511-.512-1.1-.675" transform="translate(148.097 28.414)" fill="#4c2a18"/>
        </g>
      </g>
    </g>
  </g>
</svg>
