<svg xmlns="http://www.w3.org/2000/svg" xmlns:xlink="http://www.w3.org/1999/xlink" width="640" height="120" viewBox="0 0 640 120">
  <defs>
    <clipPath id="clip-path">
      <rect id="Rectangle_1405" data-name="Rectangle 1405" width="640" height="120" fill="none"/>
    </clipPath>
    <clipPath id="clip-path-3">
      <rect id="Rectangle_1402" data-name="Rectangle 1402" width="8.252" height="25.404" transform="translate(628.463 64.175)" fill="none"/>
    </clipPath>
    <clipPath id="clip-path-4">
      <rect id="Rectangle_1403" data-name="Rectangle 1403" width="16.846" height="13.386" transform="translate(620.171 102.645)" fill="none"/>
    </clipPath>
  </defs>
  <g id="Group_21401" data-name="Group 21401" transform="translate(1 6)">
    <g id="Group_21400" data-name="Group 21400" transform="translate(-1 -6)" clip-path="url(#clip-path)">
      <g id="Group_21399" data-name="Group 21399">
        <g id="Group_21398" data-name="Group 21398" clip-path="url(#clip-path)">
          <path id="Path_39322" data-name="Path 39322" d="M.1,41.537l.077.63a13.668,13.668,0,0,0,.9,2.379c-.328,1.6-.806,4.272-.92,4.909L.1,52.535v55.548c0,2.562,7.431,11.84,10.938,11.84l470.238,0,2.322-.087c6.229-.136,56.73-.987,59.816-1.118,4.245,1,26.354,1.182,28.924,1.207h53.629c.074,0,.149,0,.225-.007l.1.084,1.258-.311c.414-.1,2.7-.793,7.162-4.3,3.567-2.806,5.088-4.832,4.919-6.61L640,92.517l-1.482-2.56c-.034-.442-.08-1.863.054-6.29l1.062-23.247V11.38c0-3.226-10.058-11.286-13.172-11.286H593.986l-3.619,1.3L543.7.094H135.067c-.178,0-.921.01-2.064.027-4.33.056-26.422.347-36.089.572-2.408.038-4.092.062-4.6.067-1.022-.087-4.92-.243-23-.547C66.339.143,64.2.094,63.9.094H14.448c-.087,0-.173,0-.26.01L14.017,0,12.873.382l-1.4.55c-.187.084-.384.176-.6.279l-.282.135c-.277.135-.564.28-.976.5C9.313,2,9,2.171,8.562,2.415L3.495,5.575c-.274.194-.534.382-.773.563l-.187.147c-.184.14-.362.28-.513.407l-.249.217c-.128.111-.252.22-.381.343L1.15,7.5c-.134.144-.25.279-.324.376S.67,8.09.62,8.169a2.6,2.6,0,0,0-.278.5L0,9.479l.1.394Z" fill="#661313"/>
          <path id="Path_39323" data-name="Path 39323" d="M638.572,83.667l1.062-23.247V11.38c0-3.226-10.058-11.286-13.172-11.286H593.987l-3.62,1.3L543.7.094H135.067c-.178,0-.921.01-2.064.027-4.33.057-26.421.347-36.089.572-2.408.038-4.091.062-4.6.067-1.022-.087-4.92-.243-23-.547C66.339.143,64.2.094,63.9.094H14.448c-.087,0-.173,0-.259.01L14.017,0,12.873.383l-1.4.55c-.187.083-.385.175-.6.278l-.282.135c-.276.135-.563.28-.976.5C9.313,2,9,2.171,8.562,2.415L3.495,5.575c-.274.194-.533.382-.773.563l-.186.147c-.184.14-.363.28-.514.407l-.249.217c-.128.111-.251.22-.381.343L1.15,7.5c-.134.144-.25.279-.323.376S.67,8.091.62,8.169a2.65,2.65,0,0,0-.278.5L0,9.479l.1.395V41.537l.077.63a13.791,13.791,0,0,0,.9,2.38c-.328,1.6-.805,4.271-.919,4.908L.1,52.535v55.549c0,2.562,7.431,11.839,10.938,11.839l470.238,0,2.323-.087c6.229-.136,56.729-.987,59.815-1.118,4.246,1,26.355,1.181,28.924,1.207h53.629c.075,0,.15,0,.226-.007l.105.084,1.258-.311c.413-.1,2.7-.792,7.161-4.3,3.567-2.806,5.088-4.832,4.919-6.61L640,92.517l-1.481-2.56c-.034-.442-.081-1.863.053-6.29M612.3,11.623c2.611.032,6.248.076,7.588.08.039.013.039.012.029.008a8.733,8.733,0,0,1,.88.48c.448.292.893.625,1.3.928.47.352.9.668,1.257.893.454.359.907.733,1.337,1.1l.895.863a6.262,6.262,0,0,1,1.21,1.525c-.259,15.125-.018,11.728.011,42.391v.563c-.1,1.283-.264,4.458-.544,13.092l-.525,11.75a6.893,6.893,0,0,0,.227,5.865,5.174,5.174,0,0,1,.231.566,31.834,31.834,0,0,1,.67,3.877v3.1c-.027.173-.053.357-.081.552a10.293,10.293,0,0,1-1.077,3.769c-.786,1.368-3.257,3.133-6.146,4.388-.157.068-1.738.673-8.749.975H570.953c-3.241-.429-28.183-1.066-28.336-1.066l-1.032.028c-9.974.261-57.327.732-59.484.922,7.884-.269,219.2.1,74.163.116H20.777a2.573,2.573,0,0,1-1.364-.384,21.063,21.063,0,0,1-4.634-3.7,9.361,9.361,0,0,1-.886-1.942c-.144-2.943.349-49.5.286-50.22-.079-.907,1.618-4.344,2.059-5.091l-.073-2.556a13,13,0,0,1-2.054-2.487c-.371-5.6-.55-19.676-.622-25.174,1.567-.82,3.9-2.193,6.965-4.106.721-.261,1.3-.453,1.644-.562,28.141-.232,33.158-.35,33.359-.354l0-.2h4.926l0,.058c.54-.04,2.776.042,4.525.138,1.827.1,18.952.273,26.2.343,1.254.026,2.069.041,2.228.041l.478-.005c1.582-.014,38.264-.33,41.936-.575h29.411l0,.08,74.12-.048h0c17.065-.014,162.584-.024,190.573-.032H541.886l46.077,1.2.51-.173c.016-.005,1.7-.575,3.248-1.024ZM4.135,8.364Z" fill="#410c0f"/>
          <path id="Path_39324" data-name="Path 39324" d="M637.011,10.27c0-1.333-8.315-8.663-10.549-8.663h-32.02l-3.725,1.334L543.59,1.607H135.066c-1.46,0-41.351.666-42.867.666-1.064,0-27.209-.666-28.3-.666H14.448c-1.923,0-11.727,6-11.727,7.108V40.426l1.117,2.665L2.721,49.31v57.663c0,1.333,6.578,9.216,8.315,9.216H481.175l62.52-1.221,28.64,1.221h53.631c2.234,0,11.045-6.328,11.045-8.327V92.316l-1.365-3.22,1.365-29.787Zm-7.522,48.677L628.25,86.718l1.239,2.809v13.118c0,1.744-8,7.263-10.024,7.263h-48.7l-28.114-1.065-61.223,1.065H18.368c-1.577,0-7.547-6.875-7.547-8.038V50.424L11.835,45l-1.014-2.324V14.087c0-.968,8.9-6.2,10.644-6.2H65.478c.985,0,26.893.581,27.859.581,1.376,0,40.992-.581,42.317-.581H541.987l45.647,1.163,3.381-1.163h28.9c2.027,0,9.574,6.393,9.574,7.555Z" fill="#885e39"/>
          <path id="Path_39325" data-name="Path 39325" d="M13.7,1.76c-2.84.907-10.38,5.576-10.945,6.823.592,1.772,6.16,6.156,8.065,5.5,2.1-.72,10.643-6.2,10.643-6.2A34.44,34.44,0,0,0,13.7,1.76" fill="#674734"/>
          <path id="Path_39326" data-name="Path 39326" d="M542.653,108.843l1.041,6.124s-59.874,1.263-61.9,1.143a47.489,47.489,0,0,1,.144-6.2s59.335-1.057,60.714-1.065" fill="#674734"/>
          <path id="Path_39327" data-name="Path 39327" d="M92.539,2.363a14.971,14.971,0,0,1,.8,6.105s39.7-.343,42.317-.58a15.31,15.31,0,0,0-.588-6.281s-41.081.517-42.527.756" fill="#674734"/>
          <path id="Path_39328" data-name="Path 39328" d="M590.717,2.94a58.692,58.692,0,0,1-3.083,6.11s2.256-.764,3.992-1.241a27.127,27.127,0,0,0,2.816-6.2s-2.512.917-3.725,1.334" fill="#674734"/>
          <path id="Path_39329" data-name="Path 39329" d="M3.838,43.091S10.2,44.6,11.9,45.066c0,0-.909,4.115-1.082,5.357a63.806,63.806,0,0,0-8.08-1.62s.844-4.745,1.1-5.712" fill="#674734"/>
          <g id="Group_21394" data-name="Group 21394" opacity="0.5">
            <g id="Group_21393" data-name="Group 21393">
              <g id="Group_21392" data-name="Group 21392" clip-path="url(#clip-path-3)">
                <path id="Path_39330" data-name="Path 39330" d="M629.256,64.175l7.459,1.589s-1.309,22.384-.73,23.815c0,0-4.416-1.592-7.522-2.863Z" fill="#674734"/>
              </g>
            </g>
          </g>
          <g id="Group_21397" data-name="Group 21397" opacity="0.5">
            <g id="Group_21396" data-name="Group 21396">
              <g id="Group_21395" data-name="Group 21395" clip-path="url(#clip-path-4)">
                <path id="Path_39331" data-name="Path 39331" d="M629.489,102.645s5.075,1.659,7.522,5.216c0,0,.325,1.014-3.919,4.353s-6.171,3.817-6.171,3.817a78.511,78.511,0,0,1-6.75-6.043s7.521-3.022,9.318-7.343" fill="#674734"/>
              </g>
            </g>
          </g>
          <path id="Path_39332" data-name="Path 39332" d="M570.767,109.908a32.313,32.313,0,0,0,1.569,6.281s-25.121-.158-28.641-1.222a44.167,44.167,0,0,1-1.042-6.124s25.648.667,28.114,1.065" fill="#86602c"/>
          <path id="Path_39333" data-name="Path 39333" d="M14.169,11.547S17.592,9.4,20.389,7.73A23.348,23.348,0,0,0,13.7,1.761a47.111,47.111,0,0,1,7.844,5.731s31.967.6,33.847.6c0,0-4.918.119-33.7.358a43.585,43.585,0,0,0-7.522,3.1" fill="#ab7748"/>
          <path id="Path_39334" data-name="Path 39334" d="M92.2,2.273a9.146,9.146,0,0,1,1.138,6.2s-27.437-.542-27.86-.58a21.437,21.437,0,0,0-1-6.24s26.661.416,27.724.625" fill="#8b6335"/>
          <path id="Path_39335" data-name="Path 39335" d="M543.633,2.005s-.289,4.174-.434,5.248c0,0,41.553,1.568,44.435,1.8,0,0-43.966-1.125-45.647-1.164s-375.378-.038-376.825.082c0,0,375.084-.695,376.446-.835,1.157-.12,1.88-4.413,2.025-5.129" fill="#ab7748"/>
          <path id="Path_39336" data-name="Path 39336" d="M2.721,40.426s6.24.585,7.976.943a17.345,17.345,0,0,0,1.206,3.7L3.838,43.091a14.948,14.948,0,0,1-1.117-2.665" fill="#8b6335"/>
          <path id="Path_39337" data-name="Path 39337" d="M10.842,13.813s-1.054,25.4-.021,28.863,1.082,2.39,1.082,2.39S10.842,49.36,10.7,50.791s.145,34.176,0,38.112-.578,12.776-.144,13.73c0,0,1.591,1.789,2.459,2.743a13.173,13.173,0,0,1-1.736-3.936c-.265-2.625.434-48.5.289-50.172a15.091,15.091,0,0,1,1.591-6.083,4.372,4.372,0,0,1-1.591-2.862c-.434-6.56-.7-25.921-.723-28.51" fill="#ab7748"/>
          <path id="Path_39338" data-name="Path 39338" d="M3.176,9.519s4.629,3.578,6.943,3.7a19.184,19.184,0,0,0,4.05-1.669s-3.037,1.908-3.471,2.981c0,0-2.6-.715-7.522-5.009" fill="#ab7748"/>
          <path id="Path_39339" data-name="Path 39339" d="M627.4,12.978s2.314,1.193,2.6,2.505c0,0,.289,40.438-.579,43.3,0,0-.289-39.126,0-42.823a6.757,6.757,0,0,0-2.025-2.982" fill="#ab7748"/>
          <path id="Path_39340" data-name="Path 39340" d="M628.56,84.251s-.049,1.948-.1,2.465a14.849,14.849,0,0,0,1.026,2.811A38.34,38.34,0,0,1,629.573,95a45.643,45.643,0,0,0-.868-5.142c-.434-1.432-1.736-2.505-.145-5.606" fill="#ab7748"/>
          <path id="Path_39341" data-name="Path 39341" d="M626.825,2.005s-4.484,4.413-6.22,4.89-6.654.716-11.138.954c0,0,8.63.12,10.56.12,1.446,0,3.616,2.027,4.773,2.743,0,0-2.6-2.147-2.748-2.982s3.616-3.7,4.773-5.725" fill="#ab7748"/>
          <path id="Path_39342" data-name="Path 39342" d="M64.476,109.908s415.728.6,417.319.6,59.335-1.653,60.859-1.661c0,0-57.676.707-60.425.946-2.014.174-417.753.119-417.753.119" fill="#ab7748"/>
          <path id="Path_39343" data-name="Path 39343" d="M64.331,1.647a24.421,24.421,0,0,1,1.591,5.606S90.659,8.366,92.973,8.445c0,0-25.749-.238-27.919-.357-1.156-.064-4-.194-4.843-.137,0,0,3.879-.34,4.554-.818s-.53-5.009-.434-5.486" fill="#ab7748"/>
          <path id="Path_39344" data-name="Path 39344" d="M629.573,97.385s.145,5.009-.145,5.725a17.947,17.947,0,0,1-9.257,6.878l-13.454.04s11.14-.12,13.888-1.312,6.075-3.221,7.377-5.487,1.3-4.651,1.591-5.844" fill="#ab7748"/>
          <path id="Path_39345" data-name="Path 39345" d="M630.011,20.068s7-7.868,7-7.593V38.457l-4.43,3.751-2.555-1.1Z" fill="#674734"/>
          <path id="Path_39346" data-name="Path 39346" d="M42.132,116.189c.283-.671,5.522-6.281,5.522-6.281l19.255,0,9.2.013-.85,3.124-.991,3.14Z" fill="#674734"/>
        </g>
      </g>
    </g>
  </g>
</svg>
