<svg id="Group_21454" data-name="Group 21454" xmlns="http://www.w3.org/2000/svg" xmlns:xlink="http://www.w3.org/1999/xlink" width="327.727" height="95.144" viewBox="0 0 327.727 95.144">
  <defs>
    <clipPath id="clip-path">
      <rect id="Rectangle_1426" data-name="Rectangle 1426" width="327.727" height="95.144" fill="none"/>
    </clipPath>
    <clipPath id="clip-path-3">
      <rect id="Rectangle_1423" data-name="Rectangle 1423" width="6.542" height="20.142" fill="none"/>
    </clipPath>
    <clipPath id="clip-path-4">
      <rect id="Rectangle_1424" data-name="Rectangle 1424" width="13.357" height="10.613" fill="none"/>
    </clipPath>
  </defs>
  <g id="Group_21449" data-name="Group 21449" clip-path="url(#clip-path)">
    <g id="Group_21448" data-name="Group 21448">
      <g id="Group_21447" data-name="Group 21447" clip-path="url(#clip-path)">
        <path id="Path_39380" data-name="Path 39380" d="M.078,32.933l.061.5a10.837,10.837,0,0,0,.715,1.886c-.26,1.272-.639,3.387-.729,3.892L.078,41.653V85.7c0,2.031,5.892,9.388,8.672,9.388l210.455,0,1.841-.069c4.94-.108,27.652-.783,30.1-.886,3.366.8,20.9.937,22.933.957H316.6c.059,0,.118,0,.178-.006l.084.067,1-.247c.328-.082,2.142-.629,5.678-3.411,2.828-2.225,4.034-3.831,3.9-5.241l.29-12.892-1.175-2.03c-.027-.35-.063-1.477.043-4.987l.842-18.432V9.023c0-2.558-7.975-8.948-10.444-8.948H291.244L288.374,1.1l-37-1.028H107.09c-.141,0-.73.008-1.636.021C102.021.14,84.5.371,76.84.549,74.931.58,73.6.6,73.193.6c-.81-.069-3.9-.193-18.234-.434C52.6.113,50.9.075,50.667.075H11.455c-.069,0-.137,0-.206.008L11.114,0l-.907.3L9.1.739c-.148.067-.3.14-.475.221L8.4,1.067c-.22.107-.447.222-.774.392-.242.128-.488.262-.837.455L2.771,4.42c-.217.154-.423.3-.613.446l-.148.117c-.146.111-.287.222-.407.323l-.2.172c-.1.088-.2.174-.3.272l-.192.2c-.106.114-.2.221-.257.3s-.124.169-.163.232a2.058,2.058,0,0,0-.22.4L0,7.516l.078.312Z" fill="#3b1111"/>
        <path id="Path_39381" data-name="Path 39381" d="M326.6,66.337l.841-18.432V9.023c0-2.558-7.975-8.948-10.444-8.948H291.244L288.374,1.1l-37-1.028H107.09c-.141,0-.73.008-1.636.021C102.021.141,84.505.371,76.84.549,74.931.58,73.6.6,73.193.6c-.81-.069-3.9-.193-18.234-.434C52.6.113,50.9.075,50.667.075H11.455c-.069,0-.137,0-.205.008L11.114,0l-.907.3L9.1.74c-.148.066-.305.139-.476.22L8.4,1.067c-.219.107-.446.222-.774.392-.242.128-.488.262-.837.455L2.771,4.42c-.217.154-.423.3-.613.446l-.147.117c-.146.111-.288.222-.408.323l-.2.172c-.1.088-.2.174-.3.272l-.192.2c-.106.114-.2.221-.256.3s-.124.17-.164.232a2.1,2.1,0,0,0-.22.4L0,7.516l.078.313v25.1l.061.5A10.935,10.935,0,0,0,.854,35.32c-.26,1.271-.638,3.386-.729,3.891L.078,41.653V85.7c0,2.031,5.892,9.387,8.672,9.387l210.455,0,1.842-.069c4.939-.108,27.651-.783,30.1-.886,3.367.8,20.9.936,22.933.957H316.6c.059,0,.119,0,.179-.006l.083.067,1-.247c.327-.081,2.142-.628,5.678-3.411,2.828-2.225,4.034-3.831,3.9-5.241l.29-12.892-1.174-2.03c-.027-.35-.063-1.477.043-4.987M305.763,9.215c2.07.025,4.954.06,6.016.063.031.01.031.01.023.006a6.921,6.921,0,0,1,.7.381c.356.232.708.5,1.03.736.373.279.715.53,1,.708.361.285.719.581,1.061.876l.71.684a5.006,5.006,0,0,1,.959,1.209c-.206,11.992-.015,9.3.008,33.61v.446c-.082,1.017-.209,3.535-.431,10.38l-.416,9.316a5.468,5.468,0,0,0,.18,4.65,4.1,4.1,0,0,1,.183.449,25.243,25.243,0,0,1,.531,3.074v2.46c-.021.137-.042.283-.064.438a8.176,8.176,0,0,1-.853,2.988c-.624,1.085-2.583,2.484-4.874,3.479-.125.054-1.378.534-6.937.773h-31.6c-2.57-.34-22.345-.845-22.467-.845l-.818.022c-7.907.207-28.125.58-29.836.731,6.251-.213,156.468.078,41.475.092H16.473a2.04,2.04,0,0,1-1.081-.3,16.7,16.7,0,0,1-3.674-2.932,7.422,7.422,0,0,1-.7-1.54c-.114-2.333.277-39.249.227-39.818-.063-.719,1.283-3.444,1.633-4.036l-.058-2.027a10.306,10.306,0,0,1-1.629-1.972c-.294-4.44-.436-15.6-.493-19.96,1.242-.65,3.091-1.739,5.522-3.256.572-.207,1.032-.359,1.3-.446,22.312-.184,26.29-.278,26.449-.281l0-.158h3.906l0,.046c.428-.032,2.2.033,3.588.109,1.449.08,15.026.216,20.773.272.994.021,1.64.033,1.767.033l.379,0c1.254-.011,30.338-.262,33.25-.456H94.267l0,.063,58.767-.038h0c13.53-.011,3.212-.019,25.4-.025h71.494l36.533.949.4-.137c.013,0,1.35-.456,2.575-.812ZM3.279,6.632Z" fill="#410c0f"/>
        <path id="Path_39382" data-name="Path 39382" d="M325.92,8.476c0-1.057-6.593-6.869-8.364-6.869H292.169l-2.953,1.058L251.85,1.607h-144.2c-1.158,0-32.786.528-33.988.528-.844,0-21.574-.528-22.435-.528H12.019c-1.525,0-9.3,4.755-9.3,5.636V32.385L3.607,34.5l-.886,4.931V85.148c0,1.057,5.215,7.307,6.593,7.307H219.691l32.242-.968,22.708.968h42.522c1.771,0,8.757-5.017,8.757-6.6V73.527l-1.082-2.553,1.082-23.617ZM319.956,47.07l-.982,22.019.982,2.227v10.4c0,1.383-6.341,5.759-7.948,5.759H273.4l-22.291-.844-31.214.844H15.126c-1.25,0-5.983-5.451-5.983-6.373V40.312l.8-4.3-.8-1.843V11.5c0-.767,7.055-4.915,8.438-4.915h34.9c.782,0,21.323.461,22.089.461,1.091,0,32.5-.461,33.552-.461h142.46l36.192.922,2.681-.922h22.914c1.607,0,7.591,5.069,7.591,5.99Z" transform="translate(-0.564 -0.333)" fill="#885e39"/>
        <path id="Path_39383" data-name="Path 39383" d="M11.435,1.76C9.183,2.479,3.2,6.181,2.757,7.17c.469,1.4,4.884,4.881,6.394,4.364,1.666-.571,8.438-4.916,8.438-4.916A27.306,27.306,0,0,0,11.435,1.76" transform="translate(-0.571 -0.365)" fill="#674734"/>
        <path id="Path_39384" data-name="Path 39384" d="M307.91,108.843l.825,4.856s-30.145,1-31.75.906a37.531,37.531,0,0,1,.115-4.917s29.717-.838,30.81-.844" transform="translate(-57.367 -22.545)" fill="#674734"/>
        <path id="Path_39385" data-name="Path 39385" d="M92.539,2.206a11.87,11.87,0,0,1,.633,4.84s31.475-.272,33.552-.46a12.139,12.139,0,0,0-.466-4.98s-32.572.41-33.718.6" transform="translate(-19.168 -0.333)" fill="#674734"/>
        <path id="Path_39386" data-name="Path 39386" d="M363.422,2.664a46.539,46.539,0,0,1-2.444,4.844s1.789-.606,3.165-.984a21.509,21.509,0,0,0,2.233-4.918s-1.992.727-2.953,1.058" transform="translate(-74.771 -0.333)" fill="#674734"/>
        <path id="Path_39387" data-name="Path 39387" d="M3.611,43.091s5.041,1.2,6.394,1.566c0,0-.721,3.263-.858,4.247A50.59,50.59,0,0,0,2.741,47.62s.669-3.762.87-4.529" transform="translate(-0.568 -8.926)" fill="#674734"/>
        <g id="Group_21443" data-name="Group 21443" transform="translate(318.58 50.882)" opacity="0.5">
          <g id="Group_21442" data-name="Group 21442">
            <g id="Group_21441" data-name="Group 21441" clip-path="url(#clip-path-3)">
              <path id="Path_39388" data-name="Path 39388" d="M402.436,64.175l5.914,1.26s-1.038,17.748-.579,18.882c0,0-3.5-1.262-5.964-2.27Z" transform="translate(-401.808 -64.175)" fill="#674734"/>
            </g>
          </g>
        </g>
        <g id="Group_21446" data-name="Group 21446" transform="translate(312.005 81.384)" opacity="0.5">
          <g id="Group_21445" data-name="Group 21445">
            <g id="Group_21444" data-name="Group 21444" clip-path="url(#clip-path-4)">
              <path id="Path_39389" data-name="Path 39389" d="M400.9,102.645s4.024,1.315,5.964,4.136c0,0,.258.8-3.107,3.451s-4.893,3.026-4.893,3.026a62.251,62.251,0,0,1-5.352-4.791s5.963-2.4,7.388-5.822" transform="translate(-393.515 -102.645)" fill="#674734"/>
            </g>
          </g>
        </g>
        <path id="Path_39390" data-name="Path 39390" d="M338.288,109.687a25.621,25.621,0,0,0,1.244,4.98s-19.918-.125-22.709-.969a35.02,35.02,0,0,1-.826-4.856s20.335.529,22.291.844" transform="translate(-65.454 -22.545)" fill="#86602c"/>
        <path id="Path_39391" data-name="Path 39391" d="M14.072,9.52S16.786,7.818,19,6.494a18.512,18.512,0,0,0-5.3-4.733A37.353,37.353,0,0,1,19.921,6.3s25.346.473,26.836.473c0,0-3.9.094-26.721.284A34.557,34.557,0,0,0,14.072,9.52" transform="translate(-2.838 -0.365)" fill="#ab7748"/>
        <path id="Path_39392" data-name="Path 39392" d="M86.457,2.144a7.252,7.252,0,0,1,.9,4.912S65.606,6.626,65.27,6.6a17,17,0,0,0-.794-4.947s21.139.33,21.981.5" transform="translate(-13.355 -0.341)" fill="#8b6335"/>
        <path id="Path_39393" data-name="Path 39393" d="M275.947,2s-.229,3.309-.344,4.161c0,0,32.946,1.243,35.231,1.426,0,0-34.859-.892-36.192-.923s-154.6-.03-155.749.065c0,0,154.369-.551,155.449-.662.917-.1,1.491-3.5,1.606-4.067" transform="translate(-24.627 -0.415)" fill="#ab7748"/>
        <path id="Path_39394" data-name="Path 39394" d="M2.721,40.426s4.947.464,6.324.748A13.752,13.752,0,0,0,10,44.1L3.607,42.539a11.852,11.852,0,0,1-.886-2.113" transform="translate(-0.564 -8.374)" fill="#8b6335"/>
        <path id="Path_39395" data-name="Path 39395" d="M10.743,13.813S9.908,33.951,10.727,36.7s.858,1.895.858,1.895-.841,3.4-.956,4.539.115,27.1,0,30.218-.458,10.13-.114,10.886c0,0,1.261,1.418,1.95,2.175a10.444,10.444,0,0,1-1.376-3.121c-.21-2.081.344-38.456.229-39.78a11.965,11.965,0,0,1,1.261-4.823,3.466,3.466,0,0,1-1.261-2.269c-.344-5.2-.557-20.552-.573-22.6" transform="translate(-2.147 -2.861)" fill="#ab7748"/>
        <path id="Path_39396" data-name="Path 39396" d="M3.176,9.519s3.67,2.837,5.5,2.931a15.211,15.211,0,0,0,3.211-1.323S9.484,12.64,9.14,13.49c0,0-2.065-.567-5.964-3.971" transform="translate(-0.658 -1.972)" fill="#ab7748"/>
        <path id="Path_39397" data-name="Path 39397" d="M400.747,12.978s1.835.946,2.065,1.986c0,0,.229,32.062-.459,34.331,0,0-.229-31.022,0-33.953a5.358,5.358,0,0,0-1.606-2.364" transform="translate(-83.008 -2.688)" fill="#ab7748"/>
        <path id="Path_39398" data-name="Path 39398" d="M401.745,84.251s-.039,1.544-.077,1.954a11.776,11.776,0,0,0,.813,2.229,30.393,30.393,0,0,1,.067,4.339,36.192,36.192,0,0,0-.688-4.077c-.344-1.135-1.376-1.986-.115-4.445" transform="translate(-83.088 -17.451)" fill="#ab7748"/>
        <path id="Path_39399" data-name="Path 39399" d="M396.574,2s-3.555,3.5-4.932,3.877a67.628,67.628,0,0,1-8.831.756s6.842.1,8.373.1c1.146,0,2.867,1.607,3.784,2.175,0,0-2.065-1.7-2.179-2.364S395.656,3.613,396.574,2" transform="translate(-79.293 -0.415)" fill="#ab7748"/>
        <path id="Path_39400" data-name="Path 39400" d="M64.476,109.687s167.237.473,168.5.473,29.717-1.311,30.925-1.317c0,0-28.4.561-30.581.75-1.6.138-168.843.094-168.843.094" transform="translate(-13.355 -22.545)" fill="#ab7748"/>
        <path id="Path_39401" data-name="Path 39401" d="M63.478,1.647a19.362,19.362,0,0,1,1.261,4.445s19.613.882,21.448.945c0,0-20.416-.189-22.136-.283-.917-.051-3.168-.154-3.84-.109A15.93,15.93,0,0,0,63.822,6c.535-.378-.42-3.971-.344-4.35" transform="translate(-12.472 -0.341)" fill="#ab7748"/>
        <path id="Path_39402" data-name="Path 39402" d="M398.183,97.385a31.649,31.649,0,0,1-.115,4.539,14.23,14.23,0,0,1-7.34,5.453l-10.667.032s8.833-.1,11.011-1.04,4.817-2.554,5.849-4.35a13.685,13.685,0,0,0,1.261-4.634" transform="translate(-78.723 -20.172)" fill="#ab7748"/>
        <path id="Path_39403" data-name="Path 39403" d="M403.355,18.494s5.55-6.238,5.55-6.02v20.6l-3.512,2.974-2.026-.871Z" transform="translate(-83.548 -2.583)" fill="#674734"/>
        <path id="Path_39404" data-name="Path 39404" d="M42.132,114.888c.224-.532,4.378-4.98,4.378-4.98l15.267,0,7.3.01L68.4,112.4l-.786,2.49Z" transform="translate(-8.727 -22.766)" fill="#674734"/>
      </g>
    </g>
  </g>
</svg>
