<svg id="Group_21425" data-name="Group 21425" xmlns="http://www.w3.org/2000/svg" xmlns:xlink="http://www.w3.org/1999/xlink" width="41.481" height="43.377" viewBox="0 0 41.481 43.377">
  <defs>
    <clipPath id="clip-path">
      <rect id="Rectangle_1415" data-name="Rectangle 1415" width="41.481" height="43.377" fill="none"/>
    </clipPath>
    <clipPath id="clip-path-2">
      <rect id="Rectangle_1414" data-name="Rectangle 1414" width="41.481" height="43.377" transform="translate(0 0)" fill="none"/>
    </clipPath>
    <clipPath id="clip-path-3">
      <rect id="Rectangle_1409" data-name="Rectangle 1409" width="41.481" height="42.593" transform="translate(0 0.784)" fill="none"/>
    </clipPath>
    <clipPath id="clip-path-4">
      <rect id="Rectangle_1411" data-name="Rectangle 1411" width="2.134" height="2.05" transform="translate(14.961 5.159)" fill="none"/>
    </clipPath>
    <clipPath id="clip-path-5">
      <path id="Path_39357" data-name="Path 39357" d="M15.4,6.009a1.959,1.959,0,0,1-.44-.85,7.087,7.087,0,0,1,2.134,2.05,7.374,7.374,0,0,0-1-.765,3.568,3.568,0,0,1-.7-.435" fill="none"/>
    </clipPath>
    <linearGradient id="linear-gradient" x1="-4.92" y1="13.069" x2="-4.582" y2="13.069" gradientUnits="objectBoundingBox">
      <stop offset="0" stop-color="#f5dd56"/>
      <stop offset="1"/>
    </linearGradient>
    <clipPath id="clip-path-6">
      <rect id="Rectangle_1413" data-name="Rectangle 1413" width="0.74" height="0.171" transform="translate(1.555 32.095)" fill="none"/>
    </clipPath>
    <clipPath id="clip-path-7">
      <path id="Path_39358" data-name="Path 39358" d="M1.555,32.19a3.533,3.533,0,0,0,.74-.1.3.3,0,0,1-.086.043.032.032,0,0,1-.021.01.726.726,0,0,1-.418.117.521.521,0,0,1-.215-.074" fill="none"/>
    </clipPath>
    <linearGradient id="linear-gradient-2" x1="-2.488" y1="17.51" x2="-0.936" y2="17.51" xlink:href="#linear-gradient"/>
  </defs>
  <g id="Group_21424" data-name="Group 21424" clip-path="url(#clip-path)">
    <g id="Group_21423" data-name="Group 21423">
      <g id="Group_21422" data-name="Group 21422" clip-path="url(#clip-path-2)">
        <g id="Group_21411" data-name="Group 21411" opacity="0.8" style="mix-blend-mode: multiply;isolation: isolate">
          <g id="Group_21410" data-name="Group 21410">
            <g id="Group_21409" data-name="Group 21409" clip-path="url(#clip-path-3)">
              <path id="Path_39348" data-name="Path 39348" d="M40.948,9.182c-.191-.242-.35-.508-.561-.732a3.52,3.52,0,0,0-.74-.6,1.133,1.133,0,0,0-.3-.139c-.443-.107-.85.25-1.163.578a2.631,2.631,0,0,0,.008-2.122,1.915,1.915,0,0,0-.3-.7c-.127-.158-.29-.281-.41-.443a11.821,11.821,0,0,0-.884-.992q-.519-.563-1.049-1.116a2.36,2.36,0,0,0-3.235-.233c-3.439,2.873-6.855,5.872-10.261,8.931q-1.685-1.855-3.387-3.7l-.875-.944a4.067,4.067,0,0,0-.664-.654,2.45,2.45,0,0,0-.652-.249,1.393,1.393,0,0,0-.533-.059c-.063.006-.486.075-.488.135a3.768,3.768,0,0,0-.522-1.986,3.861,3.861,0,0,0-.644-.815,1.688,1.688,0,0,1-.248-.319,3.6,3.6,0,0,0-.465-.506q-.49-.51-.985-1.017a2.358,2.358,0,0,0-3.241-.154q-.412.351-.82.707-1.857,1.626-3.6,3.368C4.352,6,3.822,6.618,3.238,7.17A9.719,9.719,0,0,0,1.846,9.338,4.849,4.849,0,0,0,.777,11.545a2.575,2.575,0,0,0,.671,1.886q1.74,1.885,3.484,3.767.906.979,1.812,1.955l.964,1.039a3.087,3.087,0,0,1,.345.4,1.677,1.677,0,0,0,.691.5,3.494,3.494,0,0,0,.928.309,2.27,2.27,0,0,0,.678.034,6.443,6.443,0,0,1,1.107-.19l-.774.8c-.258.264-.5.557-.784.8-.192.164-.426.247-.616.42l-.577.528q-1.911,1.75-3.83,3.49l-.956.863A18.627,18.627,0,0,0,.612,32,4,4,0,0,0,.136,33.09a2.706,2.706,0,0,0-.107,1.164c.029.14.069.285.106.426a1.607,1.607,0,0,0,.419.786,1.41,1.41,0,0,0,1,.325,4.19,4.19,0,0,0,1.053-.212l-.381.661a.693.693,0,0,0-.122.334.673.673,0,0,0,.114.322,7.578,7.578,0,0,0,1.361,1.722c.256.243.555.446.793.706a4.7,4.7,0,0,1,.384.553,11.1,11.1,0,0,0,1.307,1.411,2.339,2.339,0,0,0,3.252.153q4.462-3.948,8.951-7.868a5.046,5.046,0,0,0,.775-.735,1.151,1.151,0,0,1,.341-.278l1.064-.67a1.558,1.558,0,0,0-.1,1.442,5.216,5.216,0,0,0,1.23,1.76l1.752,1.888q1.7,1.834,3.4,3.671l1.8,1.944a2.344,2.344,0,0,0,3.247.238l5.768-4.822c.155-.13.269-.3.425-.427a1.3,1.3,0,0,0,.16-.137,11.257,11.257,0,0,0,2.13-3.482,2.571,2.571,0,0,0-.515-2.6q-1.268-1.4-2.528-2.8-1.729-1.924-3.45-3.857l-.431-.484a1.435,1.435,0,0,1-.315-.414,1.775,1.775,0,0,0-.555-.722,2.562,2.562,0,0,0-.859-.465,2.38,2.38,0,0,0-.48-.1c-.074-.008-.422-.06-.471,0a5.859,5.859,0,0,1,1.278-1.145c.235-.155.5-.26.735-.414a6.928,6.928,0,0,0,.7-.616l.963-.846,1.827-1.608a16.95,16.95,0,0,0,3.06-3.018c1-1.477,2.949-3.316,2.019-5.23a2.656,2.656,0,0,0-.288-.464" fill="#4d4d4d"/>
            </g>
          </g>
        </g>
        <path id="Path_39349" data-name="Path 39349" d="M25.964,23.406c-.343.361-.676.712-1.008,1.083.44-.265.879-.52,1.319-.775.579-.34,1.158-.69,1.748-1.03a3.813,3.813,0,0,1,1.148-.51,1.324,1.324,0,0,1,1.179.234,1.869,1.869,0,0,1,.333,1.784.709.709,0,0,1,.772-.287,2.227,2.227,0,0,1,.772.436c.322.244.687.488,1,.775a.98.98,0,0,1,.182.276,3.935,3.935,0,0,0,.386.457c.493.542,1,1.115,1.491,1.667.075.085.161.17.236.255.847.935,1.683,1.88,2.541,2.815a2.532,2.532,0,0,1-.214,3.632l-5.631,4.706-.139.116a2.344,2.344,0,0,1-3.25-.233c-.557-.616-1.126-1.232-1.694-1.838-1.126-1.221-2.252-2.443-3.389-3.653-.579-.638-1.158-1.264-1.748-1.891-.236-.255-.5-.478-.719-.754a8.972,8.972,0,0,1-.686-.977,2.049,2.049,0,0,1-.279-1.508c-.268.276-.547.541-.826.807a4.751,4.751,0,0,1-.407.393c-.043.021-.1.053-.14.074a4.128,4.128,0,0,0-.386.34c-.064.053-.128.138-.2.191a.453.453,0,0,1-.14.117c-.332.276-.654.563-.976.839a6.209,6.209,0,0,0-.815.775,3.83,3.83,0,0,1-.879.765c-.343.266-.676.552-1.008.818a.255.255,0,0,1-.161.074.282.282,0,0,1-.15-.053,3.116,3.116,0,0,1-.3-.212,6,6,0,0,1-1.094-1.1,13.116,13.116,0,0,0-1.437-1.636c.268.489.537.978.762,1.487.086.192.182.383.257.574.086.17.15.35.225.531a2.717,2.717,0,0,1,.215.882,2.035,2.035,0,0,1-.536,1.253c-.118.159-.268.319-.376.488a1.415,1.415,0,0,1-.182.181c-.257.223-.515.446-.761.669l-.108.1L9.62,37.649a2.32,2.32,0,0,1-1.073.531A2.287,2.287,0,0,1,6.37,37.5c-.246-.255-.493-.5-.729-.743a10.119,10.119,0,0,0-.815-.829c-.193-.159-.429-.244-.611-.4a5.841,5.841,0,0,1-.74-.892,11.33,11.33,0,0,1-.655-.988.537.537,0,0,1-.1-.244.638.638,0,0,1,.171-.362c.494-.573.987-1.136,1.513-1.688.246-.277.514-.563.783-.829-.247.149-.505.3-.773.436,0,.01-.01.01-.021.021-.375.223-.751.435-1.148.637-.311.17-.632.329-.954.478a.346.346,0,0,1-.086.043.034.034,0,0,1-.021.01.727.727,0,0,1-.419.117.526.526,0,0,1-.214-.074,1.937,1.937,0,0,1-.451-.383,4.354,4.354,0,0,0-.4-.35.84.84,0,0,1-.258-.383,2.552,2.552,0,0,1,.665-2.719c.065-.042.118-.106.172-.148.654-.584,1.287-1.169,1.93-1.753.633-.552,1.266-1.126,1.888-1.7q1.849-1.689,3.689-3.378c.043-.032.086-.085.129-.116.321-.287.643-.585.965-.871.129-.138.289-.255.418-.4.032-.064.075-.117.107-.17h.022a.252.252,0,0,1,.086-.1c.085-.063.182-.127.268-.18.01,0,.01-.011.01-.011h.011c.268-.159.547-.308.815-.467.343-.191.7-.4,1.041-.6.032-.022.053-.032.085-.054.837-.5,1.663-.987,2.5-1.476.665-.4,1.319-.8,1.984-1.179a1.243,1.243,0,0,0-.268.064A13.649,13.649,0,0,0,15,16.428a19.454,19.454,0,0,1-3.6,1.147,5.626,5.626,0,0,1-.729.085,2.379,2.379,0,0,1-1.437-.255,3.646,3.646,0,0,1-.644-.573,5.96,5.96,0,0,1-.579-.436c-2.1-2.252-4.182-4.5-6.263-6.755a2.569,2.569,0,0,1-.043-3.419c.021-.021.043-.054.064-.075A74.47,74.47,0,0,1,7.668.581a2.21,2.21,0,0,1,.8-.467,2.328,2.328,0,0,1,1.587.053A2.3,2.3,0,0,1,10.9.73c.322.329.633.648.954.978.612.636,1.62,1.656,1.416,2.622-.1.393-.2.8-.343,1.191-.075.19-.139.382-.215.573a12.515,12.515,0,0,1-.75,1.465c.257-.265.5-.552.75-.849.172-.2.344-.415.494-.627.053-.074.107-.138.161-.213a3.061,3.061,0,0,1,.514-.637.7.7,0,0,1,.183-.106.968.968,0,0,1,.9.033,7.084,7.084,0,0,1,2.134,2.049c.2.244.364.457.482.584.472.511.955,1.03,1.427,1.551.118.138.246.266.375.4.011.011.022.022.022.032.321.352.643.713.965,1.062,1.265-1.136,2.531-2.272,3.8-3.376,2.145-1.892,4.3-3.761,6.456-5.555a2.378,2.378,0,0,1,3.25.232c.493.521,2.6,2.5,2.241,3.2a3.982,3.982,0,0,1-.311.552A14.339,14.339,0,0,1,34.4,7.74c-.386.468-.793.956-1.2,1.444a3.521,3.521,0,0,0,1.083-.711c.247-.234.472-.478.7-.7a11.5,11.5,0,0,1,2.049-1.529.5.5,0,0,1,.246-.065.466.466,0,0,1,.215.128A10.9,10.9,0,0,1,38.8,7.74a5.221,5.221,0,0,1,.912,1.742,2.207,2.207,0,0,1-.719,2.389q-3.33,2.932-6.638,5.842c-.2.181-.4.351-.6.52-.386.34-.761.67-1.137,1.01a9.7,9.7,0,0,1-.8.69.316.316,0,0,1-.129.074,1.656,1.656,0,0,0-.611.4.144.144,0,0,0-.075.064c-1.008.913-1.984,1.858-2.938,2.835l-.1.1" fill="#fcf0d6"/>
        <path id="Path_39350" data-name="Path 39350" d="M12.7,6.713a.008.008,0,0,0,.008-.008.228.228,0,0,0-.008.073Z" fill="#ffdea4"/>
        <path id="Path_39351" data-name="Path 39351" d="M17.073,15.726a.9.9,0,0,1-.115.081c-2.14.5-4.1,1.722-6.288,1.859a2.44,2.44,0,0,1-1.443-.259,3.878,3.878,0,0,1-.639-.569,5.943,5.943,0,0,1-.582-.446Q4.87,13.018,1.751,9.645a2.574,2.574,0,0,1,.016-3.492A74.681,74.681,0,0,1,7.661.576,2.349,2.349,0,0,1,10.9.73c.32.325.631.649.951.974.193.2.388.4.571.615a2.948,2.948,0,0,1,.866,1.673,2.83,2.83,0,0,1-.218.878q-.078.3-.172.6a4.416,4.416,0,0,0-.2.566,8.612,8.612,0,0,0,.089-2.1,2.222,2.222,0,0,0-.153-.728,2.3,2.3,0,0,0-.653-.772A11.12,11.12,0,0,0,10.2,1.2,1.515,1.515,0,0,0,9.426.942a1.566,1.566,0,0,0-.827.374c-.494.36-.96.749-1.429,1.141a2.284,2.284,0,0,1-.521.3c-.494.235-.783.757-1.283.981A7.787,7.787,0,0,0,3.325,5.309,4.192,4.192,0,0,0,1.89,7.453a2.844,2.844,0,0,0,.689,2.005c.27.43.557.844.86,1.25a26.656,26.656,0,0,0,1.927,2.355,25.875,25.875,0,0,0,2.246,2.184c.4.357.8.731,1.222,1.072a1.629,1.629,0,0,0,.82.284,5.883,5.883,0,0,0,1.549.114,11.371,11.371,0,0,0,1.64-.277c.09-.016.172-.04.262-.056,1.312-.284,2.632-.5,3.968-.658" fill="#ffdea4"/>
        <path id="Path_39352" data-name="Path 39352" d="M1.308,30.722c.3.471.6.942.9,1.413-.008.008-.017.016-.025.016a.773.773,0,0,1-.418.114,1.273,1.273,0,0,1-.656-.455,4.177,4.177,0,0,0-.4-.349.853.853,0,0,1-.263-.39,2.56,2.56,0,0,1,.672-2.712c.058-.048.115-.1.173-.154,1.279-1.145,2.541-2.29,3.812-3.442,1.279-1.17,2.55-2.331,3.82-3.5q.48-.438.959-.877a3.806,3.806,0,0,0,.418-.406c.041-.057.082-.1.115-.162.009,0,.009-.008.017-.008.114-.09.229-.179.352-.268.008,0,.008-.008.017-.008a4.549,4.549,0,0,1-.64.674c-.279.276-.557.56-.836.836-.549.56-1.107,1.12-1.664,1.681q-.468.474-.935.95Q4.12,26.3,1.521,28.936a1.5,1.5,0,0,0-.541.893,1.552,1.552,0,0,0,.328.893" fill="#ffdea4"/>
        <path id="Path_39353" data-name="Path 39353" d="M12.851,33.84a2.093,2.093,0,0,1-.533,1.258c-.131.163-.27.317-.385.488a1.267,1.267,0,0,1-.181.186c-.254.22-.508.439-.754.666L9.621,37.656A2.347,2.347,0,0,1,6.366,37.5c-.238-.252-.484-.495-.721-.747-.271-.276-.525-.577-.82-.828-.189-.155-.426-.236-.607-.4a6.07,6.07,0,0,1-.746-.893c-.229-.325-.451-.65-.647-.991a.448.448,0,0,1-.1-.243.55.55,0,0,1,.172-.358c.492-.576.984-1.136,1.509-1.688A2.863,2.863,0,0,0,3.866,33.9a4.515,4.515,0,0,0,.729,1.039,9.946,9.946,0,0,0,1.718,1.932c.121.09.227.193.34.291a2.594,2.594,0,0,0,1.045.439.96.96,0,0,0,.54.03c.29-.1.425-.419.519-.708q.271-.834.475-1.688a1.135,1.135,0,0,0,.385.9.973.973,0,0,0,1-.133,2.862,2.862,0,0,0,.722-.657,8.948,8.948,0,0,1,.66-.645,1.1,1.1,0,0,0,.4-1.015,9.778,9.778,0,0,0-.246-1.827c.172.357.328.723.476,1.1a2.575,2.575,0,0,1,.221.877" fill="#ffdea4"/>
        <path id="Path_39354" data-name="Path 39354" d="M37.847,34.221l-5.772,4.823a2.347,2.347,0,0,1-3.246-.236c-.566-.617-1.131-1.226-1.7-1.835q-1.684-1.839-3.386-3.661c-.582-.634-1.164-1.259-1.754-1.884a10.3,10.3,0,0,1-.714-.755,10.13,10.13,0,0,1-.688-.982,2.044,2.044,0,0,1-.279-1.5c-.271.268-.549.536-.828.8-.131.122-.254.276-.4.39-.049.032-.1.049-.139.081-.139.089-.262.228-.394.333a1.518,1.518,0,0,1-.344.309c-.328.284-.648.56-.967.844a4.873,4.873,0,0,0-.812.771,4.241,4.241,0,0,1-.885.772c-.337.268-.673.544-1.009.812a.322.322,0,0,1-.156.081.283.283,0,0,1-.155-.057c-.107-.065-.2-.138-.3-.211a1.382,1.382,0,0,1,.254-.284c.3-.244.607-.463.911-.7,1.262-.982,2.5-2,3.7-3.061.336-.292.664-.592.992-.893.164-.146.328-.3.492-.446.09-.081.172-.163.254-.236.049-.048.221-.162.238-.227a4.407,4.407,0,0,0,1.2,3.3,53.309,53.309,0,0,0,6.689,7.47,2.513,2.513,0,0,0,1.468.828,2.463,2.463,0,0,0,1.172-.316A22.692,22.692,0,0,0,36.412,35.2c.976-.836,1.943-1.94,1.812-3.215a4.273,4.273,0,0,0-1.361-2.338,2.228,2.228,0,0,0-.451-.382,2.058,2.058,0,0,0-1.672.114,2.456,2.456,0,0,0,.164-1.908,1.035,1.035,0,0,0,.385.041c.074.089.156.17.23.259.844.934,1.689,1.876,2.541,2.81a2.537,2.537,0,0,1-.213,3.637" fill="#ffdea4"/>
        <path id="Path_39355" data-name="Path 39355" d="M38.995,11.869q-3.321,2.935-6.641,5.846c-.582.511-1.164,1.015-1.738,1.526a8.978,8.978,0,0,1-.8.7A.347.347,0,0,1,29.69,20a1.853,1.853,0,0,0-.623.406.566.566,0,0,0-.066.057c-1.041.95-2.057,1.933-3.033,2.939-.025.017-.041.033-.066.049.976-1.015,1.984-2,2.993-2.988.311-.3.623-.6.926-.9a30.494,30.494,0,0,1,3.443-3.037c.533-.389,1.1-.738,1.607-1.152A11.17,11.17,0,0,0,36.4,13.866a23.686,23.686,0,0,0,2.681-3.694.955.955,0,0,0,.164-.463A.926.926,0,0,0,39,9.173c-.2-.267-.41-.535-.606-.8a2.44,2.44,0,0,0-1.345-1.088,1.787,1.787,0,0,0-1.444.472c-.069.065-.109.149-.172.219a2.984,2.984,0,0,1-.713.488,8.293,8.293,0,0,1-1.622.73,8.133,8.133,0,0,0,1.812-1.263c.255-.235.474-.535.743-.745.312-.243.632-.475.967-.686.135-.085.272-.169.413-.246a.3.3,0,0,1,.45.056c1.427,1.308,3.493,3.8,1.509,5.562" fill="#ffdea4"/>
        <path id="Path_39356" data-name="Path 39356" d="M36.109,5.341c-.09.187-.2.373-.3.552a6.706,6.706,0,0,0-3.8-4.133,12.236,12.236,0,0,0-4.616,3.427,3.467,3.467,0,0,0-.877,1.218c-.369,1.047.3,2.159.4,3.263-.484-.673-1-1.331-1.541-1.964a.45.45,0,0,0-.287-.2.439.439,0,0,0-.287.121,26.784,26.784,0,0,0-4.526,4.052c-.41-.617-.852-1.21-1.311-1.794A28.147,28.147,0,0,0,16.3,6.973c-.475-.463-.975-.9-1.484-1.323a1.822,1.822,0,0,0-.41-.277.862.862,0,0,1-.287-.17.3.3,0,0,1-.057-.081c1.2-.617,2.894,2,3.517,2.671.926,1.007,1.861,2.03,2.779,3.045,3.411-3.061,6.821-6.057,10.264-8.931a2.364,2.364,0,0,1,3.239.235c.5.528,2.6,2.493,2.246,3.2" fill="#ffdea4"/>
        <g id="Group_21416" data-name="Group 21416" style="mix-blend-mode: screen;isolation: isolate">
          <g id="Group_21415" data-name="Group 21415">
            <g id="Group_21414" data-name="Group 21414" clip-path="url(#clip-path-4)">
              <g id="Group_21413" data-name="Group 21413">
                <g id="Group_21412" data-name="Group 21412" clip-path="url(#clip-path-5)">
                  <rect id="Rectangle_1410" data-name="Rectangle 1410" width="2.957" height="2.959" transform="translate(13.937 6.22) rotate(-45.997)" fill="url(#linear-gradient)"/>
                </g>
              </g>
            </g>
          </g>
        </g>
        <g id="Group_21421" data-name="Group 21421" style="mix-blend-mode: screen;isolation: isolate">
          <g id="Group_21420" data-name="Group 21420">
            <g id="Group_21419" data-name="Group 21419" clip-path="url(#clip-path-6)">
              <g id="Group_21418" data-name="Group 21418">
                <g id="Group_21417" data-name="Group 21417" clip-path="url(#clip-path-7)">
                  <rect id="Rectangle_1412" data-name="Rectangle 1412" width="0.644" height="0.658" transform="matrix(0.695, -0.719, 0.719, 0.695, 1.465, 32.188)" fill="url(#linear-gradient-2)"/>
                </g>
              </g>
            </g>
          </g>
        </g>
      </g>
    </g>
  </g>
</svg>
