<svg id="Group_22328" data-name="Group 22328" xmlns="http://www.w3.org/2000/svg" xmlns:xlink="http://www.w3.org/1999/xlink" width="242.706" height="70.461" viewBox="0 0 242.706 70.461">
  <defs>
    <clipPath id="clip-path">
      <rect id="Rectangle_1426" data-name="Rectangle 1426" width="242.706" height="70.461" fill="none"/>
    </clipPath>
    <clipPath id="clip-path-3">
      <rect id="Rectangle_1423" data-name="Rectangle 1423" width="4.845" height="14.917" fill="none"/>
    </clipPath>
    <clipPath id="clip-path-4">
      <rect id="Rectangle_1424" data-name="Rectangle 1424" width="9.892" height="7.86" fill="none"/>
    </clipPath>
  </defs>
  <g id="Group_21449" data-name="Group 21449" clip-path="url(#clip-path)">
    <g id="Group_21448" data-name="Group 21448">
      <g id="Group_21447" data-name="Group 21447" clip-path="url(#clip-path)">
        <path id="Path_39380" data-name="Path 39380" d="M.058,24.39l.045.37a8.026,8.026,0,0,0,.53,1.4C.44,27.1.159,28.665.092,29.039L.058,30.847V63.464c0,1.5,4.363,6.952,6.423,6.952H162.338l1.363-.051c3.658-.08,20.478-.58,22.29-.656,2.493.59,15.474.694,16.983.709h31.49c.043,0,.088,0,.132,0l.062.049.738-.183a12.9,12.9,0,0,0,4.205-2.526c2.094-1.648,2.988-2.837,2.888-3.881l.215-9.548-.87-1.5c-.02-.26-.047-1.094.032-3.693l.624-13.65V6.682c0-1.894-5.906-6.627-7.734-6.627H215.688l-2.125.761L186.16.055H79.308c-.1,0-.541.006-1.212.016C75.554.1,62.582.275,56.906.407c-1.414.022-2.4.036-2.7.039C53.605.4,51.316.3,40.7.125,38.953.084,37.7.055,37.522.055H8.484c-.051,0-.1,0-.153.006L8.23,0,7.559.224,6.738.547c-.11.049-.225.1-.352.164L6.221.79c-.163.079-.331.164-.573.291-.179.095-.362.194-.62.337L2.052,3.274c-.161.114-.314.224-.454.331l-.11.086c-.108.082-.213.164-.3.239l-.146.127c-.075.065-.148.129-.224.2L.675,4.4c-.079.085-.147.164-.19.221S.393,4.75.364,4.8a1.524,1.524,0,0,0-.163.3L0,5.566.058,5.8Z" fill="#75391c"/>
        <path id="Path_39381" data-name="Path 39381" d="M241.868,49.127l.623-13.65V6.682c0-1.894-5.906-6.627-7.734-6.627H215.688l-2.126.761L186.16.055H79.308c-.1,0-.541.006-1.212.016C75.554.1,62.583.275,56.906.407c-1.414.022-2.4.036-2.7.039C53.605.4,51.316.3,40.7.125,38.953.084,37.7.055,37.523.055H8.484c-.051,0-.1,0-.152.006L8.23,0,7.559.225l-.82.323c-.11.049-.226.1-.352.163L6.221.79c-.162.079-.331.164-.573.291-.179.095-.362.194-.62.337L2.052,3.274c-.161.114-.313.224-.454.331l-.109.086c-.108.082-.213.164-.3.239l-.146.127c-.075.065-.147.129-.224.2L.675,4.4c-.079.085-.147.164-.19.221S.393,4.751.364,4.8a1.556,1.556,0,0,0-.163.3L0,5.566.058,5.8V24.39l.045.37a8.1,8.1,0,0,0,.53,1.4C.44,27.1.16,28.665.093,29.039L.058,30.847V63.464c0,1.5,4.363,6.952,6.423,6.952H162.338l1.364-.051c3.658-.08,20.478-.58,22.29-.656,2.493.59,15.475.693,16.983.709h31.49c.044,0,.088,0,.133,0l.062.049.739-.183a12.869,12.869,0,0,0,4.2-2.526c2.094-1.648,2.988-2.837,2.888-3.881l.215-9.548-.87-1.5c-.02-.26-.047-1.094.032-3.693m-15.428-42.3c1.533.019,3.669.045,4.455.047.023.008.023.007.017,0a5.125,5.125,0,0,1,.517.282c.264.171.524.367.763.545.276.207.53.392.738.524.267.211.533.43.786.649l.526.507a3.707,3.707,0,0,1,.71.9c-.153,8.881-.011,6.886.006,24.891V35.5c-.061.753-.155,2.618-.319,7.687l-.308,6.9a4.05,4.05,0,0,0,.133,3.444,3.038,3.038,0,0,1,.136.332,18.7,18.7,0,0,1,.393,2.276v1.822c-.016.1-.031.21-.048.324a6.055,6.055,0,0,1-.632,2.213,8.427,8.427,0,0,1-3.609,2.577c-.092.04-1.021.4-5.137.573h-23.4c-1.9-.252-16.548-.626-16.638-.626l-.606.016c-5.856.153-20.829.43-22.1.541,4.629-.158,115.876.058,30.715.068H12.2a1.511,1.511,0,0,1-.8-.225,12.368,12.368,0,0,1-2.721-2.171,5.5,5.5,0,0,1-.52-1.14c-.085-1.728.2-29.067.168-29.488a10.949,10.949,0,0,1,1.209-2.989l-.043-1.5a7.632,7.632,0,0,1-1.206-1.46C8.068,21.384,7.963,13.119,7.92,9.89c.92-.481,2.289-1.288,4.09-2.411.423-.153.765-.266.965-.33,16.524-.136,19.47-.206,19.588-.208V6.825h2.892l0,.034c.317-.023,1.63.025,2.657.081,1.073.059,11.128.16,15.384.2.736.015,1.215.024,1.308.024l.281,0c.929-.008,22.468-.194,24.624-.338h-9.9l0,.047,43.522-.028h0c10.02-.008,2.379-.014,18.813-.019H185.1l27.055.7.3-.1c.009,0,1-.338,1.907-.6ZM2.428,4.911Z" fill="#410c0f"/>
        <path id="Path_39382" data-name="Path 39382" d="M242.074,6.694c0-.783-4.882-5.087-6.194-5.087h-18.8l-2.187.783L187.22,1.607H80.431c-.857,0-24.28.391-25.171.391-.625,0-15.977-.391-16.615-.391H9.607c-1.129,0-6.886,3.521-6.886,4.174V24.4l.656,1.565-.656,3.652V63.475c0,.783,3.862,5.411,4.882,5.411H163.4l23.878-.717,16.817.717h31.491c1.312,0,6.485-3.716,6.485-4.889V54.869l-.8-1.891.8-17.49Zm-4.417,28.582-.728,16.307.728,1.649v7.7c0,1.024-4.7,4.265-5.886,4.265H203.177l-16.508-.625-23.117.625H11.908c-.925,0-4.431-4.037-4.431-4.72V30.271l.6-3.185-.6-1.365V8.935c0-.568,5.225-3.64,6.249-3.64H39.57c.579,0,15.792.341,16.359.341.808,0,24.07-.341,24.848-.341h105.5l26.8.683,1.985-.683h16.969c1.19,0,5.622,3.754,5.622,4.436Z" transform="translate(-1.123 -0.663)" fill="#885e39"/>
        <path id="Path_39383" data-name="Path 39383" d="M9.184,1.76c-1.668.533-6.095,3.274-6.427,4.006C3.1,6.807,6.374,9.381,7.493,9a67.046,67.046,0,0,0,6.249-3.64,20.222,20.222,0,0,0-4.558-3.6" transform="translate(-1.138 -0.727)" fill="#674734"/>
        <path id="Path_39384" data-name="Path 39384" d="M299.88,108.843l.611,3.6s-22.324.742-23.513.671a27.791,27.791,0,0,1,.085-3.642s22.007-.621,22.817-.625" transform="translate(-114.334 -44.933)" fill="#674734"/>
        <path id="Path_39385" data-name="Path 39385" d="M92.539,2.051a8.791,8.791,0,0,1,.469,3.585s23.31-.2,24.848-.341a8.99,8.99,0,0,0-.345-3.688s-24.122.3-24.971.444" transform="translate(-38.202 -0.663)" fill="#674734"/>
        <path id="Path_39386" data-name="Path 39386" d="M362.788,2.389a34.464,34.464,0,0,1-1.81,3.588s1.325-.449,2.344-.729a15.929,15.929,0,0,0,1.654-3.642s-1.475.538-2.187.783" transform="translate(-149.02 -0.663)" fill="#674734"/>
        <path id="Path_39387" data-name="Path 39387" d="M3.385,43.091s3.733.888,4.736,1.16c0,0-.534,2.416-.635,3.146a37.466,37.466,0,0,0-4.744-.951s.5-2.786.644-3.354" transform="translate(-1.132 -17.789)" fill="#674734"/>
        <g id="Group_21443" data-name="Group 21443" transform="translate(235.932 37.682)" opacity="0.5">
          <g id="Group_21442" data-name="Group 21442">
            <g id="Group_21441" data-name="Group 21441" clip-path="url(#clip-path-3)">
              <path id="Path_39388" data-name="Path 39388" d="M402.273,64.175l4.38.933s-.769,13.143-.429,13.984c0,0-2.593-.935-4.417-1.681Z" transform="translate(-401.808 -64.175)" fill="#674734"/>
            </g>
          </g>
        </g>
        <g id="Group_21446" data-name="Group 21446" transform="translate(231.063 60.271)" opacity="0.5">
          <g id="Group_21445" data-name="Group 21445">
            <g id="Group_21444" data-name="Group 21444" clip-path="url(#clip-path-4)">
              <path id="Path_39389" data-name="Path 39389" d="M398.986,102.645a9.763,9.763,0,0,1,4.417,3.063s.191.6-2.3,2.556a11.852,11.852,0,0,1-3.623,2.241,46.1,46.1,0,0,1-3.963-3.548s4.416-1.774,5.471-4.312" transform="translate(-393.515 -102.645)" fill="#674734"/>
            </g>
          </g>
        </g>
        <path id="Path_39390" data-name="Path 39390" d="M332.5,109.468a18.973,18.973,0,0,0,.921,3.688s-14.751-.093-16.817-.718a25.937,25.937,0,0,1-.612-3.6s15.06.392,16.508.625" transform="translate(-130.451 -44.933)" fill="#86602c"/>
        <path id="Path_39391" data-name="Path 39391" d="M13.976,7.507s2.01-1.261,3.652-2.241a13.71,13.71,0,0,0-3.926-3.5,27.662,27.662,0,0,1,4.606,3.365s18.77.35,19.874.35c0,0-2.888.07-19.789.21a25.592,25.592,0,0,0-4.417,1.821" transform="translate(-5.657 -0.727)" fill="#ab7748"/>
        <path id="Path_39392" data-name="Path 39392" d="M80.755,2.015a5.371,5.371,0,0,1,.668,3.638s-16.11-.318-16.359-.341a12.587,12.587,0,0,0-.588-3.664s15.655.244,16.279.367" transform="translate(-26.617 -0.68)" fill="#8b6335"/>
        <path id="Path_39393" data-name="Path 39393" d="M235.2,2s-.17,2.451-.255,3.082c0,0,24.4.921,26.091,1.056,0,0-25.816-.661-26.8-.683s-114.495-.022-115.344.048c0,0,114.322-.408,115.121-.49.679-.07,1.1-2.591,1.189-3.012" transform="translate(-49.082 -0.828)" fill="#ab7748"/>
        <path id="Path_39394" data-name="Path 39394" d="M2.721,40.426s3.664.344,4.683.554a10.185,10.185,0,0,0,.708,2.171l-4.736-1.16a8.777,8.777,0,0,1-.656-1.565" transform="translate(-1.123 -16.689)" fill="#8b6335"/>
        <path id="Path_39395" data-name="Path 39395" d="M10.645,13.813s-.619,14.914-.012,16.948.635,1.4.635,1.4-.623,2.521-.708,3.362.085,20.067,0,22.378-.339,7.5-.085,8.062c0,0,.934,1.05,1.444,1.611A7.735,7.735,0,0,1,10.9,65.266c-.156-1.541.255-28.479.17-29.46A8.861,8.861,0,0,1,12,32.234a2.567,2.567,0,0,1-.934-1.681c-.255-3.852-.412-15.22-.425-16.74" transform="translate(-4.279 -5.702)" fill="#ab7748"/>
        <path id="Path_39396" data-name="Path 39396" d="M3.176,9.519s2.718,2.1,4.077,2.171a11.265,11.265,0,0,0,2.378-.98s-1.783,1.12-2.038,1.75c0,0-1.529-.42-4.417-2.941" transform="translate(-1.311 -3.93)" fill="#ab7748"/>
        <path id="Path_39397" data-name="Path 39397" d="M400.747,12.978s1.359.7,1.529,1.471c0,0,.17,23.744-.34,25.425,0,0-.17-22.974,0-25.145a3.968,3.968,0,0,0-1.189-1.751" transform="translate(-165.438 -5.358)" fill="#ab7748"/>
        <path id="Path_39398" data-name="Path 39398" d="M401.587,84.251s-.029,1.144-.057,1.447a8.72,8.72,0,0,0,.6,1.651,22.5,22.5,0,0,1,.049,3.213,26.8,26.8,0,0,0-.51-3.019c-.255-.841-1.019-1.471-.085-3.292" transform="translate(-165.598 -34.781)" fill="#ab7748"/>
        <path id="Path_39399" data-name="Path 39399" d="M393,2S390.37,4.6,389.351,4.876a50.083,50.083,0,0,1-6.54.56s5.067.07,6.2.07c.849,0,2.123,1.19,2.8,1.611,0,0-1.529-1.261-1.614-1.751S392.324,3.2,393,2" transform="translate(-158.033 -0.828)" fill="#ab7748"/>
        <path id="Path_39400" data-name="Path 39400" d="M64.476,109.468s123.852.35,124.786.35,22.007-.971,22.9-.975c0,0-21.034.415-22.647.555-1.183.1-125.041.07-125.041.07" transform="translate(-26.617 -44.933)" fill="#ab7748"/>
        <path id="Path_39401" data-name="Path 39401" d="M62.63,1.647a14.339,14.339,0,0,1,.934,3.292s14.525.654,15.884.7c0,0-15.119-.14-16.393-.21-.679-.038-2.346-.114-2.844-.08a11.8,11.8,0,0,0,2.674-.48c.4-.28-.311-2.941-.255-3.221" transform="translate(-24.856 -0.68)" fill="#ab7748"/>
        <path id="Path_39402" data-name="Path 39402" d="M393.482,97.385a23.445,23.445,0,0,1-.085,3.362,10.539,10.539,0,0,1-5.436,4.039l-7.9.023s6.541-.07,8.155-.77,3.567-1.891,4.332-3.222a10.134,10.134,0,0,0,.934-3.431" transform="translate(-156.898 -40.203)" fill="#ab7748"/>
        <path id="Path_39403" data-name="Path 39403" d="M403.355,16.931s4.11-4.62,4.11-4.458V27.728l-2.6,2.2-1.5-.645Z" transform="translate(-166.514 -5.147)" fill="#674734"/>
        <path id="Path_39404" data-name="Path 39404" d="M42.132,113.6c.166-.394,3.242-3.688,3.242-3.688l11.306,0,5.4.008-.5,1.834L61,113.6Z" transform="translate(-17.393 -45.373)" fill="#674734"/>
      </g>
    </g>
  </g>
</svg>
