<svg id="Group_21071" data-name="Group 21071" xmlns="http://www.w3.org/2000/svg" xmlns:xlink="http://www.w3.org/1999/xlink" width="19.303" height="17.601" viewBox="0 0 19.303 17.601">
  <defs>
    <clipPath id="clip-path">
      <rect id="Rectangle_1290" data-name="Rectangle 1290" width="19.303" height="17.601" fill="none"/>
    </clipPath>
  </defs>
  <g id="Group_21071-2" data-name="Group 21071" clip-path="url(#clip-path)">
    <path id="Path_39094" data-name="Path 39094" d="M19.015,11.823,16.528,9.654a.839.839,0,0,0-.823-.161l-1.332.456-2.234-3.87.4-.233a.839.839,0,0,0,.419-.726V2.265a.839.839,0,0,0-.419-.726L10.07.111a.839.839,0,0,0-.839,0L6.76,1.538a.839.839,0,0,0-.42.726V5.119a.839.839,0,0,0,.42.726l.4.233L4.928,9.948,3.6,9.492a.839.839,0,0,0-.823.161L.287,11.823a.839.839,0,0,0-.272.794L.65,15.854a.839.839,0,0,0,.551.632l3.121,1.069a.839.839,0,0,0,.823-.161l2.486-2.169a.839.839,0,0,0,.272-.794l-.106-.54H11.5l-.106.54a.839.839,0,0,0,.272.794l2.486,2.169a.839.839,0,0,0,.823.161L18.1,16.486a.839.839,0,0,0,.552-.632l.635-3.238a.839.839,0,0,0-.272-.794M7.654,13.156l-.385-1.963a.839.839,0,0,0-.551-.632l-1.081-.37L7.8,6.445l1.433.827a.838.838,0,0,0,.839,0L11.5,6.445l2.162,3.745-1.081.37a.839.839,0,0,0-.551.632l-.385,1.963Z" transform="translate(0.001 0.001)" fill="#faf0da"/>
  </g>
</svg>
