<svg xmlns="http://www.w3.org/2000/svg" xmlns:xlink="http://www.w3.org/1999/xlink" width="130.365" height="148.033" viewBox="0 0 130.365 148.033">
  <defs>
    <clipPath id="clip-path">
      <rect id="Rectangle_6440" data-name="Rectangle 6440" width="130.364" height="148.033" fill="none"/>
    </clipPath>
  </defs>
  <g id="Group_46820" data-name="Group 46820" transform="translate(0 0)">
    <g id="Group_31736" data-name="Group 31736" transform="translate(0 0)" clip-path="url(#clip-path)">
      <path id="Path_113254" data-name="Path 113254" d="M103.8,35.435,60.769,10.588a6.087,6.087,0,0,0-6.084,0L11.648,35.435A6.085,6.085,0,0,0,8.606,40.7V90.4a6.09,6.09,0,0,0,3.042,5.271l43.036,24.845a6.078,6.078,0,0,0,6.084,0L103.8,95.666a6.086,6.086,0,0,0,3.042-5.271V40.7a6.081,6.081,0,0,0-3.042-5.269M86.748,49.72,56.538,91.625a6.081,6.081,0,0,1-9.154.832L26.859,72.713a6.081,6.081,0,0,1,8.432-8.764L50.757,78.827,76.265,43.15a6.456,6.456,0,0,1,2.9-2.367,6.141,6.141,0,0,1,6.413,1.293,5.391,5.391,0,0,1,1.168,7.643" transform="translate(7.456 8.468)" fill="#fcbf10"/>
      <path id="Path_113255" data-name="Path 113255" d="M126.326,34.053,69.219,1.082a8.075,8.075,0,0,0-8.076,0L4.037,34.053A8.073,8.073,0,0,0,0,41.046v65.942a8.073,8.073,0,0,0,4.037,6.993l57.107,32.971a8.084,8.084,0,0,0,8.076,0l57.107-32.971a8.073,8.073,0,0,0,4.037-6.993V41.046a8.073,8.073,0,0,0-4.037-6.993m-1.57,69.077a9.17,9.17,0,0,1-4.574,7.923L69.755,140.168a9.178,9.178,0,0,1-9.147,0L10.181,111.053a9.17,9.17,0,0,1-4.574-7.923V44.9a9.17,9.17,0,0,1,4.574-7.923L60.608,7.866a9.169,9.169,0,0,1,9.147,0l50.427,29.115a9.17,9.17,0,0,1,4.574,7.923Z" transform="translate(0 0.001)" fill="#ff7f30"/>
    </g>
  </g>
</svg>
