<svg xmlns="http://www.w3.org/2000/svg" width="600.58" height="90.184" viewBox="0 0 600.58 90.184">
  <g id="Group_21983" data-name="Group 21983" transform="translate(86.77 1.824)">
    <g id="Group_22278" data-name="Group 22278" transform="translate(-86.77 -1.824)">
      <g id="Group_21814" data-name="Group 21814" transform="translate(0 0)">
        <path id="Path_39406" data-name="Path 39406" d="M598.65,157.635a6.567,6.567,0,0,1,.041-1.6l.091-2.751-9.093-1.25,7.731-.232,2.134-13.55h-3.792l4.043-7.173-1.157-25.705-1.391-1.4,1.4-.652.1-10.676L597.145,92l-.75-3.132-.266-3.412,3.215-.69V82.255l-9.086-.471,9.086-.548v-2.7c0-.821-7.632-2.871-9.994-2.871H564.708l-2.746.33-11.8-.33-257.309-.115L253.9,77.129,225.23,75.552l-27.2,2.07-21.316-2.07H102.21l-1.566.007c-3.285.014-20.048.088-27.383.145l-3.489.017c-.776-.022-3.733-.062-17.45-.139-2.26-.018-3.884-.031-4.108-.031H10.688c-.065,0-1.158.071-1.194.073a26.67,26.67,0,0,0-3.272.517l-3.845.8a8.009,8.009,0,0,0-2.392.788l-.185.305v1.169l6.764.308-6.764.33,2.543,3.84L-.2,84.442c.21,2.016-.441-7.169,0,14.981h7.73l-8.3,1.7.725,26.435,7.11,3.664-6.044,2.826L3.489,145.7l10.069.811L-.048,148.769v7.537h8.3l-8.3,2.341v3.484c-.074,1.377,5.638,3.012,8.3,3.012l152.07-1.675,23.826,2.268,61.253-2.073,34.964,1.479,104.334.594,40.712-2.59,4.6,1.647,41.663.349s117.568.115,117.626.114l1.034-.058a34.335,34.335,0,0,0,5.434-1.094c2.707-.714,3.861-1.229,3.733-1.681l.277-4.136Z" transform="translate(0.773 -75.552)" fill="#75391c"/>
      </g>
    </g>
  </g>
</svg>
