<svg xmlns="http://www.w3.org/2000/svg" xmlns:xlink="http://www.w3.org/1999/xlink" width="1619.635" height="884.632" viewBox="0 0 1619.635 884.632">
  <defs>
    <filter id="Path_39406" x="0" y="0" width="1619.635" height="884.632" filterUnits="userSpaceOnUse">
      <feOffset dy="5" input="SourceAlpha"/>
      <feGaussianBlur stdDeviation="10" result="blur"/>
      <feFlood flood-opacity="0.302"/>
      <feComposite operator="in" in2="blur"/>
      <feComposite in="SourceGraphic"/>
    </filter>
  </defs>
  <g id="Group_21457" data-name="Group 21457" transform="translate(30 25)">
    <g transform="matrix(1, 0, 0, 1, -30, -25)" filter="url(#Path_39406)">
      <path id="Path_39406-2" data-name="Path 39406" d="M1557.057,782.72a76.345,76.345,0,0,1,.092-8.163l.2-14.036-20.265-6.375,17.23-1.183,4.757-69.123-20.049-4.618,19.128-4.836,1.324-186.755H1536.21l23.113-13.882.312-49.217h-21.121l15.343-8.6,5.737-11.822-.989-147.547-10.623-9.1,10.647-3.325.043-21.934-3.1-7.158,3.121-3.324.217-54.462-3.592-3.274,3.61-5.46.015-7.492V119.991l-7.759-2.523,7.759-1.941V53.02l-7.165-3.081,7.165-3.518V33.609l-15.59-2.986,15.59-2.209V14.645c0-4.187-17.01-14.645-22.275-14.645h-54.92l-6.121,1.682L1449.331,0,892.892,3.012l-84.441-1.33-66.275,1.33L681.561,13.57,634.052,3.012,342.98,7.077c-.3,0-1.556.014-3.491.036-7.322.073-44.681.45-61.03.742-4.073.049-6.92.08-7.777.087-1.729-.113-8.321-.315-38.892-.709-5.037-.092-8.656-.156-9.155-.156L24.269,0c-.144,0-2.581.362-2.662.375C18.98.765,16.62,2.03,14.315,3.012l-8.569,4.1c-1.906,1.04-4.393,2.3-5.332,4.02L0,12.69v5.963l15.074,1.574L0,21.909,5.67,41.5,0,45.351v8.425l.131.818a15.6,15.6,0,0,0,1.524,3.087C1.1,59.762.294,79.442.1,80.268l-.1,4v18.6l5.563,2.807L0,114.5v13.58l24.527,3.13L0,142.632,1.27,192.438H21.607L0,201.112v60.853l9.594,14.6,12.012,12.42H0V419.83H21.607L0,434.135V629.879l15.847,18.689L2.379,662.986,7.885,722.43l22.441,4.137L0,738.079v38.447l21.605,6.194h8.719L0,788.468V806.24C-.165,813.265,12.566,821.6,18.5,821.6l408.478-8.543,53.1,11.571,136.517-10.575,77.925,7.545,373.025-1.247,90.737-13.215,10.246,8.4,92.855,1.779s274.7,4.278,274.827,4.272l2.3-.3c.7-.133,4.568-1.027,12.11-5.582,6.033-3.641,8.6-6.27,8.32-8.576l.618-21.1Z" transform="translate(30 25)" fill="#2e1212"/>
    </g>
  </g>
</svg>
