<?xml version="1.0" encoding="utf-8"?>
<!-- Generator: Adobe Illustrator 26.1.0, SVG Export Plug-In . SVG Version: 6.00 Build 0)  -->
<svg version="1.1" id="Layer_1" xmlns="http://www.w3.org/2000/svg" xmlns:xlink="http://www.w3.org/1999/xlink" x="0px" y="0px"
	 viewBox="0 0 11.1 7.1" style="enable-background:new 0 0 11.1 7.1;" xml:space="preserve">
<style type="text/css">
	.st0{clip-path:url(#SVGID_00000120551987111389901310000004656537683820796834_);}
	.st1{fill:#F2D1A1;}
</style>
<g id="Group_21633" transform="translate(11.147 7.113) rotate(180)">
	<g>
		<defs>
			<rect id="SVGID_1_" x="0" width="11.1" height="7.1"/>
		</defs>
		<clipPath id="SVGID_00000000935031874452601710000014598351243578866358_">
			<use xlink:href="#SVGID_1_"  style="overflow:visible;"/>
		</clipPath>
		
			<g id="Group_21630" transform="translate(0 0)" style="clip-path:url(#SVGID_00000000935031874452601710000014598351243578866358_);">
			<path id="Path_39514" class="st1" d="M0.3,0.5L0,2.1c0,0.2,0,0.5,0.2,0.6L5.3,7c0.2,0.2,0.6,0.2,0.8,0L11,2.6
				c0.2-0.2,0.2-0.5,0.1-0.7L10,0.4C9.8,0.2,9.5,0.2,9.3,0.3L5.5,2.8L1.3,0.1C1-0.1,0.6,0,0.4,0.3C0.4,0.4,0.3,0.4,0.3,0.5"/>
		</g>
	</g>
</g>
</svg>
