<svg id="Group_46789" data-name="Group 46789" xmlns="http://www.w3.org/2000/svg" xmlns:xlink="http://www.w3.org/1999/xlink" width="18.289" height="20.733" viewBox="0 0 18.289 20.733">
  <defs>
    <clipPath id="clip-path">
      <rect id="Rectangle_1646" data-name="Rectangle 1646" width="18.289" height="20.733" fill="#fbf1da"/>
    </clipPath>
  </defs>
  <g id="Group_22397" data-name="Group 22397" clip-path="url(#clip-path)">
    <path id="Path_39847" data-name="Path 39847" d="M61.227,38.965l-2.032-1.173a.694.694,0,0,0-.694,0l-2.032,1.173a.694.694,0,0,0-.347.6v2.346a.694.694,0,0,0,.347.6L58.5,43.686a.694.694,0,0,0,.694,0l2.032-1.173a.694.694,0,0,0,.347-.6V39.566a.694.694,0,0,0-.347-.6" transform="translate(-49.75 -33.419)" fill="#fbf1da"/>
    <path id="Path_39848" data-name="Path 39848" d="M18.258,5.718a1.131,1.131,0,0,0-.569-.977L9.676.149a1.131,1.131,0,0,0-1.131,0L.562,4.8A1.131,1.131,0,0,0,0,5.778l.03,9.236a1.131,1.131,0,0,0,.569.978l8.013,4.592a1.131,1.131,0,0,0,1.131,0l7.983-4.644a1.131,1.131,0,0,0,.562-.981Zm-1.394,9.81L14.6,16.846V15.373a2.321,2.321,0,0,0-1.161-2.01l-3.133-1.809a2.321,2.321,0,0,0-2.322,0L4.851,13.362a2.321,2.321,0,0,0-1.161,2.01v1.484L1.458,15.578a1.285,1.285,0,0,1-.644-1.108L.787,6.316A1.285,1.285,0,0,1,1.424,5.2L8.473,1.1a1.284,1.284,0,0,1,1.281,0L16.83,5.153a1.284,1.284,0,0,1,.644,1.107l.027,8.155a1.285,1.285,0,0,1-.637,1.112" transform="translate(0 0.001)" fill="#fbf1da"/>
  </g>
</svg>
