<svg id="Group_46791" data-name="Group 46791" xmlns="http://www.w3.org/2000/svg" xmlns:xlink="http://www.w3.org/1999/xlink" width="19.666" height="17.346" viewBox="0 0 19.666 17.346">
  <defs>
    <clipPath id="clip-path">
      <rect id="Rectangle_1074" data-name="Rectangle 1074" width="19.666" height="17.346" fill="none"/>
    </clipPath>
  </defs>
  <g id="Group_19624" data-name="Group 19624" transform="translate(0 0)" clip-path="url(#clip-path)">
    <path id="Path_38817" data-name="Path 38817" d="M18.647,2.556,3.419,4.283A1.081,1.081,0,0,0,2.4,5.416v7.43l-1.071-.793V4.535A1.081,1.081,0,0,1,2.348,3.4L16.692,1.775a.646.646,0,0,0,.574-.642A1.081,1.081,0,0,0,16.246,0L2.173,1.6A1.964,1.964,0,0,0,0,3.865v9.791a1.264,1.264,0,0,0,.026.246l.052.944A2.412,2.412,0,0,0,1.71,17l1.029.35H18.647a1.081,1.081,0,0,0,1.019-1.133V3.689a1.081,1.081,0,0,0-1.019-1.133m-.526,10.076c0,.065-.059.122-.148.145l-.594.152a.322.322,0,0,1-.223-.023l-.4-.211a.145.145,0,0,1-.088-.122V8.193a.133.133,0,0,1,.063-.106l.522-.374a.315.315,0,0,1,.305-.017l.471.24a.146.146,0,0,1,.091.124Z" transform="translate(0 0)" fill="#fbedd1"/>
  </g>
</svg>
