<svg xmlns="http://www.w3.org/2000/svg" xmlns:xlink="http://www.w3.org/1999/xlink" width="244.239" height="209.147" viewBox="0 0 244.239 209.147">
  <defs>
    <clipPath id="clip-path">
      <rect id="Rectangle_1687" data-name="Rectangle 1687" width="244.239" height="209.147" fill="none"/>
    </clipPath>
  </defs>
  <g id="Group_22637" data-name="Group 22637" opacity="0.9" style="mix-blend-mode: soft-light;isolation: isolate">
    <g id="Group_22636" data-name="Group 22636">
      <g id="Group_22635" data-name="Group 22635" clip-path="url(#clip-path)">
        <path id="Path_39915" data-name="Path 39915" d="M254.819,211.725c-.009-.128-.021-.54.014-1.822l.031-3.134-6.581-1.3,6.118-.389.726-15.435-6.548-.907L255,185.265l.191-42.87-7.757-1.71,7.742-3.3.028-6.506-6.584-2.727,5.253-.815,1.336-3.6-.151-24.181-5.109-1.907,5.113-.867.006-4.9L251.1,90.417l3.964-.867.034-42.5-4.036-.607L255.1,45.1l0-1.673v-4.7l-1.184-.564,1.184-.434V23.776l-4.581-.564,4.581-.91V19.442l-1.879-.651,1.879-.51V15.207c0-.935-2.6-3.27-3.4-3.27h-8.381l-.934.375-4.013-.375H165.925l-13.251,1.8-9.751-1.8-9.25,2.357-7.25-2.357H45.8l-.532.008c-1.117.016-6.819.1-9.314.166-.622.011-1.056.018-1.187.019-.264-.025-1.27-.071-5.935-.158-.768-.021-1.321-.035-1.4-.035H14.671c-.022,0-.394.081-.406.084a3.806,3.806,0,0,0-1.112.589l-1.308.915a2.359,2.359,0,0,0-.814.9l-.063.348V16.1l2.3.352-2.3.375.865,4.374-.865.861v1.881l.02.182a4.333,4.333,0,0,0,.233.689c-.085.465-.208,4.859-.237,5.044l-.015.892V34.9l4.079,1.155L10.968,37.5v3.032l6.973,1.227-6.973,2.022v9.832L15.6,55.473l-4.632,1.371V100.77l1.464,3.26,7.406,2.283-8.87,2.771v15.874l6.918,1.318-6.918,4.173V177.6l2.418,4.173-2.418,6.59,1.049,7.467,5.673,2.2-6.722,3.734v8.585l9.559.889-9.559,1.778v3.968c-.026,1.568,1.918,3.431,2.822,3.431L78.044,218.5l8.1,2.584,20.834-2.361,11.892,1.685,77.469.676,12.508-4.557,2.9,2.856,14,1.7s25.863-.676,25.883-.678l.352-.066a5.521,5.521,0,0,0,1.849-1.247c.92-.813,1.313-1.4,1.269-1.915l.095-4.711Z" transform="translate(-10.967 -11.937)" fill="#fbf1da"/>
      </g>
    </g>
  </g>
</svg>
