<svg id="Group_42539" data-name="Group 42539" xmlns="http://www.w3.org/2000/svg" xmlns:xlink="http://www.w3.org/1999/xlink" width="18.968" height="18.656" viewBox="0 0 18.968 18.656">
  <defs>
    <clipPath id="clip-path">
      <rect id="Rectangle_10315" data-name="Rectangle 10315" width="18.967" height="18.656" fill="#fdeccd"/>
    </clipPath>
  </defs>
  <g id="Group_42539-2" data-name="Group 42539" transform="translate(0 0)" clip-path="url(#clip-path)">
    <path id="Path_209928" data-name="Path 209928" d="M.013,9.883A11.445,11.445,0,0,1,.1,7.843a.86.86,0,0,1,.22-.553.889.889,0,0,1,.507-.163l1.649-.176a.819.819,0,0,0,.377-.1.82.82,0,0,0,.238-.313L3.71,5.37a.727.727,0,0,0,.1-.283.728.728,0,0,0-.106-.362L2.843,2.988a.681.681,0,0,1-.1-.529.676.676,0,0,1,.3-.3L5.906.377A.869.869,0,0,1,6.476.188.872.872,0,0,1,6.984.6L7.992,2a.807.807,0,0,0,.3.288.8.8,0,0,0,.355.045L9.925,2.3a.733.733,0,0,0,.3-.049.735.735,0,0,0,.278-.3L11.52.321c.09-.144.2-.3.372-.319a.56.56,0,0,1,.315.1q1.549.859,3.1,1.717c.45.249.554.357.427.883a5.469,5.469,0,0,1-.619,1.513.946.946,0,0,0-.192.5.867.867,0,0,0,.145.384l.595,1.037a1.033,1.033,0,0,0,.329.4,1.029,1.029,0,0,0,.4.109l1.706.22a.942.942,0,0,1,.62.242.941.941,0,0,1,.156.6l.1,3.278a.829.829,0,0,1-.133.587.826.826,0,0,1-.533.2l-1.69.213a.59.59,0,0,0-.591.4l-.6,1.176a.628.628,0,0,0,.016.739l.77,1.507a.713.713,0,0,1,.1.6.705.705,0,0,1-.3.275l-3.006,1.845a.656.656,0,0,1-.352.131c-.2-.007-.339-.181-.455-.34l-1.007-1.381a1.377,1.377,0,0,0-.36-.4,7,7,0,0,0-2.237.03,9.847,9.847,0,0,0-.675,1.394,1.121,1.121,0,0,1-.887.677,1.312,1.312,0,0,1-.54-.159,28.936,28.936,0,0,1-2.84-1.512.864.864,0,0,1-.4-.385.879.879,0,0,1,.1-.644l.679-1.558a.616.616,0,0,0-.055-.739l-.7-1.137a.764.764,0,0,0-.2-.242.763.763,0,0,0-.379-.1L.819,12.022a.745.745,0,0,1-.413-.114.722.722,0,0,1-.21-.456,11.45,11.45,0,0,1-.183-1.57M12.97,11.965a4.5,4.5,0,0,0,.159-5.12A4.51,4.51,0,0,0,8.28,5.094,4.51,4.51,0,0,0,5.113,9.161,4.51,4.51,0,0,0,8,13.433a4.557,4.557,0,0,0,4.936-1.424l.038-.044" transform="translate(0 0)" fill="#fdeccd"/>
  </g>
</svg>
