<svg xmlns="http://www.w3.org/2000/svg" xmlns:xlink="http://www.w3.org/1999/xlink" width="35.227" height="40.001" viewBox="0 0 35.227 40.001">
  <defs>
    <clipPath id="clip-path">
      <rect id="Rectangle_10316" data-name="Rectangle 10316" width="35.227" height="40.001" fill="#7e2720"/>
    </clipPath>
  </defs>
  <g id="Group_42540" data-name="Group 42540" transform="translate(0 0)">
    <g id="Group_42540-2" data-name="Group 42540" transform="translate(0 0)" clip-path="url(#clip-path)">
      <path id="Path_209929" data-name="Path 209929" d="M34.136,9.2,18.7.292a2.183,2.183,0,0,0-2.182,0L1.091,9.2A2.182,2.182,0,0,0,0,11.092V28.91A2.183,2.183,0,0,0,1.091,30.8l15.432,8.909a2.18,2.18,0,0,0,2.182,0L34.136,30.8a2.183,2.183,0,0,0,1.091-1.89V11.092A2.182,2.182,0,0,0,34.136,9.2M9.54,22.488,7.052,18.525l.4-3.328,2.3-3.411c.434-.087,4.093-.589,5.7-.781l-.732-2.443,8.712,4.5-8.532,5.164.6-2.912-4.943.084-1.777,2.62ZM27.772,24.8l-2.3,3.411c-.434.087-4.093.589-5.7.781l.732,2.443-8.712-4.505,8.532-5.163-.6,2.912L24.66,24.6l1.778-2.619-.751-4.465,2.488,3.963Z" transform="translate(0 0)" fill="#7e2720"/>
    </g>
  </g>
</svg>
