<svg id="Group_19595" data-name="Group 19595" xmlns="http://www.w3.org/2000/svg" xmlns:xlink="http://www.w3.org/1999/xlink" width="18.204" height="19.178" viewBox="0 0 18.204 19.178">
  <defs>
    <clipPath id="clip-path">
      <rect id="Rectangle_1037" data-name="Rectangle 1037" width="18.204" height="19.178" fill="none"/>
    </clipPath>
  </defs>
  <g id="Group_19589" data-name="Group 19589" clip-path="url(#clip-path)">
    <path id="Path_38805" data-name="Path 38805" d="M16.975,0,1.282,1.046A1.151,1.151,0,0,0,0,2.015L2.472,15.731l-1.3.641A.387.387,0,0,0,1,16.915l.912,1.246a.126.126,0,0,1,0,.131l-.44.692a.126.126,0,0,0,.2.156l.857-.88a.126.126,0,0,0,.025-.139l-.374-.738a.126.126,0,0,1,.11-.177L5.5,17.066l10.262.227a1.151,1.151,0,0,0,1.282-.969L18.2,1.035A1.151,1.151,0,0,0,16.975,0M8.6,14.754l-1.646-.742.53-1.46,2.462.17.417,1.669Zm3.178-4.4-1.918-.335.1,1.746L7.643,11.6,7.956,9,9.2,8.24l1.542.269,1.266-1.416L11.466,5.63,9.249,5.106l-2.077.8.28,1.254-1.492.89-.932-3.13,4.124-1.74,4.536,1.186.206,3.557Z" fill="#fbedd1"/>
  </g>
</svg>
