<svg xmlns="http://www.w3.org/2000/svg" xmlns:xlink="http://www.w3.org/1999/xlink" width="130.689" height="148.133" viewBox="0 0 130.689 148.133">
  <defs>
    <clipPath id="clip-path">
      <rect id="Rectangle_1420" data-name="Rectangle 1420" width="130.689" height="148.133" fill="none"/>
    </clipPath>
  </defs>
  <g id="Group_21435" data-name="Group 21435" clip-path="url(#clip-path)">
    <path id="Path_39367" data-name="Path 39367" d="M126.384,33.855,69.122,1.069a8.079,8.079,0,0,0-8.079.029L4.014,34.3A8.079,8.079,0,0,0,0,41.309L.239,107.3A8.076,8.076,0,0,0,4.3,114.278L61.57,147.065a8.079,8.079,0,0,0,8.079-.029l57.025-33.2a8.081,8.081,0,0,0,4.015-7.012l-.236-65.986a8.087,8.087,0,0,0-4.068-6.982m-1.32,69.129a9.185,9.185,0,0,1-4.55,7.945L70.161,140.244a9.176,9.176,0,0,1-9.154.034L10.441,111.327a9.179,9.179,0,0,1-4.605-7.912L5.625,45.149A9.181,9.181,0,0,1,10.174,37.2L60.529,7.889a9.178,9.178,0,0,1,9.156-.034l50.565,28.951a9.188,9.188,0,0,1,4.606,7.912Z" transform="translate(0 0)" fill="#ff7f30"/>
    <path id="Path_39368" data-name="Path 39368" d="M109.835,43.815a6.1,6.1,0,0,0-3.064-5.264L63.6,13.835a6.092,6.092,0,0,0-6.091.021L14.522,38.883A6.1,6.1,0,0,0,11.5,44.17l.181,49.743a6.089,6.089,0,0,0,3.064,5.264l43.168,24.716A6.088,6.088,0,0,0,64,123.87l42.989-25.028a6.088,6.088,0,0,0,3.027-5.285ZM52.9,39.68H69.139V51.046H52.9ZM77.134,98.048H47.11V90.16h7.325V67.309h-7.3V59.377H69.821V90.131h7.313Z" transform="translate(4.59 5.202)" fill="#fcbf10"/>
  </g>
</svg>
