<svg id="Group_21381" data-name="Group 21381" xmlns="http://www.w3.org/2000/svg" xmlns:xlink="http://www.w3.org/1999/xlink" width="97.017" height="108.473" viewBox="0 0 97.017 108.473">
  <defs>
    <clipPath id="clip-path">
      <rect id="Rectangle_1397" data-name="Rectangle 1397" width="97.017" height="108.473" fill="none"/>
    </clipPath>
    <clipPath id="clip-path-3">
      <rect id="Rectangle_1390" data-name="Rectangle 1390" width="19.476" height="22.116" fill="none"/>
    </clipPath>
    <clipPath id="clip-path-4">
      <rect id="Rectangle_1391" data-name="Rectangle 1391" width="16.535" height="18.776" fill="none"/>
    </clipPath>
    <clipPath id="clip-path-5">
      <rect id="Rectangle_1392" data-name="Rectangle 1392" width="13.561" height="15.398" fill="none"/>
    </clipPath>
    <clipPath id="clip-path-6">
      <rect id="Rectangle_1393" data-name="Rectangle 1393" width="11.298" height="12.83" fill="none"/>
    </clipPath>
    <clipPath id="clip-path-7">
      <rect id="Rectangle_1394" data-name="Rectangle 1394" width="10.017" height="11.374" fill="none"/>
    </clipPath>
    <clipPath id="clip-path-8">
      <rect id="Rectangle_1395" data-name="Rectangle 1395" width="7.933" height="9.008" fill="none"/>
    </clipPath>
  </defs>
  <g id="Group_21380" data-name="Group 21380" clip-path="url(#clip-path)">
    <g id="Group_21379" data-name="Group 21379">
      <g id="Group_21378" data-name="Group 21378" clip-path="url(#clip-path)">
        <path id="Path_39289" data-name="Path 39289" d="M61.767,130.6v12.077a1.479,1.479,0,0,0,.74,1.281l10.459,6.039a1.481,1.481,0,0,0,1.479,0L84.9,143.956a1.479,1.479,0,0,0,.74-1.281V130.6a1.477,1.477,0,0,0-.74-1.28l-10.459-6.039a1.478,1.478,0,0,0-1.479,0l-10.459,6.039a1.477,1.477,0,0,0-.74,1.28" transform="translate(-20.936 -41.719)" fill="#faf0da"/>
        <path id="Path_39290" data-name="Path 39290" d="M16.093,108.46V119.1a1.3,1.3,0,0,0,.65,1.128l9.214,5.319a1.3,1.3,0,0,0,1.3,0l9.214-5.319a1.3,1.3,0,0,0,.652-1.128V108.46a1.3,1.3,0,0,0-.652-1.128l-9.214-5.319a1.3,1.3,0,0,0-1.3,0l-9.214,5.319a1.3,1.3,0,0,0-.65,1.128" transform="translate(-5.455 -34.519)" fill="#faf0da"/>
        <g id="Group_21362" data-name="Group 21362" transform="translate(0 37.737)" opacity="0.8">
          <g id="Group_21361" data-name="Group 21361">
            <g id="Group_21360" data-name="Group 21360" clip-path="url(#clip-path-3)">
              <path id="Path_39291" data-name="Path 39291" d="M0,63.22v9.852a1.206,1.206,0,0,0,.6,1.044l8.532,4.926a1.206,1.206,0,0,0,1.206,0l8.531-4.926a1.205,1.205,0,0,0,.6-1.044V63.22a1.205,1.205,0,0,0-.6-1.044l-8.531-4.926a1.206,1.206,0,0,0-1.206,0L.6,62.175A1.206,1.206,0,0,0,0,63.22" transform="translate(0 -57.087)" fill="#faf0da"/>
            </g>
          </g>
        </g>
        <g id="Group_21365" data-name="Group 21365" transform="translate(15.135 9.57)" opacity="0.8">
          <g id="Group_21364" data-name="Group 21364">
            <g id="Group_21363" data-name="Group 21363" clip-path="url(#clip-path-4)">
              <path id="Path_39292" data-name="Path 39292" d="M22.9,19.683v8.364a1.024,1.024,0,0,0,.512.887l7.243,4.182a1.024,1.024,0,0,0,1.025,0l7.244-4.182a1.025,1.025,0,0,0,.512-.887V19.683a1.024,1.024,0,0,0-.512-.887l-7.244-4.182a1.024,1.024,0,0,0-1.025,0L23.408,18.8a1.024,1.024,0,0,0-.512.887" transform="translate(-22.896 -14.477)" fill="#faf0da"/>
            </g>
          </g>
        </g>
        <g id="Group_21368" data-name="Group 21368" transform="translate(45.914)" opacity="0.8">
          <g id="Group_21367" data-name="Group 21367">
            <g id="Group_21366" data-name="Group 21366" clip-path="url(#clip-path-5)">
              <path id="Path_39293" data-name="Path 39293" d="M69.457,4.27v6.86a.839.839,0,0,0,.42.727l5.941,3.429a.839.839,0,0,0,.84,0L82.6,11.856a.839.839,0,0,0,.42-.727V4.27a.839.839,0,0,0-.42-.727L76.657.112a.839.839,0,0,0-.84,0l-5.941,3.43a.839.839,0,0,0-.42.727" transform="translate(-69.457 0)" fill="#faf0da"/>
            </g>
          </g>
        </g>
        <g id="Group_21371" data-name="Group 21371" transform="translate(75.703 14.205)" opacity="0.5">
          <g id="Group_21370" data-name="Group 21370">
            <g id="Group_21369" data-name="Group 21369" clip-path="url(#clip-path-6)">
              <path id="Path_39294" data-name="Path 39294" d="M114.52,25.046v5.715a.7.7,0,0,0,.35.606l4.949,2.858a.7.7,0,0,0,.7,0l4.949-2.858a.7.7,0,0,0,.35-.606V25.046a.7.7,0,0,0-.35-.606l-4.949-2.857a.7.7,0,0,0-.7,0L114.87,24.44a.7.7,0,0,0-.35.606" transform="translate(-114.52 -21.489)" fill="#faf0da"/>
            </g>
          </g>
        </g>
        <g id="Group_21374" data-name="Group 21374" transform="translate(87 42.892)" opacity="0.5">
          <g id="Group_21373" data-name="Group 21373">
            <g id="Group_21372" data-name="Group 21372" clip-path="url(#clip-path-7)">
              <path id="Path_39295" data-name="Path 39295" d="M131.611,68.04v5.067a.622.622,0,0,0,.31.537l4.388,2.533a.62.62,0,0,0,.621,0l4.388-2.533a.622.622,0,0,0,.31-.537V68.04a.622.622,0,0,0-.31-.537l-4.388-2.533a.62.62,0,0,0-.621,0L131.921,67.5a.622.622,0,0,0-.31.537" transform="translate(-131.611 -64.886)" fill="#faf0da"/>
            </g>
          </g>
        </g>
        <g id="Group_21377" data-name="Group 21377" transform="translate(76.364 71.091)" opacity="0.5">
          <g id="Group_21376" data-name="Group 21376">
            <g id="Group_21375" data-name="Group 21375" clip-path="url(#clip-path-8)">
              <path id="Path_39296" data-name="Path 39296" d="M115.52,110.041v4.013a.492.492,0,0,0,.246.426l3.475,2.006a.49.49,0,0,0,.491,0l3.475-2.006a.491.491,0,0,0,.245-.426v-4.013a.491.491,0,0,0-.245-.426l-3.475-2.006a.49.49,0,0,0-.491,0l-3.475,2.006a.492.492,0,0,0-.246.426" transform="translate(-115.52 -107.543)" fill="#faf0da"/>
            </g>
          </g>
        </g>
      </g>
    </g>
  </g>
</svg>
