<svg id="Group_19594" data-name="Group 19594" xmlns="http://www.w3.org/2000/svg" xmlns:xlink="http://www.w3.org/1999/xlink" width="19.656" height="20.63" viewBox="0 0 19.656 20.63">
  <defs>
    <clipPath id="clip-path">
      <rect id="Rectangle_1039" data-name="Rectangle 1039" width="19.656" height="20.63" fill="none"/>
    </clipPath>
  </defs>
  <g id="Group_19593" data-name="Group 19593" clip-path="url(#clip-path)">
    <path id="Path_38807" data-name="Path 38807" d="M20.585,86H19.252V77.563a.358.358,0,0,0-.209-.34l-.811-.315a.317.317,0,0,0-.4.34V86h-2.3v-5.93a.331.331,0,0,0-.331-.331h-.76a.331.331,0,0,0-.331.331V80.2H8.661v-.129a.331.331,0,0,0-.331-.331H7.57a.331.331,0,0,0-.331.331V86h-2.3V77.247a.317.317,0,0,0-.4-.34l-.811.315a.358.358,0,0,0-.209.34V86H2.056a.343.343,0,0,0-.344.343v.981a.343.343,0,0,0,.344.343h18.53a.343.343,0,0,0,.343-.343v-.981A.343.343,0,0,0,20.585,86M8.661,81.225h5.448V86H8.661Z" transform="translate(-1.493 -67.037)" fill="#fbedd1"/>
    <path id="Path_38808" data-name="Path 38808" d="M52.148,2.593h5.545a.429.429,0,0,0,.429-.429V.428A.428.428,0,0,0,57.692,0H52.148a.429.429,0,0,0-.429.428V2.165a.429.429,0,0,0,.429.429" transform="translate(-45.092 0)" fill="#fbedd1"/>
    <path id="Path_38809" data-name="Path 38809" d="M19.648,33.14l-.95-5.751A.431.431,0,0,0,18.3,27H1.359a.432.432,0,0,0-.4.388L.008,33.14c-.059.358.231.659.527.547l2.533-.961a.351.351,0,0,1,.251,0l3.066,1.163a.351.351,0,0,0,.251,0L9.7,32.726a.351.351,0,0,1,.251,0l3.066,1.163a.351.351,0,0,0,.251,0l3.066-1.163a.351.351,0,0,1,.251,0l2.533.961c.3.112.586-.189.527-.547" transform="translate(0 -23.541)" fill="#fbedd1"/>
  </g>
</svg>
