<svg xmlns="http://www.w3.org/2000/svg" xmlns:xlink="http://www.w3.org/1999/xlink" width="200.589" height="228.669" viewBox="0 0 200.589 228.669">
  <defs>
    <clipPath id="clip-path">
      <path id="Path_113224" data-name="Path 113224" d="M0,0H200.589V228.669H0Z" transform="translate(-2 -3)" fill="none" stroke="#f3c045" stroke-width="2"/>
    </clipPath>
  </defs>
  <g id="Mask_Group_28063" data-name="Mask Group 28063" transform="translate(2 3)" clip-path="url(#clip-path)">
    <g id="Path_39832" data-name="Path 39832" transform="translate(1.391 0.111)" fill="none">
      <path d="M.378,210.917c.008-.155.02-.651-.013-2.2l-.03-3.782L3.3,203.217.779,202.9l-.7-18.626,2.939-1.244-2.8-1.3L.023,131.4l7.63-2.214L.046,127.659,0,114.4l6.513-.33L.847,112.079l-.841-3.186L.151,69.135l1.557-2.451-1.561-.9-.006-5.91L.6,57.948l-.457-.9L.106,42.376l.527-.882L.1,40.023.1,38V32.333l1.137-.68L.1,31.13V14.287l1.05-.83L.1,12.509V9.057L3.069,8.41.1,7.657V3.946C.1,2.818,2.595,0,3.366,0h8.05l.9.453L16.169,0h83.2L112.1,2.167,121.464,0l8.885,2.845L137.313,0h24.341l.512.01c1.073.02,6.549.121,8.946.2l1.14.023c.253-.031,1.22-.085,5.7-.191C178.691.017,179.221,0,179.295,0h12.259c.021,0,.378.1.39.1a3.483,3.483,0,0,1,1.069.711l1.256,1.1A2.714,2.714,0,0,1,195.051,3l.06.42V5.026l-2.21.424,2.21.453-.831,5.279.831,1.038v2.27l-.019.22a6.159,6.159,0,0,1-.223.832c.081.561.2,5.864.228,6.086l.015,1.077v5.011l-.815.756.815,2.38v3.659l-3.6.843,3.6,3.078-.186,13.421-4.263.682,4.449,1.655v16.4L193.7,74.526l-4.011,2.117,5.417,1.23V113.13l-6.645-1.181,6.645,5.036v52.746l-2.323,5.036,1.974,3.885-.807,16.018-3.289,1.115,4.445,3.1v10.36l-9.181,1.073,9.181,2.145v4.789c.024,1.893-1.842,4.14-2.711,4.14l-49.681-2.3-7.784,3.118-20.011-2.85L103.5,221.394l-34.086.816-13.3-3.561-1.5,2.264L41,221.393s-37.55,0-37.569,0l-.338-.08a5.31,5.31,0,0,1-1.775-1.5C.436,218.827.059,218.119.1,217.5L.01,211.812Z" stroke="none"/>
      <path d="M 134.9351501464844 222.21044921875 L 142.7189788818359 219.0924530029297 L 192.3999328613281 221.3945007324219 C 193.2693786621094 221.3945007324219 195.1355438232422 219.1473693847656 195.1112365722656 217.2545623779297 L 195.1112365722656 212.4656066894531 L 185.9297637939453 210.3203582763672 L 195.1112365722656 209.2475891113281 L 195.1112365722656 198.8873291015625 L 190.6661529541016 195.7853088378906 L 193.9555969238281 194.6705932617188 L 194.7627410888672 178.6522521972656 L 192.7883453369141 174.7672576904297 L 195.1112365722656 169.7311096191406 L 195.1114044189453 116.98486328125 L 188.4663238525391 111.9490280151367 L 195.1114044189453 113.1301422119141 L 195.1114044189453 77.87242126464844 L 189.6939544677734 76.64225006103516 L 193.7048797607422 74.52566528320312 L 195.1112365722656 70.5906982421875 L 195.1112365722656 54.19280624389648 L 190.6621551513672 52.53794860839844 L 194.9252014160156 51.85558700561523 L 195.1112365722656 38.43436431884766 L 191.5160064697266 35.35678100585938 L 195.1112365722656 34.51330947875977 L 195.1112365722656 30.85391998291016 L 194.2957611083984 28.47350311279297 L 195.1112365722656 27.7170581817627 L 195.1112365722656 22.70619773864746 L 195.0963745117188 21.62941932678223 C 195.0682678222656 21.40689086914062 194.9499359130859 16.10378074645996 194.8685913085938 15.54300212860107 C 194.9463806152344 15.31030750274658 195.0427703857422 14.99241924285889 195.0919799804688 14.71125221252441 L 195.1112365722656 14.490891456604 L 195.1112365722656 12.22064113616943 L 194.2803192138672 11.18244647979736 L 195.1112365722656 5.90369701385498 L 192.9015197753906 5.450335502624512 L 195.1112365722656 5.026280403137207 L 195.1112365722656 3.419585704803467 L 195.0508728027344 2.999835729598999 C 194.9131011962891 2.535974502563477 194.5486297607422 2.196807861328125 194.2692413330078 1.916557908058167 L 193.0131225585938 0.8116968274116516 C 192.6751556396484 0.5468912720680237 192.3292694091797 0.2061690539121628 191.9441833496094 0.1009190529584885 C 191.9323120117188 0.09753016382455826 191.5751800537109 2.387152790106484e-06 191.5540161132812 2.387152790106484e-06 L 179.2946014404297 2.387152790106484e-06 C 179.2213745117188 2.387152790106484e-06 178.6908416748047 0.01728016510605812 177.9525909423828 0.04197460785508156 C 173.4712982177734 0.1481412798166275 172.5050354003906 0.2024746090173721 172.2516021728516 0.2330023944377899 C 172.1259307861328 0.2311690598726273 171.7086181640625 0.2228357195854187 171.1116180419922 0.2095579355955124 C 168.7151184082031 0.1308635026216507 163.2389373779297 0.02933572046458721 162.1656494140625 0.009557942859828472 C 161.8820953369141 0.003696831641718745 161.6980743408203 2.387152790106484e-06 161.6539611816406 2.387152790106484e-06 L 137.3128204345703 2.387152790106484e-06 L 130.3487854003906 2.844918966293335 L 121.463737487793 2.387152790106484e-06 L 112.0984878540039 2.167474508285522 L 99.37112426757812 2.387152790106484e-06 L 16.16865348815918 2.387152790106484e-06 L 12.31381893157959 0.4533635079860687 L 11.41665267944336 2.387152790106484e-06 L 3.366235971450806 2.387152790106484e-06 C 2.594569206237793 2.387152790106484e-06 0.1010970249772072 2.818058013916016 0.1010970249772072 3.946391344070435 L 0.1010970249772072 7.656696796417236 L 3.069485902786255 8.409808158874512 L 0.1010970249772072 9.056613922119141 L 0.1010970249772072 12.50891876220703 L 1.151402592658997 13.45700263977051 L 0.1010970249772072 14.28722476959229 L 0.1010970249772072 31.13044738769531 L 1.238485932350159 31.65358543395996 L 0.1010970249772072 32.33347320556641 L 0.1032914668321609 40.02286529541016 L 0.6324025988578796 41.49411392211914 L 0.1058748066425323 42.3764762878418 L 0.1377359181642532 57.05222320556641 L 0.5952359437942505 57.9478645324707 L 0.1408748030662537 59.87678146362305 L 0.147263690829277 65.78725433349609 L 1.707874774932861 66.68319702148438 L 0.1507636904716492 69.13461303710938 L 0.005735914222896099 108.8936157226562 L 0.8467358946800232 112.0792541503906 L 6.512708187103271 114.0668106079102 L -0.0001807522203307599 114.3970336914062 L 0.04551369324326515 127.659309387207 L 7.652291297912598 129.1860504150391 L 0.022763691842556 131.4001617431641 L 0.2169025838375092 181.7243347167969 L 3.020791530609131 183.0273590087891 L 0.08193036168813705 184.2717590332031 L 0.7792636752128601 202.8982238769531 L 3.304930448532104 203.2170257568359 L 0.3344025909900665 204.9348297119141 L 0.3642914593219757 208.7170257568359 C 0.3975414633750916 210.26513671875 0.3860692381858826 210.7620086669922 0.3777359127998352 210.9165802001953 L 0.01048591453582048 211.8116760253906 L 0.1010970249772072 217.4971466064453 C 0.05937480181455612 218.1187286376953 0.4363192617893219 218.8269958496094 1.320652604103088 219.8081359863281 C 2.426180362701416 221.0355377197266 2.993458032608032 221.2765655517578 3.095791578292847 221.3123931884766 L 3.433569192886353 221.3919982910156 C 3.452569484710693 221.3935241699219 41.00223541259766 221.3932342529297 41.00223541259766 221.3932189941406 L 54.61337661743164 220.9139251708984 L 56.115234375 218.6495361328125 L 69.41587829589844 222.21044921875 L 103.5013732910156 221.3941345214844 L 114.923957824707 219.3609466552734 L 134.9351501464844 222.21044921875 M 135.0588531494141 223.2381439208984 L 114.9415893554688 220.37353515625 L 103.6015396118164 222.3920288085938 L 103.5253219604492 222.3938598632812 L 69.29612731933594 223.2136077880859 L 56.55117797851562 219.8014526367188 L 55.1624870300293 221.8952026367188 L 41.00223541259766 222.3932189941406 L 33.55754089355469 222.3932495117188 C 3.409430265426636 222.3932495117188 3.409430265426636 222.3932495117188 3.354069232940674 222.3888397216797 L 3.278208255767822 222.3827819824219 L 2.815069198608398 222.2736206054688 L 2.765291452407837 222.2561950683594 C 2.445902585983276 222.1443634033203 1.736985921859741 221.7645568847656 0.5776247978210449 220.4773864746094 C -0.4990383982658386 219.2828826904297 -0.9434127807617188 218.3817596435547 -0.8993445634841919 217.4766693115234 L -0.992652952671051 211.6221618652344 L -0.6159295439720154 210.7039489746094 C -0.6114621758460999 210.4606170654297 -0.6102074980735779 209.9148864746094 -0.6354863047599792 208.7384948730469 L -0.6356807351112366 208.7249145507812 L -0.6701529622077942 204.3605804443359 L 0.2345651537179947 203.83740234375 L -0.1882640868425369 203.7840270996094 L -0.9431807398796082 183.6198577880859 L 0.5564732551574707 182.98486328125 L -0.7806529998779297 182.3634796142578 L -0.9801251888275146 130.6499481201172 L 3.453563213348389 129.36328125 L -0.9516807794570923 128.4791107177734 L -1.003458499908447 113.4466171264648 L 1.379243969917297 113.325798034668 L 0.01523591484874487 112.8473052978516 L -0.9947363138198853 109.0215835571289 L -0.8481807708740234 68.84219360351562 L 0.303052693605423 67.02977752685547 L -0.8520973920822144 66.36658477783203 L -0.859264075756073 59.76111221313477 L -0.462287425994873 58.07588195800781 L -0.8617362976074219 57.29386520385742 L -0.8947362899780273 42.10177993774414 L -0.4685804545879364 41.38768005371094 L -0.8965140581130981 40.19775390625 L -0.898902952671051 38.00525283813477 L -0.898902952671051 13.80300235748291 L -0.3971000909805298 13.40635681152344 L -0.898902952671051 12.95339107513428 L -0.898902952671051 3.946391344070435 C -0.898902952671051 2.914030075073242 0.09209702908992767 1.595752358436584 0.6828470230102539 0.9018357396125793 C 1.757180333137512 -0.3601365089416504 2.659986019134521 -0.999997615814209 3.366235971450806 -0.999997615814209 L 11.65495777130127 -0.999997615814209 L 12.49606227874756 -0.5749738812446594 L 16.11004066467285 -0.999997615814209 L 99.45565032958984 -0.999997615814209 L 112.0685272216797 1.147975444793701 L 121.5064849853516 -1.036330938339233 L 130.3073425292969 1.781644225120544 L 137.1164245605469 -0.999997615814209 L 161.6539611816406 -0.999997615814209 C 161.7046813964844 -0.999997615814209 161.8375396728516 -0.9974420666694641 162.1863250732422 -0.9902198314666748 C 164.1414337158203 -0.9542140364646912 168.9306793212891 -0.8625228404998779 171.1405181884766 -0.7900435924530029 C 171.6685943603516 -0.7782987952232361 172.0421447753906 -0.7707301378250122 172.2072296142578 -0.7678491473197937 C 172.5777435302734 -0.8031439781188965 173.6799468994141 -0.8570566773414612 177.9239501953125 -0.9576303362846375 C 178.9947814941406 -0.9934362769126892 179.2257537841797 -0.999997615814209 179.2946014404297 -0.999997615814209 L 191.5540161132812 -0.999997615814209 C 191.6566162109375 -0.999997615814209 191.7307739257812 -0.9999896883964539 192.2163391113281 -0.8613396883010864 C 192.7254180908203 -0.7197895050048828 193.1214294433594 -0.3928062915802002 193.4399566650391 -0.1297753900289536 C 193.5070648193359 -0.07435872405767441 193.5704345703125 -0.02202539145946503 193.6298675537109 0.02453016489744186 L 193.6735687255859 0.06083571910858154 L 194.9774322509766 1.210530161857605 L 195.0339050292969 1.266946792602539 C 195.3424530029297 1.574474573135376 195.8087310791016 2.039224624633789 196.0094909667969 2.715113401412964 L 196.0302886962891 2.785169124603271 L 196.1112365722656 3.348057985305786 L 196.1112365722656 5.088038444519043 L 196.2475433349609 5.116002559661865 L 195.3367614746094 10.90205574035645 L 196.1112365722656 11.86975193023682 L 196.1112365722656 14.53447437286377 L 196.0844268798828 14.84122467041016 L 196.0770111083984 14.88369655609131 C 196.0377044677734 15.1082124710083 195.9726715087891 15.36693096160889 195.8831787109375 15.65500545501709 C 195.9253692626953 16.22991752624512 195.9688568115234 17.54122543334961 196.0350952148438 19.79733657836914 C 196.0578002929688 20.56961441040039 196.0812377929688 21.36752891540527 196.0910034179688 21.52402305603027 L 196.0955200195312 21.55964088439941 L 196.1112365722656 22.70619773864746 L 196.1112365722656 28.15344619750977 L 195.4524993896484 28.76449012756348 L 196.1112365722656 30.68739128112793 L 196.1112365722656 35.30586242675781 L 193.6647644042969 35.87981033325195 L 196.1176300048828 37.9795036315918 L 195.9134521484375 52.71014022827148 L 194.5711975097656 52.92499160766602 L 196.1112365722656 53.49783706665039 L 196.1112365722656 70.76403045654297 L 194.515625 75.22853088378906 L 192.5506286621094 76.26548004150391 L 196.1114044189453 77.07402801513672 L 196.1114044189453 114.3235549926758 L 192.3801574707031 113.6603469848633 L 196.1114044189453 116.4879760742188 L 196.1112365722656 169.9506072998047 L 193.8993377685547 174.7461242675781 L 195.7748718261719 178.4366149902344 L 194.9201202392578 195.3995819091797 L 192.8607940673828 196.0974273681641 L 196.1112365722656 198.3657531738281 L 196.1112365722656 210.1375579833984 L 191.7323303222656 210.6491851806641 L 196.1112365722656 211.6723327636719 L 196.1112365722656 217.2489013671875 C 196.1294403076172 218.90283203125 195.1114196777344 220.5277862548828 194.2330474853516 221.4174957275391 C 193.593017578125 222.0658111572266 192.9762573242188 222.3945007324219 192.3999328613281 222.3945007324219 L 192.3536529541016 222.3934173583984 L 142.8894958496094 220.1014099121094 L 135.0588531494141 223.2381439208984 Z" stroke="none" fill="#fc931c"/>
    </g>
  </g>
</svg>
