<svg id="Group_19637" data-name="Group 19637" xmlns="http://www.w3.org/2000/svg" xmlns:xlink="http://www.w3.org/1999/xlink" width="20.334" height="19.263" viewBox="0 0 20.334 19.263">
  <defs>
    <clipPath id="clip-path">
      <rect id="Rectangle_1096" data-name="Rectangle 1096" width="20.334" height="19.263" fill="none"/>
    </clipPath>
  </defs>
  <g id="Group_19637-2" data-name="Group 19637" clip-path="url(#clip-path)">
    <path id="Path_38822" data-name="Path 38822" d="M28.441,20.869h-2.95l-.975,1.216H18.745l-.8-1.216H14.828a1.07,1.07,0,0,0-1.036,1.025l-.328,12.332a1.084,1.084,0,0,0,1.036,1.2H29.155a1.085,1.085,0,0,0,1.035-1.212l-.715-12.332a1.069,1.069,0,0,0-1.034-1.013m-6.132,2.826,2.332.005-.005,2.332L22.3,26.027Zm-3.481-.007,2.332,0-.005,2.332-2.332,0Zm8.325,4.682-2.2,0,0,1.089-1.8,0-.007,3.117,1.264,0,0,1.5-4.432-.009,0-1.382-1.53,0,.009-4.132-2.306-.005,0-2.332,2.332.005,0,2.249,1.3,0,0-.857,5.045.011,0-1.58,2.332.005Z" transform="translate(-11.636 -18.04)" fill="#fbedd1"/>
    <path id="Path_38823" data-name="Path 38823" d="M19.207,106.484l.1,1.222c.061,1.391-.185,2.335-1.527,2.3-.038,0-.075,0-.113,0L13.782,110H2.89a1.7,1.7,0,0,1-1.35-.688,1.96,1.96,0,0,1-.349-1.483l.024-1.276H0v3.483a1.223,1.223,0,0,0,1.166,1.273h18a1.223,1.223,0,0,0,1.166-1.273v-3.554Z" transform="translate(0 -92.047)" fill="#fbedd1"/>
    <path id="Path_38824" data-name="Path 38824" d="M2.153,3.607a1.649,1.649,0,0,1,1.6-1.565l3.418,0L8.056,3.4l5.065.031,1.09-1.39h3.35a1.651,1.651,0,0,1,1.6,1.6l.1,1.479h1.3v-3.1A1.1,1.1,0,0,0,19.5.888H14.962L14.27,0H6.915L6.225.888H1.781A1.1,1.1,0,0,0,.721,2.023v3.1l1.308,0Z" transform="translate(-0.623)" fill="#fbedd1"/>
  </g>
</svg>
