<svg id="Group_21775" data-name="Group 21775" xmlns="http://www.w3.org/2000/svg" width="837.218" height="287.881" viewBox="0 0 837.218 287.881">
  <g id="Group_21816" data-name="Group 21816" transform="translate(0)">
    <path id="Path_39406" data-name="Path 39406" d="M835.6,273.249a14.825,14.825,0,0,1,.058-2.85l.128-4.9-12.746-2.226,10.838-.413,2.992-24.131-12.611-1.612,12.031-1.688.833-65.2H824.255l12.767-4.846.2-17.182H823.036l10.548-3,3.609-4.127-.622-51.509-6.682-3.176,6.7-1.161.027-7.657-1.95-2.5,1.963-1.16.137-19.013L834.5,53.757l2.27-1.906.009-2.615V41.889l-4.881-.881,4.881-.678V18.51l-4.507-1.076,4.507-1.228V11.733L824.046,10.9l12.737-.976V5.113c0-1.462-10.7-5.113-14.011-5.113H788.229l-3.85.587L767.838,0H410.819L356.206,2.808,316.02,0,277.894,3.686,248.012,0H143.565c-.189,0-.979,0-2.2.012-4.605.026-28.1.157-38.387.259C100.421.289,98.63.3,98.091.3,97,.262,92.857.192,73.628.054,70.46.022,68.184,0,67.869,0h-52.6c-.091,0-1.623.126-1.674.131A30.117,30.117,0,0,0,9,1.052L3.614,2.483A9.7,9.7,0,0,0,.26,3.886L0,4.43V6.512l9.482.549L0,7.648l3.565,6.839L0,15.832v2.941l.082.285a5.234,5.234,0,0,0,.959,1.078c-.349.726-.857,7.6-.977,7.885L0,29.417v6.492l3.5.98L0,39.972v4.741l15.427,1.093L0,49.793.8,67.181H11.635L0,70.209V91.453l6.034,5.1,7.555,4.336H0v45.677H13.59L0,151.558v68.335l9.967,6.524L1.5,231.45,4.959,252.2l14.115,1.444L0,257.665v13.422l15.427,2.162L0,275.256v6.2c-.1,2.452,7.9,5.363,11.634,5.363l213.179-2.982,33.4,4.04,85.867-3.692,49.014,2.634,146.26,1.058,57.073-4.613,6.445,2.934,58.4.621s161.125,0,161.206,0l1.449-.1a39.135,39.135,0,0,0,7.617-1.949c3.795-1.271,5.412-2.189,5.233-2.994l.389-7.366Z" transform="translate(0)" fill="#23100e"/>
  </g>
</svg>
