<svg id="Group_21824" data-name="Group 21824" xmlns="http://www.w3.org/2000/svg" width="838.561" height="48.856" viewBox="0 0 838.561 48.856">
  <g id="Group_21814" data-name="Group 21814" transform="translate(0)">
    <path id="Path_39406" data-name="Path 39406" d="M836.173,120.02c-.035-.061-.085-.257.057-.867l.128-1.491-12.7-.677,10.794-.126,2.98-7.341h-5.294l5.645-3.886-1.615-13.926-1.942-.76,1.955-.353.136-5.784-2.25-.348-1.048-1.7-.371-1.848,4.489-.374V79.183l-12.686-.255,12.686-.3V77.169c0-.445-10.657-1.555-13.955-1.555H788.781l-3.835.179-16.475-.179L409.2,75.552l-54.395.854-40.026-.854-37.973,1.121-29.763-1.121H143.017l-2.187,0c-4.587.008-27.992.048-38.234.079l-4.872.009c-1.083-.012-5.213-.033-24.365-.075l-5.735-.017H15.229c-.09,0-1.617.038-1.668.04-1.646.041-3.124.176-4.568.28l-5.368.435a25.036,25.036,0,0,0-3.34.427L.026,76.9v.633L9.47,77.7l-9.444.179,3.551,2.08-3.551.409c.293,1.092-.616-3.884,0,8.116H10.814l-11.588.921L.239,103.726l9.928,1.985-8.438,1.531,3.45,6.313,14.059.439-19,1.222V119.3H11.827L.239,120.568v1.887c-.1.746,7.872,1.632,11.588,1.632l212.328-.907,33.267,1.229,85.525-1.123,48.818.8,145.676.322,56.845-1.4,6.419.892,58.172.189,164.236.062,1.443-.031c.437-.014,2.862-.109,7.587-.593,3.779-.387,5.391-.666,5.212-.911l.387-2.241Z" transform="translate(0.773 -75.552)" fill="#5b2525"/>
  </g>
</svg>
