<svg xmlns="http://www.w3.org/2000/svg" xmlns:xlink="http://www.w3.org/1999/xlink" width="123.296" height="101.599" viewBox="0 0 123.296 101.599">
  <defs>
    <clipPath id="clip-path">
      <rect id="Rectangle_10320" data-name="Rectangle 10320" width="123.296" height="101.599" transform="translate(0 21)" fill="none"/>
    </clipPath>
  </defs>
  <g id="Group_42595" data-name="Group 42595" transform="translate(0 -9.268)">
    <g id="Group_42595-2" data-name="Group 42595" transform="translate(0 -11.732)" clip-path="url(#clip-path)">
      <path id="Path_209937" data-name="Path 209937" d="M80.579,12.5H61.723a1.735,1.735,0,0,0-1.734,1.734V24.2H24.327V14.234A1.735,1.735,0,0,0,22.593,12.5H3.734A1.735,1.735,0,0,0,2,14.234V34.166A1.735,1.735,0,0,0,3.734,35.9H8.576V67.574A5.218,5.218,0,0,0,13.8,72.793H24.077V86.249a4.37,4.37,0,0,0,4.371,4.371h28.6a4.369,4.369,0,0,0,4.371-4.371V72.793h9.1a5.219,5.219,0,0,0,5.219-5.219V35.9h4.839a1.737,1.737,0,0,0,1.737-1.737V14.234A1.737,1.737,0,0,0,80.579,12.5" transform="translate(2.751 27.227)" fill="#511110"/>
      <path id="Path_209938" data-name="Path 209938" d="M83.33,15.251a1.735,1.735,0,0,1,1.734,1.734V36.918a1.735,1.735,0,0,1-1.734,1.737H78.491V70.325a5.219,5.219,0,0,1-5.219,5.219h-9.1V89A4.369,4.369,0,0,1,59.8,93.372H31.2A4.37,4.37,0,0,1,26.829,89V75.545H16.547a5.218,5.218,0,0,1-5.219-5.219V38.655H6.488a1.736,1.736,0,0,1-1.737-1.737V16.986a1.735,1.735,0,0,1,1.737-1.734H25.344a1.735,1.735,0,0,1,1.734,1.734v9.966H62.74V16.986a1.733,1.733,0,0,1,1.734-1.734Zm0-4.751H64.474a6.492,6.492,0,0,0-6.486,6.486V22.2H31.83V16.986A6.494,6.494,0,0,0,25.344,10.5H6.488A6.5,6.5,0,0,0,0,16.986V36.918a6.5,6.5,0,0,0,6.488,6.488h.088V70.325A9.981,9.981,0,0,0,16.547,80.3h5.531V89A9.133,9.133,0,0,0,31.2,98.123H59.8A9.131,9.131,0,0,0,68.919,89V80.3h4.352a9.981,9.981,0,0,0,9.971-9.971V43.406h.088a6.493,6.493,0,0,0,6.486-6.488V16.986A6.493,6.493,0,0,0,83.33,10.5" transform="translate(0 24.476)" fill="#511110"/>
      <path id="Path_209939" data-name="Path 209939" d="M80.579,12.5H61.721a1.735,1.735,0,0,0-1.734,1.734V24.2H24.327V14.234A1.735,1.735,0,0,0,22.59,12.5H3.734A1.735,1.735,0,0,0,2,14.234V34.166A1.735,1.735,0,0,0,3.734,35.9H8.576V67.574a5.217,5.217,0,0,0,5.217,5.219H24.077V86.249a4.372,4.372,0,0,0,4.371,4.374h28.6a4.372,4.372,0,0,0,4.371-4.374V72.793h9.1a5.218,5.218,0,0,0,5.219-5.219V35.9h4.842a1.735,1.735,0,0,0,1.734-1.737V14.234A1.735,1.735,0,0,0,80.579,12.5M24.671,50.925a4.717,4.717,0,1,1,4.716-4.716,4.717,4.717,0,0,1-4.716,4.716M52.249,61.741a1.326,1.326,0,0,1-1.326,1.326H33.39a1.325,1.325,0,0,1-1.326-1.326V55.006a1.325,1.325,0,0,1,1.326-1.326H50.923a1.326,1.326,0,0,1,1.326,1.326Zm8.574-10.817a4.717,4.717,0,1,1,4.716-4.716,4.715,4.715,0,0,1-4.716,4.716" transform="translate(2.751 27.227)" fill="#75391c"/>
      <path id="Path_209936" data-name="Path 209936" d="M83.385,11.823,63.558.377a2.8,2.8,0,0,0-2.8,0L40.928,11.823a2.8,2.8,0,0,0-1.4,2.429V37.146a2.806,2.806,0,0,0,1.4,2.429l6.554,3.785-1.716,5.506a.509.509,0,0,0,.774.571L51.8,45.852l8.954,5.17a2.8,2.8,0,0,0,2.8,0L83.385,39.575a2.806,2.806,0,0,0,1.4-2.429V14.253a2.8,2.8,0,0,0-1.4-2.429M82.84,35.807a3.187,3.187,0,0,1-1.587,2.752L63.743,48.667a3.179,3.179,0,0,1-3.177,0l-8.826-5.1-3.482,2.466,1.213-3.779-6.411-3.7a3.187,3.187,0,0,1-1.587-2.752V15.591A3.184,3.184,0,0,1,43.06,12.84L60.566,2.732a3.188,3.188,0,0,1,3.177,0L81.253,12.84a3.184,3.184,0,0,1,1.587,2.752Z" transform="translate(36.373 22.901)" fill="#ff7f30"/>
      <path id="Path_209935" data-name="Path 209935" d="M74.531,11.127,59.591,2.5a2.115,2.115,0,0,0-2.112,0L42.535,11.127a2.113,2.113,0,0,0-1.056,1.83V30.209a2.11,2.11,0,0,0,1.056,1.83l14.943,8.629a2.115,2.115,0,0,0,2.112,0l14.94-8.629a2.11,2.11,0,0,0,1.056-1.83V12.957a2.113,2.113,0,0,0-1.056-1.83m-7.51,16.314a1.86,1.86,0,0,1-2.629,2.632l-5.857-5.857L52.677,30.07a1.859,1.859,0,1,1-2.629-2.629L55.9,21.583l-5.855-5.855A1.86,1.86,0,0,1,52.677,13.1l5.857,5.857L64.392,13.1a1.859,1.859,0,1,1,2.629,2.629l-5.857,5.857Z" transform="translate(39.995 27.016)" fill="#fcbf10"/>
    </g>
  </g>
</svg>
