<svg xmlns="http://www.w3.org/2000/svg" xmlns:xlink="http://www.w3.org/1999/xlink" width="64.93" height="55.847" viewBox="0 0 64.93 55.847">
  <defs>
    <clipPath id="clip-path">
      <rect id="Rectangle_11771" data-name="Rectangle 11771" width="64.93" height="55.847" fill="none"/>
    </clipPath>
  </defs>
  <g id="Group_46750" data-name="Group 46750" clip-path="url(#clip-path)">
    <path id="Path_259459" data-name="Path 259459" d="M64.929,43.445V29.8a5.6,5.6,0,0,0-2.789-4.829L50.318,18.142a5.6,5.6,0,0,0-5.577,0L41.8,19.84l-12.121,7h0L17.854,33.662a.913.913,0,0,1-.911,0L5.123,26.838a.912.912,0,0,1-.456-.789V12.4a.913.913,0,0,1,.456-.789L16.943,4.787a.913.913,0,0,1,.911,0l11.821,6.825a.913.913,0,0,1,.456.79v8.785L34.8,18.493V12.4h0a5.6,5.6,0,0,0-2.79-4.829L20.188.745a5.6,5.6,0,0,0-5.577,0L2.79,7.568A5.592,5.592,0,0,0,0,12.4V26.05A5.593,5.593,0,0,0,2.789,30.88L14.61,37.7a5.594,5.594,0,0,0,5.578,0l4.626-2.67,0-.007,15.445-8.916,0,.006,6.816-3.934a.913.913,0,0,1,.911,0l11.822,6.825a.913.913,0,0,1,.456.789V43.446h0a.911.911,0,0,1-.456.788l-11.82,6.824a.914.914,0,0,1-.912,0L35.253,44.234a.913.913,0,0,1-.456-.788v-8.8L30.13,37.345v6.1a5.591,5.591,0,0,0,2.789,4.829L44.74,55.1a5.594,5.594,0,0,0,5.578,0l11.821-6.824a5.6,5.6,0,0,0,2.79-4.832" transform="translate(0 0)" fill="#8246e5"/>
  </g>
</svg>
