<svg id="Group_32751" data-name="Group 32751" xmlns="http://www.w3.org/2000/svg" xmlns:xlink="http://www.w3.org/1999/xlink" width="125.441" height="122.152" viewBox="0 0 125.441 122.152">
  <defs>
    <clipPath id="clip-path">
      <rect id="Rectangle_6834" data-name="Rectangle 6834" width="125.441" height="122.152" fill="none"/>
    </clipPath>
    <clipPath id="clip-path-2">
      <rect id="Rectangle_6833" data-name="Rectangle 6833" width="125.441" height="122.152" transform="translate(0 0)" fill="none"/>
    </clipPath>
    <clipPath id="clip-path-3">
      <rect id="Rectangle_6812" data-name="Rectangle 6812" width="106.4" height="107.249" transform="translate(17.501 13.208)" fill="none"/>
    </clipPath>
    <clipPath id="clip-path-4">
      <rect id="Rectangle_6813" data-name="Rectangle 6813" width="8.838" height="9.85" transform="translate(112.241 109.372)" fill="none"/>
    </clipPath>
    <clipPath id="clip-path-5">
      <rect id="Rectangle_6814" data-name="Rectangle 6814" width="31.719" height="7.652" transform="translate(50.791 112.805)" fill="none"/>
    </clipPath>
    <clipPath id="clip-path-6">
      <rect id="Rectangle_6815" data-name="Rectangle 6815" width="13.603" height="107.261" transform="translate(4.386 2.631)" fill="none"/>
    </clipPath>
    <clipPath id="clip-path-7">
      <rect id="Rectangle_6816" data-name="Rectangle 6816" width="15.422" height="106.766" transform="translate(105.657 3.045)" fill="none"/>
    </clipPath>
    <clipPath id="clip-path-8">
      <rect id="Rectangle_6817" data-name="Rectangle 6817" width="83.68" height="4.497" transform="translate(20.158 3.863)" fill="none"/>
    </clipPath>
    <clipPath id="clip-path-9">
      <rect id="Rectangle_6818" data-name="Rectangle 6818" width="86.052" height="7.256" transform="translate(19.925 103.929)" fill="none"/>
    </clipPath>
    <clipPath id="clip-path-10">
      <rect id="Rectangle_6823" data-name="Rectangle 6823" width="101.085" height="116.504" transform="translate(19.387 1.315)" fill="none"/>
    </clipPath>
    <clipPath id="clip-path-11">
      <rect id="Rectangle_6819" data-name="Rectangle 6819" width="20.421" height="20.199" transform="translate(19.387 97.522)" fill="none"/>
    </clipPath>
    <clipPath id="clip-path-12">
      <rect id="Rectangle_6820" data-name="Rectangle 6820" width="6.683" height="7.242" transform="translate(20.838 1.315)" fill="none"/>
    </clipPath>
    <clipPath id="clip-path-13">
      <rect id="Rectangle_6821" data-name="Rectangle 6821" width="21.349" height="6.869" transform="translate(98.828 4.988)" fill="none"/>
    </clipPath>
    <clipPath id="clip-path-14">
      <rect id="Rectangle_6822" data-name="Rectangle 6822" width="18.013" height="14.199" transform="translate(102.459 103.62)" fill="none"/>
    </clipPath>
    <clipPath id="clip-path-15">
      <rect id="Rectangle_6824" data-name="Rectangle 6824" width="10.697" height="75.401" transform="translate(1.872 20.633)" fill="none"/>
    </clipPath>
    <clipPath id="clip-path-16">
      <rect id="Rectangle_6825" data-name="Rectangle 6825" width="7.611" height="6.744" transform="translate(108.23 6.577)" fill="none"/>
    </clipPath>
    <clipPath id="clip-path-17">
      <rect id="Rectangle_6826" data-name="Rectangle 6826" width="4.069" height="4.361" transform="translate(110.3 7.089)" fill="none"/>
    </clipPath>
    <clipPath id="clip-path-18">
      <rect id="Rectangle_6827" data-name="Rectangle 6827" width="7.863" height="6.834" transform="translate(110.33 101.564)" fill="none"/>
    </clipPath>
    <clipPath id="clip-path-19">
      <rect id="Rectangle_6828" data-name="Rectangle 6828" width="4.461" height="5.05" transform="translate(112.536 102.037)" fill="none"/>
    </clipPath>
    <clipPath id="clip-path-20">
      <rect id="Rectangle_6829" data-name="Rectangle 6829" width="8.122" height="6.525" transform="translate(7.638 5.139)" fill="none"/>
    </clipPath>
    <clipPath id="clip-path-21">
      <rect id="Rectangle_6830" data-name="Rectangle 6830" width="3.995" height="4.391" transform="translate(9.803 5.726)" fill="none"/>
    </clipPath>
    <clipPath id="clip-path-22">
      <rect id="Rectangle_6831" data-name="Rectangle 6831" width="8.253" height="6.608" transform="translate(5.676 101.747)" fill="none"/>
    </clipPath>
    <clipPath id="clip-path-23">
      <rect id="Rectangle_6832" data-name="Rectangle 6832" width="4.391" height="5.092" transform="translate(8.002 102.224)" fill="none"/>
    </clipPath>
  </defs>
  <g id="Group_32749" data-name="Group 32749" clip-path="url(#clip-path)">
    <g id="Group_32748" data-name="Group 32748">
      <g id="Group_32747" data-name="Group 32747" clip-path="url(#clip-path-2)">
        <path id="Path_113478" data-name="Path 113478" d="M1.144,3.741,7.153.209A1.523,1.523,0,0,1,7.92,0H14.7L34.505,1.246l21.961.163L109,.521l10.833,1.085a.942.942,0,0,1,.833.777L122.85,14.9l2.592,90.654L121.8,117.906a1.64,1.64,0,0,1-1.139,1.4l-8.185,1.955-61.142.888-34.159-.615L4.634,120.174A1.92,1.92,0,0,1,2.9,118.683l-2.851-7a1.937,1.937,0,0,1-.023-.747L.751,12.219.394,5.136a1.526,1.526,0,0,1,.75-1.4" fill="#3b1111"/>
        <path id="Path_113479" data-name="Path 113479" d="M1.872,5.171,7.314,1.2l6.913-.119L34.786,2.327l21.194.282,51.476-.888,11.839.772L122.6,19.717l1.3,85.67-3.429,12.242-8.188,1.594-61.752,1.234L17.5,119.951,4.636,118.483l-3.164-7.254.788-98.5Z" fill="#684429"/>
        <path id="Path_113480" data-name="Path 113480" d="M1.872,4.837,7.314,1.2,14.227.915,34.786,2.16l21.194.45,51.476-.888,11.839.706,2.278,12.757,1.557,87.88-2.051,6.308-8.838,2.858-61.451,1.1-33.031-.368L6.5,112.172,2.232,109.05l.813-98.372Z" fill="#835636"/>
        <g id="Group_32686" data-name="Group 32686" opacity="0.2" style="mix-blend-mode: multiply;isolation: isolate">
          <g id="Group_32685" data-name="Group 32685">
            <g id="Group_32684" data-name="Group 32684" clip-path="url(#clip-path-3)">
              <path id="Path_113481" data-name="Path 113481" d="M50.791,113.332l61.45-1.1,8.839-2.858,2.051-6.308-1.756-89.857,1.228,6.51,1.3,85.67-3.429,12.242-8.187,1.593-61.753,1.234-33.031-.5,21.578-3.134Z" fill="#3b1111"/>
            </g>
          </g>
        </g>
        <g id="Group_32689" data-name="Group 32689" opacity="0.2" style="mix-blend-mode: multiply;isolation: isolate">
          <g id="Group_32688" data-name="Group 32688">
            <g id="Group_32687" data-name="Group 32687" clip-path="url(#clip-path-4)">
              <path id="Path_113482" data-name="Path 113482" d="M112.241,112.231l.043,6.992,8.188-1.593.608-8.258Z" fill="#82603f"/>
            </g>
          </g>
        </g>
        <g id="Group_32692" data-name="Group 32692" opacity="0.2" style="mix-blend-mode: multiply;isolation: isolate">
          <g id="Group_32691" data-name="Group 32691">
            <g id="Group_32690" data-name="Group 32690" clip-path="url(#clip-path-5)">
              <path id="Path_113483" data-name="Path 113483" d="M77.172,120.089l5.337-7.283-31.719.526,5.235,7.125Z" fill="#82603f"/>
            </g>
          </g>
        </g>
        <path id="Path_113484" data-name="Path 113484" d="M17.989,5.031,11.7,3.806l-6.04.869-.64,3.7.64,6.268L3.771,105.376l3,4.516h7.289l3.384-1.334-.54-4.941-5.714-5.233,1.6-82.213,5.2-5.039Z" fill="#af8158"/>
        <g id="Group_32695" data-name="Group 32695" opacity="0.2" style="mix-blend-mode: multiply;isolation: isolate">
          <g id="Group_32694" data-name="Group 32694">
            <g id="Group_32693" data-name="Group 32693" clip-path="url(#clip-path-6)">
              <path id="Path_113485" data-name="Path 113485" d="M17.989,3.907,11.7,2.631l-6.04.9-.64,4.72.64,6.384L4.386,105.188l2.387,4.7,7.552-.573,2.521-1.085-.569-4.611L10.568,98.6l1.369-82.434,6.052-5.038Z" fill="#82603f"/>
            </g>
          </g>
        </g>
        <path id="Path_113486" data-name="Path 113486" d="M105.657,5.426l6.289-1.215,6.04.862.64,3.666-.219,5.764,3.287,88.953-3.159,5.28L111.4,110.38l-3.383-1.323.266-9.98,6.2-7.333L111.6,17.376l-5.94-5.9Z" fill="#af8158"/>
        <g id="Group_32698" data-name="Group 32698" opacity="0.2" style="mix-blend-mode: multiply;isolation: isolate">
          <g id="Group_32697" data-name="Group 32697">
            <g id="Group_32696" data-name="Group 32696" clip-path="url(#clip-path-7)">
              <path id="Path_113487" data-name="Path 113487" d="M105.657,4.311l6.289-1.266,6.04.9.64,4.681-1.12,6.363,3.573,88.282-2.544,5.467-7.394,1.076-2.521-1.076.295-9.653,6.136-7.287L111.6,17.376l-5.94-5.9Z" fill="#82603f"/>
            </g>
          </g>
        </g>
        <path id="Path_113488" data-name="Path 113488" d="M20.158,5.077l15.01-.32,18.3.844,22.322.08,27.033-.051.54,2.077-1.606-.355-26.737,1L52.769,7.806,34.236,7.187,20.158,7.154Z" fill="#af8158"/>
        <g id="Group_32701" data-name="Group 32701" opacity="0.2" style="mix-blend-mode: multiply;isolation: isolate">
          <g id="Group_32700" data-name="Group 32700">
            <g id="Group_32699" data-name="Group 32699" clip-path="url(#clip-path-8)">
              <path id="Path_113489" data-name="Path 113489" d="M20.158,4.183l15.01-.32,18.3.844,22.322.08L100,4.387l3.422.427.414,2.512-.478.39-1.606-.355-26.737,1L52.769,7.816,34.236,7.2,20.158,7.163Z" fill="#82603f"/>
            </g>
          </g>
        </g>
        <path id="Path_113490" data-name="Path 113490" d="M19.925,106.255l13.755.256,19.894.106,21.864-.408,29.429-1.033.632,4.275-4.9.427-24.507.763-23.211.425-20.131.119-12.823-.609Z" fill="#af8158"/>
        <g id="Group_32704" data-name="Group 32704" opacity="0.2" style="mix-blend-mode: multiply;isolation: isolate">
          <g id="Group_32703" data-name="Group 32703">
            <g id="Group_32702" data-name="Group 32702" clip-path="url(#clip-path-9)">
              <path id="Path_113491" data-name="Path 113491" d="M19.925,105.351l13.755.256,19.894.106,23.286-.889,22.644-.9,6.059.375.414,4.756-.478.39-4.9.427-24.507.763-23.211.426-20.131.118-12.823-.609Z" fill="#82603f"/>
            </g>
          </g>
        </g>
        <g id="Group_32719" data-name="Group 32719" style="mix-blend-mode: multiply;isolation: isolate">
          <g id="Group_32718" data-name="Group 32718">
            <g id="Group_32717" data-name="Group 32717" clip-path="url(#clip-path-10)">
              <g id="Group_32707" data-name="Group 32707" opacity="0.4" style="mix-blend-mode: multiply;isolation: isolate">
                <g id="Group_32706" data-name="Group 32706">
                  <g id="Group_32705" data-name="Group 32705" clip-path="url(#clip-path-11)">
                    <path id="Path_113492" data-name="Path 113492" d="M19.387,117.721l2.175-4.758,2.08-2.481.67.018,2.411-2.159.044-.828,6.661-5.545,6.38-4.446-7.246,3.913-7.041,5.947v.943l-2.337,2.121-.637-.03-2.138,2.548Z" fill="#584f35"/>
                  </g>
                </g>
              </g>
              <g id="Group_32710" data-name="Group 32710" opacity="0.4" style="mix-blend-mode: multiply;isolation: isolate">
                <g id="Group_32709" data-name="Group 32709">
                  <g id="Group_32708" data-name="Group 32708" clip-path="url(#clip-path-12)">
                    <path id="Path_113493" data-name="Path 113493" d="M20.838,1.315l2.04,2.81.322.887,2.635,2.165.52.09,1.166,1.29L26.63,7.179l-.459,0-1.883-2.2L24.18,4.1,22.206,1.4Z" fill="#584f35"/>
                  </g>
                </g>
              </g>
              <g id="Group_32713" data-name="Group 32713" opacity="0.4" style="mix-blend-mode: multiply;isolation: isolate">
                <g id="Group_32712" data-name="Group 32712">
                  <g id="Group_32711" data-name="Group 32711" clip-path="url(#clip-path-13)">
                    <path id="Path_113494" data-name="Path 113494" d="M98.828,11.451,105,11.016l.662.172,2.967-1.827,9.506-3.226,1.622-1.146.425,2.1-1.771.391-3.442,1.6L109,10.246l-3.216,1.611-.636-.237Z" fill="#584f35"/>
                  </g>
                </g>
              </g>
              <g id="Group_32716" data-name="Group 32716" opacity="0.4" style="mix-blend-mode: multiply;isolation: isolate">
                <g id="Group_32715" data-name="Group 32715">
                  <g id="Group_32714" data-name="Group 32714" clip-path="url(#clip-path-14)">
                    <path id="Path_113495" data-name="Path 113495" d="M102.459,103.62l5.823,2.511.543.46,2.141,2.426,3.4.679,3.268.79s2.331,2.336,2.266,2.319.569,4.824.569,4.824l-.972.19-.256-4.488-2.329-2.612-3.954-.7-1.557.359-1.96-1.008-.619-1.695-.633-.543Z" fill="#584f35"/>
                  </g>
                </g>
              </g>
            </g>
          </g>
        </g>
        <g id="Group_32722" data-name="Group 32722" opacity="0.4" style="mix-blend-mode: multiply;isolation: isolate">
          <g id="Group_32721" data-name="Group 32721">
            <g id="Group_32720" data-name="Group 32720" clip-path="url(#clip-path-15)">
              <path id="Path_113496" data-name="Path 113496" d="M1.872,21.824l.837-.426,2.332-.765.178.274h7.35l-7.414.917L4.967,21.4l-2.288.955L1.872,96.034Z" fill="#584f35"/>
            </g>
          </g>
        </g>
        <g id="Group_32725" data-name="Group 32725" opacity="0.4" style="mix-blend-mode: multiply;isolation: isolate">
          <g id="Group_32724" data-name="Group 32724">
            <g id="Group_32723" data-name="Group 32723" clip-path="url(#clip-path-16)">
              <path id="Path_113497" data-name="Path 113497" d="M111.945,6.577,108.23,8.435l1.008,2.367,3.1,2.519,3.507-2.464-.647-3.944Z" fill="#3b1111"/>
            </g>
          </g>
        </g>
        <path id="Path_113498" data-name="Path 113498" d="M110.394,6.139l-2.164,2.3,1.008,2.368,3.294,1.19,2.432-2.912-1.476-2.386Z" fill="#411818"/>
        <path id="Path_113499" data-name="Path 113499" d="M110.606,6.632l-1.781,1.89.83,1.949,2.711.979,2-2.4-1.215-1.964Z" fill="#2c2c31"/>
        <path id="Path_113500" data-name="Path 113500" d="M110.632,6.918l-1.507,1.568.644,1.574,2.334.8L113.725,8.9l-1-1.651Z" fill="#6c717b"/>
        <path id="Path_113501" data-name="Path 113501" d="M110.731,7.1l-1.287,1.339.55,1.344,1.806-.07,1.16-1.271-.445-1.058Z" fill="#9096a4"/>
        <g id="Group_32728" data-name="Group 32728" opacity="0.4" style="mix-blend-mode: multiply;isolation: isolate">
          <g id="Group_32727" data-name="Group 32727">
            <g id="Group_32726" data-name="Group 32726" clip-path="url(#clip-path-17)">
              <path id="Path_113502" data-name="Path 113502" d="M110.3,10.7l.815-.065.734.131.254.087,1.212-2.11-.593-1.5.432-.162,1.215,1.964-2,2.4Z" fill="#3b1111"/>
            </g>
          </g>
        </g>
        <g id="Group_32731" data-name="Group 32731" opacity="0.4" style="mix-blend-mode: multiply;isolation: isolate">
          <g id="Group_32730" data-name="Group 32730">
            <g id="Group_32729" data-name="Group 32729" clip-path="url(#clip-path-18)">
              <path id="Path_113503" data-name="Path 113503" d="M115.922,101.564l-5.592,1.766,1.059,2.9L113.5,108.4l4.668-1.311.029-3.765Z" fill="#3b1111"/>
            </g>
          </g>
        </g>
        <path id="Path_113504" data-name="Path 113504" d="M112.9,100.875l-2.573,2.454,1.059,2.9,3.486,1.446,2.762-3.012-1.432-3.037Z" fill="#411818"/>
        <path id="Path_113505" data-name="Path 113505" d="M113.106,101.417l-2.141,2.037.888,2.442,2.869,1.191,2.275-2.48-1.172-2.57Z" fill="#2c2c31"/>
        <path id="Path_113506" data-name="Path 113506" d="M113.12,101.726l-1.83,1.7.706,2.03,2.473.975,1.843-2.023-.96-2.223Z" fill="#6c717b"/>
        <path id="Path_113507" data-name="Path 113507" d="M113.217,101.931l-1.581,1.469.616,1.777,1.874.133,1.248-1.22-.251-1.764Z" fill="#9096a4"/>
        <g id="Group_32734" data-name="Group 32734" opacity="0.4" style="mix-blend-mode: multiply;isolation: isolate">
          <g id="Group_32733" data-name="Group 32733">
            <g id="Group_32732" data-name="Group 32732" clip-path="url(#clip-path-19)">
              <path id="Path_113508" data-name="Path 113508" d="M112.536,106.179l.881-.029.783.178.269.107,1.409-2.211-.525-2.035.473-.152,1.172,2.57-2.275,2.48Z" fill="#3b1111"/>
            </g>
          </g>
        </g>
        <g id="Group_32737" data-name="Group 32737" opacity="0.4" style="mix-blend-mode: multiply;isolation: isolate">
          <g id="Group_32736" data-name="Group 32736">
            <g id="Group_32735" data-name="Group 32735" clip-path="url(#clip-path-20)">
              <path id="Path_113509" data-name="Path 113509" d="M11.271,5.266,7.638,7.281,8.746,9.6l2.9,2.061,4.116-2.049L14.23,5.139Z" fill="#3b1111"/>
            </g>
          </g>
        </g>
        <path id="Path_113510" data-name="Path 113510" d="M9.7,4.9,7.639,7.281,8.747,9.6l3.341,1.048,2.306-3.014-1.576-2.32Z" fill="#411818"/>
        <path id="Path_113511" data-name="Path 113511" d="M9.936,5.379l-1.7,1.965.912,1.911,2.751.862,1.9-2.481-1.3-1.91Z" fill="#2c2c31"/>
        <path id="Path_113512" data-name="Path 113512" d="M9.974,5.664,8.535,7.295l.71,1.546,2.366.695,1.538-2.023L12.076,5.906Z" fill="#6c717b"/>
        <path id="Path_113513" data-name="Path 113513" d="M10.08,5.845,8.851,7.238l.607,1.319,1.8-.148,1.1-1.319-.489-1.038Z" fill="#9096a4"/>
        <g id="Group_32740" data-name="Group 32740" opacity="0.4" style="mix-blend-mode: multiply;isolation: isolate">
          <g id="Group_32739" data-name="Group 32739">
            <g id="Group_32738" data-name="Group 32738" clip-path="url(#clip-path-21)">
              <path id="Path_113514" data-name="Path 113514" d="M9.8,9.46l.812-.1.738.1.258.076,1.12-2.16-.655-1.47.424-.18,1.3,1.91-1.9,2.481Z" fill="#3b1111"/>
            </g>
          </g>
        </g>
        <g id="Group_32743" data-name="Group 32743" opacity="0.4" style="mix-blend-mode: multiply;isolation: isolate">
          <g id="Group_32742" data-name="Group 32742">
            <g id="Group_32741" data-name="Group 32741" clip-path="url(#clip-path-22)">
              <path id="Path_113515" data-name="Path 113515" d="M11.188,101.747l-5.512,2L6.857,106.6l1.9,1.75,5.175-.458-.7-4.815Z" fill="#3b1111"/>
            </g>
          </g>
        </g>
        <path id="Path_113516" data-name="Path 113516" d="M8.142,101.189l-2.466,2.563L6.857,106.6l3.544,1.3,2.632-3.128L11.474,101.8Z" fill="#411818"/>
        <path id="Path_113517" data-name="Path 113517" d="M8.369,101.721l-2.052,2.127.991,2.4,2.917,1.066,2.167-2.575-1.28-2.517Z" fill="#2c2c31"/>
        <path id="Path_113518" data-name="Path 113518" d="M8.4,102.029,6.641,103.81l.791,2,2.512.868,1.756-2.1L10.646,102.4Z" fill="#6c717b"/>
        <path id="Path_113519" data-name="Path 113519" d="M8.5,102.23l-1.517,1.535.691,1.75,1.878.052,1.195-1.273-.326-1.751Z" fill="#9096a4"/>
        <g id="Group_32746" data-name="Group 32746" opacity="0.4" style="mix-blend-mode: multiply;isolation: isolate">
          <g id="Group_32745" data-name="Group 32745">
            <g id="Group_32744" data-name="Group 32744" clip-path="url(#clip-path-23)">
              <path id="Path_113520" data-name="Path 113520" d="M8,106.5l.878-.067.791.145.273.094,1.314-2.268-.612-2.012.466-.172,1.281,2.517-2.167,2.576Z" fill="#3b1111"/>
            </g>
          </g>
        </g>
      </g>
    </g>
  </g>
</svg>
