<svg xmlns="http://www.w3.org/2000/svg" xmlns:xlink="http://www.w3.org/1999/xlink" width="43.441" height="58.243" viewBox="0 0 43.441 58.243">
  <defs>
    <clipPath id="clip-path">
      <rect id="Rectangle_11774" data-name="Rectangle 11774" width="43.441" height="58.243" fill="none"/>
    </clipPath>
  </defs>
  <g id="Group_46756" data-name="Group 46756" clip-path="url(#clip-path)">
    <path id="Path_259462" data-name="Path 259462" d="M.88,74.035c-1,0-.986,0-.741-.989C1.266,68.46,2.476,63.9,3.847,59.376a26.153,26.153,0,0,1,.831-2.586,4.2,4.2,0,0,0,.1-2.738,85.5,85.5,0,0,1-1.54-8.978,1.2,1.2,0,0,1,.227-.89c2.926-4.22,5.97-8.351,9.259-12.3a2.413,2.413,0,0,1,1.325-.824c4.138-1.041,8.332-1.787,12.549-2.414.457-.068.915-.125,1.372-.183.162-.02.341-.031.423.142.073.155-.067.264-.154.371-1.126,1.373-2.272,2.73-3.38,4.117A141.87,141.87,0,0,0,11.833,52.369,139.39,139.39,0,0,0,4.267,67.8C3.471,69.757,2.635,71.7,2,73.713a.4.4,0,0,1-.426.322c-.231,0-.462,0-.694,0" transform="translate(0 -15.792)" fill="#02cf98"/>
    <path id="Path_259463" data-name="Path 259463" d="M53.139,16.191c-.073-1.636-.048-3.184-.035-4.731.008-1.046-.407-1.417-1.44-1.311A122.869,122.869,0,0,0,37.1,12.492c-.142.032-.284.1-.376-.063-.1-.185.045-.291.152-.409,2.422-2.649,4.863-5.279,7.432-7.787.547-.534,1.115-1.047,1.644-1.6A6.188,6.188,0,0,1,49,1.095,25.053,25.053,0,0,1,55.868,0a16,16,0,0,1,3.379.414,5.021,5.021,0,0,1,3.845,3.918,20.884,20.884,0,0,1,.416,8.977,2.2,2.2,0,0,1-.545,1.137A125.829,125.829,0,0,0,54.19,25.631c-.093.134-.156.347-.4.282s-.186-.267-.2-.438c-.226-3.121-.423-6.243-.456-9.284" transform="translate(-20.361 0)" fill="#02cf98"/>
    <path id="Path_259464" data-name="Path 259464" d="M42.943,47.057a.781.781,0,0,1-.183.588c-1.935,3.208-3.883,6.41-5.717,9.678-.3.526-.612,1.043-.863,1.589a1.685,1.685,0,0,1-1.14.955c-3.766,1.108-7.472,2.394-11.132,3.811-.91.352-1.814.72-2.723,1.077-.126.049-.271.151-.393.017-.138-.151-.022-.3.049-.438,1.376-2.708,2.731-5.425,4.214-8.077a142.182,142.182,0,0,1,9.561-14.869c2.2-2.992,4.538-5.874,6.953-8.695.1-.121.186-.294.38-.209s.171.29.173.465c.023,3.167.22,6.326.464,9.482q.179,2.313.357,4.626" transform="translate(-11.503 -18.015)" fill="#02cf98"/>
    <path id="Path_259465" data-name="Path 259465" d="M14.825,110.715c-.275-.065-.186-.256-.116-.432.339-.857.718-1.7,1.012-2.572a2.591,2.591,0,0,1,1.6-1.564c2.873-1.28,5.846-2.284,8.814-3.306.1-.033.2-.115.291-.011a.29.29,0,0,1,.013.348c-.39.777-.771,1.558-1.182,2.324a1.311,1.311,0,0,1-.624.484c-3.086,1.519-6.232,2.917-9.288,4.5-.157.081-.324.144-.518.229" transform="translate(-8.124 -57.04)" fill="#02cf98"/>
  </g>
</svg>
