<svg id="Group_21918" data-name="Group 21918" xmlns="http://www.w3.org/2000/svg" xmlns:xlink="http://www.w3.org/1999/xlink" width="45.73" height="37.524" viewBox="0 0 45.73 37.524">
  <defs>
    <clipPath id="clip-path">
      <rect id="Rectangle_1564" data-name="Rectangle 1564" width="45.73" height="37.524" transform="translate(0 0)" fill="none"/>
    </clipPath>
  </defs>
  <g id="Group_21917" data-name="Group 21917" clip-path="url(#clip-path)">
    <path id="Path_39714" data-name="Path 39714" d="M43.762,13.243l-8.348-5.3a2.044,2.044,0,0,0-.348-.179,2.136,2.136,0,0,0-.816-.933L24.4.687a4.948,4.948,0,0,0-5.945.7L13.643,6.127a2.153,2.153,0,0,0-.522.826,2.159,2.159,0,0,0-.925.521L1.4,17.711A4.336,4.336,0,0,0,.022,21.3,4.177,4.177,0,0,0,2,24.436L7.869,28.09a2.157,2.157,0,0,0,1.03.322,2.15,2.15,0,0,0,.713.8L20.87,36.747a4.67,4.67,0,0,0,2.723.775,4.928,4.928,0,0,0,3.3-1.35l7.4-7.117a2.146,2.146,0,0,0,.47-.67,2.123,2.123,0,0,0,.741-.439l8.829-8a4.342,4.342,0,0,0,1.384-3.575,4.173,4.173,0,0,0-1.949-3.131" fill="#511110"/>
    <path id="Path_39715" data-name="Path 39715" d="M3.13,22.237,8.995,25.89l7.526-6.2,7-.647-.254-3.984-9.6-6.4L2.872,18.9a2.064,2.064,0,0,0,.258,3.341" fill="#fdeccd"/>
    <path id="Path_39716" data-name="Path 39716" d="M16.287,8.086,16.144,6.3l3.814-3.753a2.75,2.75,0,0,1,3.3-.41l8.626,5.379,0,1.472-7.862,4.6Z" fill="#fdeccd"/>
    <path id="Path_39717" data-name="Path 39717" d="M17.527,21.418l6.873-.864L31.981,26.5l.1,1.26-6.694,6.488a2.74,2.74,0,0,1-3.333.338L12.011,27.857l-.092-1.746Z" fill="#fdeccd"/>
    <path id="Path_39718" data-name="Path 39718" d="M25.378,19.027l-.115-4.08,8.986-5.569L42.6,14.684a2.064,2.064,0,0,1,.24,3.331l-8.794,7.964Z" fill="#fdeccd"/>
    <path id="Path_39719" data-name="Path 39719" d="M23.521,19.047l-.083-1.293-7.058.587L9.166,24.317,3.3,20.665a2.059,2.059,0,0,1-.9-1.136,2.009,2.009,0,0,0,.726,2.708L8.995,25.89l7.526-6.2Z" fill="#e7c78a"/>
    <path id="Path_39720" data-name="Path 39720" d="M24.021,13.588l7.863-4.6V7.518l-7.849,4.435L16.144,6.3l.143,1.785Z" fill="#e7c78a"/>
    <path id="Path_39721" data-name="Path 39721" d="M21.893,32.814l-9.974-6.7.092,1.747,10.047,6.728a2.738,2.738,0,0,0,3.333-.338l6.693-6.488-.1-1.26-6.754,5.976a2.738,2.738,0,0,1-3.333.338" fill="#e7c78a"/>
    <path id="Path_39722" data-name="Path 39722" d="M43.011,16.442l-8.857,7.77-8.6-6.758-.286-2.507.115,4.079,8.668,6.953,8.794-7.965a2.149,2.149,0,0,0,.641-2.208,2.4,2.4,0,0,1-.47.636" fill="#e7c78a"/>
  </g>
</svg>
