<svg id="Group_21274" data-name="Group 21274" xmlns="http://www.w3.org/2000/svg" xmlns:xlink="http://www.w3.org/1999/xlink" width="84.721" height="82.499" viewBox="0 0 84.721 82.499">
  <defs>
    <clipPath id="clip-path">
      <rect id="Rectangle_1382" data-name="Rectangle 1382" width="84.721" height="82.499" fill="none"/>
    </clipPath>
    <clipPath id="clip-path-3">
      <rect id="Rectangle_1360" data-name="Rectangle 1360" width="71.861" height="72.434" fill="none"/>
    </clipPath>
    <clipPath id="clip-path-4">
      <rect id="Rectangle_1361" data-name="Rectangle 1361" width="5.969" height="6.653" fill="none"/>
    </clipPath>
    <clipPath id="clip-path-5">
      <rect id="Rectangle_1362" data-name="Rectangle 1362" width="21.422" height="5.168" fill="none"/>
    </clipPath>
    <clipPath id="clip-path-6">
      <rect id="Rectangle_1363" data-name="Rectangle 1363" width="9.187" height="72.442" fill="none"/>
    </clipPath>
    <clipPath id="clip-path-7">
      <rect id="Rectangle_1364" data-name="Rectangle 1364" width="10.416" height="72.108" fill="none"/>
    </clipPath>
    <clipPath id="clip-path-8">
      <rect id="Rectangle_1365" data-name="Rectangle 1365" width="56.516" height="3.037" fill="none"/>
    </clipPath>
    <clipPath id="clip-path-9">
      <rect id="Rectangle_1366" data-name="Rectangle 1366" width="58.118" height="4.9" fill="none"/>
    </clipPath>
    <clipPath id="clip-path-10">
      <rect id="Rectangle_1371" data-name="Rectangle 1371" width="68.272" height="78.684" fill="none"/>
    </clipPath>
    <clipPath id="clip-path-11">
      <rect id="Rectangle_1367" data-name="Rectangle 1367" width="13.792" height="13.642" fill="none"/>
    </clipPath>
    <clipPath id="clip-path-12">
      <rect id="Rectangle_1368" data-name="Rectangle 1368" width="4.514" height="4.891" fill="none"/>
    </clipPath>
    <clipPath id="clip-path-13">
      <rect id="Rectangle_1369" data-name="Rectangle 1369" width="14.419" height="4.639" fill="none"/>
    </clipPath>
    <clipPath id="clip-path-14">
      <rect id="Rectangle_1370" data-name="Rectangle 1370" width="12.166" height="9.589" fill="none"/>
    </clipPath>
    <clipPath id="clip-path-15">
      <rect id="Rectangle_1372" data-name="Rectangle 1372" width="7.225" height="50.924" fill="none"/>
    </clipPath>
    <clipPath id="clip-path-16">
      <rect id="Rectangle_1373" data-name="Rectangle 1373" width="5.14" height="4.555" fill="none"/>
    </clipPath>
    <clipPath id="clip-path-17">
      <rect id="Rectangle_1374" data-name="Rectangle 1374" width="2.748" height="2.945" fill="none"/>
    </clipPath>
    <clipPath id="clip-path-18">
      <rect id="Rectangle_1375" data-name="Rectangle 1375" width="5.311" height="4.615" fill="none"/>
    </clipPath>
    <clipPath id="clip-path-19">
      <rect id="Rectangle_1376" data-name="Rectangle 1376" width="3.013" height="3.41" fill="none"/>
    </clipPath>
    <clipPath id="clip-path-20">
      <rect id="Rectangle_1377" data-name="Rectangle 1377" width="5.486" height="4.407" fill="none"/>
    </clipPath>
    <clipPath id="clip-path-21">
      <rect id="Rectangle_1378" data-name="Rectangle 1378" width="2.698" height="2.966" fill="none"/>
    </clipPath>
    <clipPath id="clip-path-22">
      <rect id="Rectangle_1379" data-name="Rectangle 1379" width="5.574" height="4.463" fill="none"/>
    </clipPath>
    <clipPath id="clip-path-23">
      <rect id="Rectangle_1380" data-name="Rectangle 1380" width="2.965" height="3.439" fill="none"/>
    </clipPath>
  </defs>
  <g id="Group_21339" data-name="Group 21339" clip-path="url(#clip-path)">
    <g id="Group_21338" data-name="Group 21338" transform="translate(0 0)">
      <g id="Group_21337" data-name="Group 21337" clip-path="url(#clip-path)">
        <path id="Path_39240" data-name="Path 39240" d="M.773,2.527,4.831.141A1.028,1.028,0,0,1,5.349,0H9.926L23.3.842l14.832.11,35.481-.6,7.316.733a.636.636,0,0,1,.563.525l1.475,8.451,1.751,61.226-2.459,8.345a1.108,1.108,0,0,1-.769.948L75.965,81.9l-41.294.6L11.6,82.084,3.13,81.163a1.3,1.3,0,0,1-1.171-1.007L.033,75.425a1.308,1.308,0,0,1-.016-.5L.507,8.253.266,3.469a1.031,1.031,0,0,1,.507-.942" transform="translate(0 0)" fill="#3b1111"/>
        <path id="Path_39241" data-name="Path 39241" d="M1.742,3.844,5.418,1.163l4.669-.08,13.885.841,14.314.19,34.766-.6,8,.521,2.234,11.633.877,57.86L81.843,79.8l-5.53,1.077-41.706.833L12.3,81.364l-8.689-.991-2.137-4.9L2,8.946Z" transform="translate(-0.478 -0.351)" fill="#684429"/>
        <path id="Path_39242" data-name="Path 39242" d="M1.872,3.563,5.548,1.108,10.217.915,24.1,1.755l14.314.3,34.766-.6,8,.477,1.539,8.616L83.768,69.9l-1.385,4.26-5.969,1.93-41.5.744L12.6,76.59l-7.608-.535L2.115,73.947,2.664,7.508Z" transform="translate(-0.608 -0.297)" fill="#835636"/>
        <g id="Group_21276" data-name="Group 21276" transform="translate(11.82 8.92)" opacity="0.2" style="mix-blend-mode: multiply;isolation: isolate">
          <g id="Group_21275" data-name="Group 21275">
            <g id="Group_21274-2" data-name="Group 21274" clip-path="url(#clip-path-3)">
              <path id="Path_39243" data-name="Path 39243" d="M39.984,80.829l41.5-.744,5.97-1.93,1.385-4.26L87.655,13.208l.829,4.4.877,57.86-2.316,8.268-5.529,1.076-41.707.833L17.5,85.3l14.573-2.117Z" transform="translate(-17.501 -13.208)" fill="#3b1111"/>
            </g>
          </g>
        </g>
        <g id="Group_21279" data-name="Group 21279" transform="translate(75.806 73.868)" opacity="0.2" style="mix-blend-mode: multiply;isolation: isolate">
          <g id="Group_21278" data-name="Group 21278">
            <g id="Group_21277" data-name="Group 21277" clip-path="url(#clip-path-4)">
              <path id="Path_39244" data-name="Path 39244" d="M112.241,111.3l.029,4.722,5.53-1.076.411-5.577Z" transform="translate(-112.241 -109.372)" fill="#82603f"/>
            </g>
          </g>
        </g>
        <g id="Group_21282" data-name="Group 21282" transform="translate(34.303 76.186)" opacity="0.2" style="mix-blend-mode: multiply;isolation: isolate">
          <g id="Group_21281" data-name="Group 21281">
            <g id="Group_21280" data-name="Group 21280" clip-path="url(#clip-path-5)">
              <path id="Path_39245" data-name="Path 39245" d="M68.608,117.725l3.6-4.919-21.423.355,3.536,4.812Z" transform="translate(-50.79 -112.805)" fill="#82603f"/>
            </g>
          </g>
        </g>
        <path id="Path_39246" data-name="Path 39246" d="M13.374,4.634,9.126,3.806l-4.079.587-.432,2.5.432,4.233L3.771,72.4,5.8,75.455h4.923l2.286-.9-.365-3.337L8.783,67.682,9.864,12.157l3.51-3.4Z" transform="translate(-1.224 -1.236)" fill="#af8158"/>
        <g id="Group_21285" data-name="Group 21285" transform="translate(2.962 1.777)" opacity="0.2" style="mix-blend-mode: multiply;isolation: isolate">
          <g id="Group_21284" data-name="Group 21284">
            <g id="Group_21283" data-name="Group 21283" clip-path="url(#clip-path-6)">
              <path id="Path_39247" data-name="Path 39247" d="M13.573,3.493,9.326,2.631l-4.079.611L4.814,6.43l.432,4.312L4.386,71.9,6,75.073l5.1-.387,1.7-.733-.384-3.114L8.561,67.45l.925-55.674,4.087-3.4Z" transform="translate(-4.386 -2.631)" fill="#82603f"/>
            </g>
          </g>
        </g>
        <path id="Path_39248" data-name="Path 39248" d="M105.657,5.031l4.247-.821,4.079.582.432,2.476-.148,3.893,2.22,60.077L114.355,74.8l-4.817,1.11-2.285-.894.18-6.74,4.185-4.953L109.669,13.1l-4.012-3.984Z" transform="translate(-34.298 -1.367)" fill="#af8158"/>
        <g id="Group_21288" data-name="Group 21288" transform="translate(71.359 2.057)" opacity="0.2" style="mix-blend-mode: multiply;isolation: isolate">
          <g id="Group_21287" data-name="Group 21287">
            <g id="Group_21286" data-name="Group 21286" clip-path="url(#clip-path-7)">
              <path id="Path_39249" data-name="Path 39249" d="M105.657,3.9l4.247-.855,4.079.606.432,3.161-.756,4.3,2.413,59.624-1.718,3.692-4.994.727-1.7-.727.2-6.519L112,62.985l-2.333-50.262L105.657,8.74Z" transform="translate(-105.657 -3.045)" fill="#82603f"/>
            </g>
          </g>
        </g>
        <path id="Path_39250" data-name="Path 39250" d="M20.158,4.973,30.3,4.757l12.357.57,15.076.054,18.258-.034.365,1.4-1.085-.24-18.058.675L42.183,6.816,29.666,6.4l-9.508-.022Z" transform="translate(-6.544 -1.544)" fill="#af8158"/>
        <g id="Group_21291" data-name="Group 21291" transform="translate(13.615 2.609)" opacity="0.2" style="mix-blend-mode: multiply;isolation: isolate">
          <g id="Group_21290" data-name="Group 21290">
            <g id="Group_21289" data-name="Group 21289" clip-path="url(#clip-path-8)">
              <path id="Path_39251" data-name="Path 39251" d="M20.158,4.079,30.3,3.863l12.357.57,15.076.054,16.354-.27,2.311.288.28,1.7-.323.263-1.085-.24L57.209,6.9,42.183,6.533,29.666,6.114l-9.508-.022Z" transform="translate(-20.158 -3.863)" fill="#82603f"/>
            </g>
          </g>
        </g>
        <path id="Path_39252" data-name="Path 39252" d="M19.925,105.9l9.29.173,13.436.072,14.767-.276,19.876-.7.427,2.887-3.311.288-16.552.515-15.676.287-13.6.08-8.66-.411Z" transform="translate(-6.468 -34.142)" fill="#af8158"/>
        <g id="Group_21294" data-name="Group 21294" transform="translate(13.457 70.191)" opacity="0.2" style="mix-blend-mode: multiply;isolation: isolate">
          <g id="Group_21293" data-name="Group 21293">
            <g id="Group_21292" data-name="Group 21292" clip-path="url(#clip-path-9)">
              <path id="Path_39253" data-name="Path 39253" d="M19.925,104.89l9.29.173,13.436.072,15.727-.6,15.293-.6,4.092.253.28,3.212-.323.263-3.311.288-16.552.515-15.676.288-13.6.08-8.66-.411Z" transform="translate(-19.925 -103.929)" fill="#82603f"/>
            </g>
          </g>
        </g>
        <g id="Group_21309" data-name="Group 21309" transform="translate(13.093 0.888)" style="mix-blend-mode: multiply;isolation: isolate">
          <g id="Group_21308" data-name="Group 21308">
            <g id="Group_21307" data-name="Group 21307" clip-path="url(#clip-path-10)">
              <g id="Group_21297" data-name="Group 21297" transform="translate(0 64.976)" opacity="0.4" style="mix-blend-mode: multiply;isolation: isolate">
                <g id="Group_21296" data-name="Group 21296">
                  <g id="Group_21295" data-name="Group 21295" clip-path="url(#clip-path-11)">
                    <path id="Path_39254" data-name="Path 39254" d="M19.387,111.164l1.469-3.213,1.4-1.676.453.012,1.628-1.458.03-.559,4.5-3.745,4.309-3-4.894,2.643-4.755,4.016v.637l-1.578,1.432-.43-.02-1.444,1.721Z" transform="translate(-19.387 -97.522)" fill="#584f35"/>
                  </g>
                </g>
              </g>
              <g id="Group_21300" data-name="Group 21300" transform="translate(0.98)" opacity="0.4" style="mix-blend-mode: multiply;isolation: isolate">
                <g id="Group_21299" data-name="Group 21299">
                  <g id="Group_21298" data-name="Group 21298" clip-path="url(#clip-path-12)">
                    <path id="Path_39255" data-name="Path 39255" d="M20.838,1.315l1.378,1.9.217.6,1.78,1.462.351.061.787.871-.6-.931-.31,0L23.168,3.787,23.1,3.194,21.762,1.371Z" transform="translate(-20.838 -1.315)" fill="#584f35"/>
                  </g>
                </g>
              </g>
              <g id="Group_21303" data-name="Group 21303" transform="translate(53.654 2.481)" opacity="0.4" style="mix-blend-mode: multiply;isolation: isolate">
                <g id="Group_21302" data-name="Group 21302">
                  <g id="Group_21301" data-name="Group 21301" clip-path="url(#clip-path-13)">
                    <path id="Path_39256" data-name="Path 39256" d="M98.828,9.353l4.165-.294.447.116,2-1.234,6.42-2.179,1.1-.774.287,1.419-1.2.264-2.325,1.08-4.027.787-2.172,1.088-.43-.16Z" transform="translate(-98.828 -4.988)" fill="#584f35"/>
                  </g>
                </g>
              </g>
              <g id="Group_21306" data-name="Group 21306" transform="translate(56.106 69.095)" opacity="0.4" style="mix-blend-mode: multiply;isolation: isolate">
                <g id="Group_21305" data-name="Group 21305">
                  <g id="Group_21304" data-name="Group 21304" clip-path="url(#clip-path-14)">
                    <path id="Path_39257" data-name="Path 39257" d="M102.459,103.62l3.933,1.7.367.311,1.446,1.638,2.3.459,2.207.534s1.574,1.578,1.53,1.566.384,3.258.384,3.258l-.656.128-.173-3.031-1.573-1.764-2.67-.471-1.052.242-1.324-.681-.418-1.145-.428-.367Z" transform="translate(-102.459 -103.62)" fill="#584f35"/>
                  </g>
                </g>
              </g>
            </g>
          </g>
        </g>
        <g id="Group_21312" data-name="Group 21312" transform="translate(1.264 13.935)" opacity="0.4" style="mix-blend-mode: multiply;isolation: isolate">
          <g id="Group_21311" data-name="Group 21311">
            <g id="Group_21310" data-name="Group 21310" clip-path="url(#clip-path-15)">
              <path id="Path_39258" data-name="Path 39258" d="M1.872,21.437l.565-.288,1.575-.517.12.185H9.1l-5.007.619-.127-.289-1.545.645L1.872,71.557Z" transform="translate(-1.872 -20.633)" fill="#584f35"/>
            </g>
          </g>
        </g>
        <g id="Group_21315" data-name="Group 21315" transform="translate(73.097 4.442)" opacity="0.4" style="mix-blend-mode: multiply;isolation: isolate">
          <g id="Group_21314" data-name="Group 21314">
            <g id="Group_21313" data-name="Group 21313" clip-path="url(#clip-path-16)">
              <path id="Path_39259" data-name="Path 39259" d="M110.739,6.577,108.23,7.832l.681,1.6,2.091,1.7,2.369-1.664L112.934,6.8Z" transform="translate(-108.23 -6.577)" fill="#3b1111"/>
            </g>
          </g>
        </g>
        <path id="Path_39260" data-name="Path 39260" d="M109.691,6.139l-1.462,1.55.681,1.6,2.225.8,1.643-1.967-1-1.611Z" transform="translate(-35.133 -1.993)" fill="#411818"/>
        <path id="Path_39261" data-name="Path 39261" d="M110.028,6.632l-1.2,1.276.561,1.316,1.831.661,1.352-1.619-.821-1.326Z" transform="translate(-35.326 -2.153)" fill="#2c2c31"/>
        <path id="Path_39262" data-name="Path 39262" d="M110.143,6.918l-1.018,1.059.435,1.063,1.576.538,1.1-1.32-.677-1.115Z" transform="translate(-35.424 -2.246)" fill="#6c717b"/>
        <path id="Path_39263" data-name="Path 39263" d="M110.313,7.1l-.869.9.371.908,1.22-.047.783-.858-.3-.715Z" transform="translate(-35.527 -2.306)" fill="#9096a4"/>
        <g id="Group_21318" data-name="Group 21318" transform="translate(74.495 4.788)" opacity="0.4" style="mix-blend-mode: multiply;isolation: isolate">
          <g id="Group_21317" data-name="Group 21317">
            <g id="Group_21316" data-name="Group 21316" clip-path="url(#clip-path-17)">
              <path id="Path_39264" data-name="Path 39264" d="M110.3,9.53l.55-.044.5.088.172.059.819-1.425-.4-1.01.292-.109.821,1.326-1.352,1.62Z" transform="translate(-110.3 -7.089)" fill="#3b1111"/>
            </g>
          </g>
        </g>
        <g id="Group_21321" data-name="Group 21321" transform="translate(74.515 68.594)" opacity="0.4" style="mix-blend-mode: multiply;isolation: isolate">
          <g id="Group_21320" data-name="Group 21320">
            <g id="Group_21319" data-name="Group 21319" clip-path="url(#clip-path-18)">
              <path id="Path_39265" data-name="Path 39265" d="M114.107,101.564l-3.777,1.193.715,1.959,1.423,1.464,3.153-.885.02-2.543Z" transform="translate(-110.33 -101.564)" fill="#3b1111"/>
            </g>
          </g>
        </g>
        <path id="Path_39266" data-name="Path 39266" d="M112.067,100.875l-1.738,1.657.715,1.96,2.354.977,1.865-2.034-.967-2.051Z" transform="translate(-35.815 -32.746)" fill="#411818"/>
        <path id="Path_39267" data-name="Path 39267" d="M112.411,101.417l-1.446,1.376.6,1.649,1.938.8,1.536-1.675-.792-1.736Z" transform="translate(-36.021 -32.922)" fill="#2c2c31"/>
        <path id="Path_39268" data-name="Path 39268" d="M112.526,101.726l-1.236,1.151.477,1.371,1.67.658,1.245-1.366-.648-1.5Z" transform="translate(-36.126 -33.022)" fill="#6c717b"/>
        <path id="Path_39269" data-name="Path 39269" d="M112.7,101.931l-1.068.992.416,1.2,1.266.09.843-.824-.17-1.191Z" transform="translate(-36.239 -33.089)" fill="#9096a4"/>
        <g id="Group_21324" data-name="Group 21324" transform="translate(76.005 68.914)" opacity="0.4" style="mix-blend-mode: multiply;isolation: isolate">
          <g id="Group_21323" data-name="Group 21323">
            <g id="Group_21322" data-name="Group 21322" clip-path="url(#clip-path-19)">
              <path id="Path_39270" data-name="Path 39270" d="M112.536,104.835l.6-.02.529.12.182.072.952-1.493-.355-1.374.319-.1.792,1.736-1.537,1.675Z" transform="translate(-112.536 -102.037)" fill="#3b1111"/>
            </g>
          </g>
        </g>
        <g id="Group_21327" data-name="Group 21327" transform="translate(5.159 3.471)" opacity="0.4" style="mix-blend-mode: multiply;isolation: isolate">
          <g id="Group_21326" data-name="Group 21326">
            <g id="Group_21325" data-name="Group 21325" clip-path="url(#clip-path-20)">
              <path id="Path_39271" data-name="Path 39271" d="M10.092,5.225,7.638,6.586l.748,1.568,1.958,1.392,2.78-1.384L12.09,5.139Z" transform="translate(-7.638 -5.139)" fill="#3b1111"/>
            </g>
          </g>
        </g>
        <path id="Path_39272" data-name="Path 39272" d="M9.032,4.9,7.639,6.507l.748,1.568,2.256.708L12.2,6.747,11.136,5.18Z" transform="translate(-2.48 -1.589)" fill="#411818"/>
        <path id="Path_39273" data-name="Path 39273" d="M9.384,5.379,8.237,6.706,8.853,8l1.858.582L11.993,6.9l-.877-1.29Z" transform="translate(-2.674 -1.746)" fill="#2c2c31"/>
        <path id="Path_39274" data-name="Path 39274" d="M9.506,5.664l-.972,1.1.48,1.044,1.6.469,1.039-1.366-.725-1.085Z" transform="translate(-2.77 -1.838)" fill="#6c717b"/>
        <path id="Path_39275" data-name="Path 39275" d="M9.681,5.845l-.83.941.41.891,1.216-.1.746-.891-.33-.7Z" transform="translate(-2.873 -1.897)" fill="#9096a4"/>
        <g id="Group_21330" data-name="Group 21330" transform="translate(6.621 3.867)" opacity="0.4" style="mix-blend-mode: multiply;isolation: isolate">
          <g id="Group_21329" data-name="Group 21329">
            <g id="Group_21328" data-name="Group 21328" clip-path="url(#clip-path-21)">
              <path id="Path_39276" data-name="Path 39276" d="M9.8,8.248l.548-.068.5.068.174.051.756-1.459-.442-.993.286-.122.877,1.29L11.219,8.692Z" transform="translate(-9.803 -5.726)" fill="#3b1111"/>
            </g>
          </g>
        </g>
        <g id="Group_21333" data-name="Group 21333" transform="translate(3.834 68.718)" opacity="0.4" style="mix-blend-mode: multiply;isolation: isolate">
          <g id="Group_21332" data-name="Group 21332">
            <g id="Group_21331" data-name="Group 21331" clip-path="url(#clip-path-22)">
              <path id="Path_39277" data-name="Path 39277" d="M9.4,101.747,5.676,103.1l.8,1.928,1.281,1.182,3.5-.309-.471-3.252Z" transform="translate(-5.676 -101.747)" fill="#3b1111"/>
            </g>
          </g>
        </g>
        <path id="Path_39278" data-name="Path 39278" d="M7.342,101.189,5.676,102.92l.8,1.927,2.394.875,1.778-2.113L9.592,101.6Z" transform="translate(-1.843 -32.848)" fill="#411818"/>
        <path id="Path_39279" data-name="Path 39279" d="M7.7,101.721l-1.386,1.437.669,1.622,1.97.72,1.464-1.739-.864-1.7Z" transform="translate(-2.051 -33.021)" fill="#2c2c31"/>
        <path id="Path_39280" data-name="Path 39280" d="M7.826,102.029l-1.185,1.2.534,1.349,1.7.586,1.186-1.419-.712-1.472Z" transform="translate(-2.156 -33.121)" fill="#6c717b"/>
        <path id="Path_39281" data-name="Path 39281" d="M8.009,102.229l-1.025,1.037.467,1.182,1.268.035.807-.86-.22-1.183Z" transform="translate(-2.267 -33.186)" fill="#9096a4"/>
        <g id="Group_21336" data-name="Group 21336" transform="translate(5.404 69.04)" opacity="0.4" style="mix-blend-mode: multiply;isolation: isolate">
          <g id="Group_21335" data-name="Group 21335">
            <g id="Group_21334" data-name="Group 21334" clip-path="url(#clip-path-23)">
              <path id="Path_39282" data-name="Path 39282" d="M8,105.114l.593-.045.534.1.184.063L10.2,103.7l-.413-1.359.315-.116.865,1.7L9.5,105.663Z" transform="translate(-8.002 -102.224)" fill="#3b1111"/>
            </g>
          </g>
        </g>
        <path id="Path_39283" data-name="Path 39283" d="M74,68.409H32.658V33.837a1.5,1.5,0,0,0-1.5-1.5H28.581a1.5,1.5,0,0,0-1.5,1.5V71.692a1.5,1.5,0,0,0,1.5,1.5H73.72a1.5,1.5,0,0,0,1.5-1.5v-1.78A1.482,1.482,0,0,0,74,68.409" transform="translate(-8.79 -10.496)" fill="#3a1e16"/>
        <path id="Path_39284" data-name="Path 39284" d="M44.821,61.229,41.7,58.853V56.4l7.88-7.907a1.962,1.962,0,0,1,2.92-.228l4.589,4.4,9.133-12.7a1.963,1.963,0,0,1,2.954-.269l8.038,5.281v2.452L74.49,50.256l-6.406-6.163-9.131,12.7a1.963,1.963,0,0,1-2.953.27l-4.632-4.443Z" transform="translate(-13.535 -12.707)" fill="#3a1e16"/>
        <path id="Path_39285" data-name="Path 39285" d="M74,64.778H32.658V30.206a1.5,1.5,0,0,0-1.5-1.5H28.581a1.5,1.5,0,0,0-1.5,1.5V68.061a1.5,1.5,0,0,0,1.5,1.5H73.72a1.5,1.5,0,0,0,1.5-1.5v-1.78A1.482,1.482,0,0,0,74,64.778" transform="translate(-8.79 -9.318)" fill="#511110"/>
        <path id="Path_39286" data-name="Path 39286" d="M44.821,57.6,41.7,55.222l7.88-10.36a1.963,1.963,0,0,1,2.92-.228l4.589,4.4,9.133-12.7a1.963,1.963,0,0,1,2.954-.269L77.211,43.8,74.49,46.625l-6.406-6.163-9.131,12.7a1.963,1.963,0,0,1-2.953.27L51.368,48.99Z" transform="translate(-13.535 -11.529)" fill="#fcbf10"/>
      </g>
    </g>
  </g>
</svg>
