<svg xmlns="http://www.w3.org/2000/svg" xmlns:xlink="http://www.w3.org/1999/xlink" width="84.721" height="82.499" viewBox="0 0 84.721 82.499">
  <defs>
    <clipPath id="clip-path">
      <rect id="Rectangle_1336" data-name="Rectangle 1336" width="84.721" height="82.499" fill="none"/>
    </clipPath>
    <clipPath id="clip-path-3">
      <rect id="Rectangle_1314" data-name="Rectangle 1314" width="71.861" height="72.434" fill="none"/>
    </clipPath>
    <clipPath id="clip-path-4">
      <rect id="Rectangle_1315" data-name="Rectangle 1315" width="5.969" height="6.653" fill="none"/>
    </clipPath>
    <clipPath id="clip-path-5">
      <rect id="Rectangle_1316" data-name="Rectangle 1316" width="21.422" height="5.168" fill="none"/>
    </clipPath>
    <clipPath id="clip-path-6">
      <rect id="Rectangle_1317" data-name="Rectangle 1317" width="9.187" height="72.442" fill="none"/>
    </clipPath>
    <clipPath id="clip-path-7">
      <rect id="Rectangle_1318" data-name="Rectangle 1318" width="10.416" height="72.108" fill="none"/>
    </clipPath>
    <clipPath id="clip-path-8">
      <rect id="Rectangle_1319" data-name="Rectangle 1319" width="56.516" height="3.037" fill="none"/>
    </clipPath>
    <clipPath id="clip-path-9">
      <rect id="Rectangle_1320" data-name="Rectangle 1320" width="58.118" height="4.9" fill="none"/>
    </clipPath>
    <clipPath id="clip-path-10">
      <rect id="Rectangle_1325" data-name="Rectangle 1325" width="68.272" height="78.684" fill="none"/>
    </clipPath>
    <clipPath id="clip-path-11">
      <rect id="Rectangle_1321" data-name="Rectangle 1321" width="13.792" height="13.642" fill="none"/>
    </clipPath>
    <clipPath id="clip-path-12">
      <rect id="Rectangle_1322" data-name="Rectangle 1322" width="4.514" height="4.891" fill="none"/>
    </clipPath>
    <clipPath id="clip-path-13">
      <rect id="Rectangle_1323" data-name="Rectangle 1323" width="14.419" height="4.639" fill="none"/>
    </clipPath>
    <clipPath id="clip-path-14">
      <rect id="Rectangle_1324" data-name="Rectangle 1324" width="12.166" height="9.589" fill="none"/>
    </clipPath>
    <clipPath id="clip-path-15">
      <rect id="Rectangle_1326" data-name="Rectangle 1326" width="7.225" height="50.924" fill="none"/>
    </clipPath>
    <clipPath id="clip-path-16">
      <rect id="Rectangle_1327" data-name="Rectangle 1327" width="5.14" height="4.555" fill="none"/>
    </clipPath>
    <clipPath id="clip-path-17">
      <rect id="Rectangle_1328" data-name="Rectangle 1328" width="2.748" height="2.945" fill="none"/>
    </clipPath>
    <clipPath id="clip-path-18">
      <rect id="Rectangle_1329" data-name="Rectangle 1329" width="5.311" height="4.615" fill="none"/>
    </clipPath>
    <clipPath id="clip-path-19">
      <rect id="Rectangle_1330" data-name="Rectangle 1330" width="3.013" height="3.41" fill="none"/>
    </clipPath>
    <clipPath id="clip-path-20">
      <rect id="Rectangle_1331" data-name="Rectangle 1331" width="5.486" height="4.407" fill="none"/>
    </clipPath>
    <clipPath id="clip-path-21">
      <rect id="Rectangle_1332" data-name="Rectangle 1332" width="2.698" height="2.966" fill="none"/>
    </clipPath>
    <clipPath id="clip-path-22">
      <rect id="Rectangle_1333" data-name="Rectangle 1333" width="5.574" height="4.463" fill="none"/>
    </clipPath>
    <clipPath id="clip-path-23">
      <rect id="Rectangle_1334" data-name="Rectangle 1334" width="2.965" height="3.439" fill="none"/>
    </clipPath>
  </defs>
  <g id="Group_21340" data-name="Group 21340" transform="translate(0)">
    <g id="Group_21205" data-name="Group 21205" transform="translate(0)" clip-path="url(#clip-path)">
      <g id="Group_21204" data-name="Group 21204" transform="translate(0 0)">
        <g id="Group_21203" data-name="Group 21203" clip-path="url(#clip-path)">
          <path id="Path_39142" data-name="Path 39142" d="M.773,2.527,4.831.141A1.028,1.028,0,0,1,5.349,0H9.926L23.3.842l14.832.11,35.481-.6,7.316.733a.636.636,0,0,1,.563.525l1.475,8.451,1.751,61.226-2.459,8.345a1.108,1.108,0,0,1-.769.948L75.965,81.9l-41.294.6L11.6,82.084,3.13,81.163a1.3,1.3,0,0,1-1.171-1.007L.033,75.425a1.308,1.308,0,0,1-.016-.5L.507,8.253.266,3.469a1.031,1.031,0,0,1,.507-.942" transform="translate(0 0)" fill="#3b1111"/>
          <path id="Path_39143" data-name="Path 39143" d="M1.742,3.844,5.418,1.163l4.669-.08,13.885.841,14.314.19,34.766-.6,8,.521,2.234,11.633.877,57.86L81.843,79.8l-5.53,1.077-41.706.833L12.3,81.364l-8.689-.991-2.137-4.9L2,8.946Z" transform="translate(-0.478 -0.351)" fill="#684429"/>
          <path id="Path_39144" data-name="Path 39144" d="M1.872,3.563,5.548,1.108,10.217.915,24.1,1.755l14.314.3,34.766-.6,8,.477,1.539,8.616L83.768,69.9l-1.385,4.26-5.969,1.93-41.5.744L12.6,76.59l-7.608-.535L2.115,73.947,2.664,7.508Z" transform="translate(-0.608 -0.297)" fill="#835636"/>
          <g id="Group_21142" data-name="Group 21142" transform="translate(11.82 8.92)" opacity="0.2" style="mix-blend-mode: multiply;isolation: isolate">
            <g id="Group_21141" data-name="Group 21141">
              <g id="Group_21140" data-name="Group 21140" clip-path="url(#clip-path-3)">
                <path id="Path_39145" data-name="Path 39145" d="M39.984,80.829l41.5-.744,5.97-1.93,1.385-4.26L87.655,13.208l.829,4.4.877,57.86-2.316,8.268-5.529,1.076-41.707.833L17.5,85.3l14.573-2.117Z" transform="translate(-17.501 -13.208)" fill="#3b1111"/>
              </g>
            </g>
          </g>
          <g id="Group_21145" data-name="Group 21145" transform="translate(75.806 73.868)" opacity="0.2" style="mix-blend-mode: multiply;isolation: isolate">
            <g id="Group_21144" data-name="Group 21144">
              <g id="Group_21143" data-name="Group 21143" clip-path="url(#clip-path-4)">
                <path id="Path_39146" data-name="Path 39146" d="M112.241,111.3l.029,4.722,5.53-1.076.411-5.577Z" transform="translate(-112.241 -109.372)" fill="#82603f"/>
              </g>
            </g>
          </g>
          <g id="Group_21148" data-name="Group 21148" transform="translate(34.303 76.186)" opacity="0.2" style="mix-blend-mode: multiply;isolation: isolate">
            <g id="Group_21147" data-name="Group 21147">
              <g id="Group_21146" data-name="Group 21146" clip-path="url(#clip-path-5)">
                <path id="Path_39147" data-name="Path 39147" d="M68.608,117.725l3.6-4.919-21.423.355,3.536,4.812Z" transform="translate(-50.79 -112.805)" fill="#82603f"/>
              </g>
            </g>
          </g>
          <path id="Path_39148" data-name="Path 39148" d="M13.374,4.634,9.126,3.806l-4.079.587-.432,2.5.432,4.233L3.771,72.4,5.8,75.455h4.923l2.286-.9-.365-3.337L8.783,67.682,9.864,12.157l3.51-3.4Z" transform="translate(-1.224 -1.236)" fill="#af8158"/>
          <g id="Group_21151" data-name="Group 21151" transform="translate(2.962 1.777)" opacity="0.2" style="mix-blend-mode: multiply;isolation: isolate">
            <g id="Group_21150" data-name="Group 21150">
              <g id="Group_21149" data-name="Group 21149" clip-path="url(#clip-path-6)">
                <path id="Path_39149" data-name="Path 39149" d="M13.573,3.493,9.326,2.631l-4.079.611L4.814,6.43l.432,4.312L4.386,71.9,6,75.073l5.1-.387,1.7-.733-.384-3.114L8.561,67.45l.925-55.674,4.087-3.4Z" transform="translate(-4.386 -2.631)" fill="#82603f"/>
              </g>
            </g>
          </g>
          <path id="Path_39150" data-name="Path 39150" d="M105.657,5.031l4.247-.821,4.079.582.432,2.476-.148,3.893,2.22,60.077L114.355,74.8l-4.817,1.11-2.285-.894.18-6.74,4.185-4.953L109.669,13.1l-4.012-3.984Z" transform="translate(-34.298 -1.367)" fill="#af8158"/>
          <g id="Group_21154" data-name="Group 21154" transform="translate(71.359 2.057)" opacity="0.2" style="mix-blend-mode: multiply;isolation: isolate">
            <g id="Group_21153" data-name="Group 21153">
              <g id="Group_21152" data-name="Group 21152" clip-path="url(#clip-path-7)">
                <path id="Path_39151" data-name="Path 39151" d="M105.657,3.9l4.247-.855,4.079.606.432,3.161-.756,4.3,2.413,59.624-1.718,3.692-4.994.727-1.7-.727.2-6.519L112,62.985l-2.333-50.262L105.657,8.74Z" transform="translate(-105.657 -3.045)" fill="#82603f"/>
              </g>
            </g>
          </g>
          <path id="Path_39152" data-name="Path 39152" d="M20.158,4.973,30.3,4.757l12.357.57,15.076.054,18.258-.034.365,1.4-1.085-.24-18.058.675L42.183,6.816,29.666,6.4l-9.508-.022Z" transform="translate(-6.544 -1.544)" fill="#af8158"/>
          <g id="Group_21157" data-name="Group 21157" transform="translate(13.615 2.609)" opacity="0.2" style="mix-blend-mode: multiply;isolation: isolate">
            <g id="Group_21156" data-name="Group 21156">
              <g id="Group_21155" data-name="Group 21155" clip-path="url(#clip-path-8)">
                <path id="Path_39153" data-name="Path 39153" d="M20.158,4.079,30.3,3.863l12.357.57,15.076.054,16.354-.27,2.311.288.28,1.7-.323.263-1.085-.24L57.209,6.9,42.183,6.533,29.666,6.114l-9.508-.022Z" transform="translate(-20.158 -3.863)" fill="#82603f"/>
              </g>
            </g>
          </g>
          <path id="Path_39154" data-name="Path 39154" d="M19.925,105.9l9.29.173,13.436.072,14.767-.276,19.876-.7.427,2.887-3.311.288-16.552.515-15.676.287-13.6.08-8.66-.411Z" transform="translate(-6.468 -34.142)" fill="#af8158"/>
          <g id="Group_21160" data-name="Group 21160" transform="translate(13.457 70.191)" opacity="0.2" style="mix-blend-mode: multiply;isolation: isolate">
            <g id="Group_21159" data-name="Group 21159">
              <g id="Group_21158" data-name="Group 21158" clip-path="url(#clip-path-9)">
                <path id="Path_39155" data-name="Path 39155" d="M19.925,104.89l9.29.173,13.436.072,15.727-.6,15.293-.6,4.092.253.28,3.212-.323.263-3.311.288-16.552.515-15.676.288-13.6.08-8.66-.411Z" transform="translate(-19.925 -103.929)" fill="#82603f"/>
              </g>
            </g>
          </g>
          <g id="Group_21175" data-name="Group 21175" transform="translate(13.093 0.888)" style="mix-blend-mode: multiply;isolation: isolate">
            <g id="Group_21174" data-name="Group 21174">
              <g id="Group_21173" data-name="Group 21173" clip-path="url(#clip-path-10)">
                <g id="Group_21163" data-name="Group 21163" transform="translate(0 64.976)" opacity="0.4" style="mix-blend-mode: multiply;isolation: isolate">
                  <g id="Group_21162" data-name="Group 21162">
                    <g id="Group_21161" data-name="Group 21161" clip-path="url(#clip-path-11)">
                      <path id="Path_39156" data-name="Path 39156" d="M19.387,111.164l1.469-3.213,1.4-1.676.453.012,1.628-1.458.03-.559,4.5-3.745,4.309-3-4.894,2.643-4.755,4.016v.637l-1.578,1.432-.43-.02-1.444,1.721Z" transform="translate(-19.387 -97.522)" fill="#584f35"/>
                    </g>
                  </g>
                </g>
                <g id="Group_21166" data-name="Group 21166" transform="translate(0.98)" opacity="0.4" style="mix-blend-mode: multiply;isolation: isolate">
                  <g id="Group_21165" data-name="Group 21165">
                    <g id="Group_21164" data-name="Group 21164" clip-path="url(#clip-path-12)">
                      <path id="Path_39157" data-name="Path 39157" d="M20.838,1.315l1.378,1.9.217.6,1.78,1.462.351.061.787.871-.6-.931-.31,0L23.168,3.787,23.1,3.194,21.762,1.371Z" transform="translate(-20.838 -1.315)" fill="#584f35"/>
                    </g>
                  </g>
                </g>
                <g id="Group_21169" data-name="Group 21169" transform="translate(53.654 2.481)" opacity="0.4" style="mix-blend-mode: multiply;isolation: isolate">
                  <g id="Group_21168" data-name="Group 21168">
                    <g id="Group_21167" data-name="Group 21167" clip-path="url(#clip-path-13)">
                      <path id="Path_39158" data-name="Path 39158" d="M98.828,9.353l4.165-.294.447.116,2-1.234,6.42-2.179,1.1-.774.287,1.419-1.2.264-2.325,1.08-4.027.787-2.172,1.088-.43-.16Z" transform="translate(-98.828 -4.988)" fill="#584f35"/>
                    </g>
                  </g>
                </g>
                <g id="Group_21172" data-name="Group 21172" transform="translate(56.106 69.095)" opacity="0.4" style="mix-blend-mode: multiply;isolation: isolate">
                  <g id="Group_21171" data-name="Group 21171">
                    <g id="Group_21170" data-name="Group 21170" clip-path="url(#clip-path-14)">
                      <path id="Path_39159" data-name="Path 39159" d="M102.459,103.62l3.933,1.7.367.311,1.446,1.638,2.3.459,2.207.534s1.574,1.578,1.53,1.566.384,3.258.384,3.258l-.656.128-.173-3.031-1.573-1.764-2.67-.471-1.052.242-1.324-.681-.418-1.145-.428-.367Z" transform="translate(-102.459 -103.62)" fill="#584f35"/>
                    </g>
                  </g>
                </g>
              </g>
            </g>
          </g>
          <g id="Group_21178" data-name="Group 21178" transform="translate(1.264 13.935)" opacity="0.4" style="mix-blend-mode: multiply;isolation: isolate">
            <g id="Group_21177" data-name="Group 21177">
              <g id="Group_21176" data-name="Group 21176" clip-path="url(#clip-path-15)">
                <path id="Path_39160" data-name="Path 39160" d="M1.872,21.437l.565-.288,1.575-.517.12.185H9.1l-5.007.619-.127-.289-1.545.645L1.872,71.557Z" transform="translate(-1.872 -20.633)" fill="#584f35"/>
              </g>
            </g>
          </g>
          <g id="Group_21181" data-name="Group 21181" transform="translate(73.097 4.442)" opacity="0.4" style="mix-blend-mode: multiply;isolation: isolate">
            <g id="Group_21180" data-name="Group 21180">
              <g id="Group_21179" data-name="Group 21179" clip-path="url(#clip-path-16)">
                <path id="Path_39161" data-name="Path 39161" d="M110.739,6.577,108.23,7.832l.681,1.6,2.091,1.7,2.369-1.664L112.934,6.8Z" transform="translate(-108.23 -6.577)" fill="#3b1111"/>
              </g>
            </g>
          </g>
          <path id="Path_39162" data-name="Path 39162" d="M109.691,6.139l-1.462,1.55.681,1.6,2.225.8,1.643-1.967-1-1.611Z" transform="translate(-35.133 -1.993)" fill="#411818"/>
          <path id="Path_39163" data-name="Path 39163" d="M110.028,6.632l-1.2,1.276.561,1.316,1.831.661,1.352-1.619-.821-1.326Z" transform="translate(-35.326 -2.153)" fill="#2c2c31"/>
          <path id="Path_39164" data-name="Path 39164" d="M110.143,6.918l-1.018,1.059.435,1.063,1.576.538,1.1-1.32-.677-1.115Z" transform="translate(-35.424 -2.246)" fill="#6c717b"/>
          <path id="Path_39165" data-name="Path 39165" d="M110.313,7.1l-.869.9.371.908,1.22-.047.783-.858-.3-.715Z" transform="translate(-35.527 -2.306)" fill="#9096a4"/>
          <g id="Group_21184" data-name="Group 21184" transform="translate(74.495 4.788)" opacity="0.4" style="mix-blend-mode: multiply;isolation: isolate">
            <g id="Group_21183" data-name="Group 21183">
              <g id="Group_21182" data-name="Group 21182" clip-path="url(#clip-path-17)">
                <path id="Path_39166" data-name="Path 39166" d="M110.3,9.53l.55-.044.5.088.172.059.819-1.425-.4-1.01.292-.109.821,1.326-1.352,1.62Z" transform="translate(-110.3 -7.089)" fill="#3b1111"/>
              </g>
            </g>
          </g>
          <g id="Group_21187" data-name="Group 21187" transform="translate(74.515 68.594)" opacity="0.4" style="mix-blend-mode: multiply;isolation: isolate">
            <g id="Group_21186" data-name="Group 21186">
              <g id="Group_21185" data-name="Group 21185" clip-path="url(#clip-path-18)">
                <path id="Path_39167" data-name="Path 39167" d="M114.107,101.564l-3.777,1.193.715,1.959,1.423,1.464,3.153-.885.02-2.543Z" transform="translate(-110.33 -101.564)" fill="#3b1111"/>
              </g>
            </g>
          </g>
          <path id="Path_39168" data-name="Path 39168" d="M112.067,100.875l-1.738,1.657.715,1.96,2.354.977,1.865-2.034-.967-2.051Z" transform="translate(-35.815 -32.746)" fill="#411818"/>
          <path id="Path_39169" data-name="Path 39169" d="M112.411,101.417l-1.446,1.376.6,1.649,1.938.8,1.536-1.675-.792-1.736Z" transform="translate(-36.021 -32.922)" fill="#2c2c31"/>
          <path id="Path_39170" data-name="Path 39170" d="M112.526,101.726l-1.236,1.151.477,1.371,1.67.658,1.245-1.366-.648-1.5Z" transform="translate(-36.126 -33.022)" fill="#6c717b"/>
          <path id="Path_39171" data-name="Path 39171" d="M112.7,101.931l-1.068.992.416,1.2,1.266.09.843-.824-.17-1.191Z" transform="translate(-36.239 -33.089)" fill="#9096a4"/>
          <g id="Group_21190" data-name="Group 21190" transform="translate(76.005 68.914)" opacity="0.4" style="mix-blend-mode: multiply;isolation: isolate">
            <g id="Group_21189" data-name="Group 21189">
              <g id="Group_21188" data-name="Group 21188" clip-path="url(#clip-path-19)">
                <path id="Path_39172" data-name="Path 39172" d="M112.536,104.835l.6-.02.529.12.182.072.952-1.493-.355-1.374.319-.1.792,1.736-1.537,1.675Z" transform="translate(-112.536 -102.037)" fill="#3b1111"/>
              </g>
            </g>
          </g>
          <g id="Group_21193" data-name="Group 21193" transform="translate(5.159 3.471)" opacity="0.4" style="mix-blend-mode: multiply;isolation: isolate">
            <g id="Group_21192" data-name="Group 21192">
              <g id="Group_21191" data-name="Group 21191" clip-path="url(#clip-path-20)">
                <path id="Path_39173" data-name="Path 39173" d="M10.092,5.225,7.638,6.586l.748,1.568,1.958,1.392,2.78-1.384L12.09,5.139Z" transform="translate(-7.638 -5.139)" fill="#3b1111"/>
              </g>
            </g>
          </g>
          <path id="Path_39174" data-name="Path 39174" d="M9.032,4.9,7.639,6.507l.748,1.568,2.256.708L12.2,6.747,11.136,5.18Z" transform="translate(-2.48 -1.589)" fill="#411818"/>
          <path id="Path_39175" data-name="Path 39175" d="M9.384,5.379,8.237,6.706,8.853,8l1.858.582L11.993,6.9l-.877-1.29Z" transform="translate(-2.674 -1.746)" fill="#2c2c31"/>
          <path id="Path_39176" data-name="Path 39176" d="M9.506,5.664l-.972,1.1.48,1.044,1.6.469,1.039-1.366-.725-1.085Z" transform="translate(-2.77 -1.838)" fill="#6c717b"/>
          <path id="Path_39177" data-name="Path 39177" d="M9.681,5.845l-.83.941.41.891,1.216-.1.746-.891-.33-.7Z" transform="translate(-2.873 -1.897)" fill="#9096a4"/>
          <g id="Group_21196" data-name="Group 21196" transform="translate(6.621 3.867)" opacity="0.4" style="mix-blend-mode: multiply;isolation: isolate">
            <g id="Group_21195" data-name="Group 21195">
              <g id="Group_21194" data-name="Group 21194" clip-path="url(#clip-path-21)">
                <path id="Path_39178" data-name="Path 39178" d="M9.8,8.248l.548-.068.5.068.174.051.756-1.459-.442-.993.286-.122.877,1.29L11.219,8.692Z" transform="translate(-9.803 -5.726)" fill="#3b1111"/>
              </g>
            </g>
          </g>
          <g id="Group_21199" data-name="Group 21199" transform="translate(3.834 68.718)" opacity="0.4" style="mix-blend-mode: multiply;isolation: isolate">
            <g id="Group_21198" data-name="Group 21198">
              <g id="Group_21197" data-name="Group 21197" clip-path="url(#clip-path-22)">
                <path id="Path_39179" data-name="Path 39179" d="M9.4,101.747,5.676,103.1l.8,1.928,1.281,1.182,3.5-.309-.471-3.252Z" transform="translate(-5.676 -101.747)" fill="#3b1111"/>
              </g>
            </g>
          </g>
          <path id="Path_39180" data-name="Path 39180" d="M7.342,101.189,5.676,102.92l.8,1.927,2.394.875,1.778-2.113L9.592,101.6Z" transform="translate(-1.843 -32.848)" fill="#411818"/>
          <path id="Path_39181" data-name="Path 39181" d="M7.7,101.721l-1.386,1.437.669,1.622,1.97.72,1.464-1.739-.864-1.7Z" transform="translate(-2.051 -33.021)" fill="#2c2c31"/>
          <path id="Path_39182" data-name="Path 39182" d="M7.826,102.029l-1.185,1.2.534,1.349,1.7.586,1.186-1.419-.712-1.472Z" transform="translate(-2.156 -33.121)" fill="#6c717b"/>
          <path id="Path_39183" data-name="Path 39183" d="M8.009,102.229l-1.025,1.037.467,1.182,1.268.035.807-.86-.22-1.183Z" transform="translate(-2.267 -33.186)" fill="#9096a4"/>
          <g id="Group_21202" data-name="Group 21202" transform="translate(5.404 69.04)" opacity="0.4" style="mix-blend-mode: multiply;isolation: isolate">
            <g id="Group_21201" data-name="Group 21201">
              <g id="Group_21200" data-name="Group 21200" clip-path="url(#clip-path-23)">
                <path id="Path_39184" data-name="Path 39184" d="M8,105.114l.593-.045.534.1.184.063L10.2,103.7l-.413-1.359.315-.116.865,1.7L9.5,105.663Z" transform="translate(-8.002 -102.224)" fill="#3b1111"/>
              </g>
            </g>
          </g>
          <path id="Path_39185" data-name="Path 39185" d="M66.883,53.563H59.81V46.489a.625.625,0,0,0-.625-.625H57.4a.625.625,0,0,0-.625.625v7.073H49.7a.626.626,0,0,0-.625.625v1.786a.625.625,0,0,0,.625.625h7.074v7.073a.625.625,0,0,0,.625.625h1.786a.625.625,0,0,0,.625-.625V56.6h7.073a.625.625,0,0,0,.625-.625V54.188a.626.626,0,0,0-.625-.625" transform="translate(-15.93 -14.888)" fill="#3a1e16"/>
          <path id="Path_39186" data-name="Path 39186" d="M74.631,29.336,51.818,16.165a3.225,3.225,0,0,0-3.225,0L25.78,29.337a3.225,3.225,0,0,0-1.612,2.793V58.471a3.225,3.225,0,0,0,1.612,2.793L48.593,74.435a3.225,3.225,0,0,0,3.225,0L74.631,61.264a3.224,3.224,0,0,0,1.613-2.793V32.129a3.227,3.227,0,0,0-1.613-2.793m-1.9,26.974a3.469,3.469,0,0,1-1.73,3l-19.07,11.01a3.468,3.468,0,0,1-3.459,0l-19.07-11.01a3.469,3.469,0,0,1-1.73-3V34.29a3.469,3.469,0,0,1,1.73-3l19.07-11.01a3.468,3.468,0,0,1,3.459,0l19.07,11.01a3.468,3.468,0,0,1,1.73,3Z" transform="translate(-7.845 -5.107)" fill="#3a1e16"/>
          <path id="Path_39187" data-name="Path 39187" d="M71.113,38.249l-16.074-9.28a2.273,2.273,0,0,0-2.273,0l-16.074,9.28a2.271,2.271,0,0,0-1.136,1.968V58.778a2.271,2.271,0,0,0,1.136,1.968l16.074,9.28a2.273,2.273,0,0,0,2.273,0l16.074-9.28a2.272,2.272,0,0,0,1.136-1.968V40.217a2.272,2.272,0,0,0-1.136-1.968M69.124,56.936a2.343,2.343,0,0,1-1.168,2.024L55.071,66.4a2.341,2.341,0,0,1-2.338,0L39.849,58.96a2.345,2.345,0,0,1-1.169-2.024V42.059a2.345,2.345,0,0,1,1.169-2.024L52.734,32.6a2.342,2.342,0,0,1,2.338,0l12.884,7.439a2.343,2.343,0,0,1,1.168,2.024Z" transform="translate(-11.542 -9.305)" fill="#3a1e16"/>
          <path id="Path_39188" data-name="Path 39188" d="M66.883,51.207H59.81V44.133a.625.625,0,0,0-.625-.625H57.4a.625.625,0,0,0-.625.625v7.073H49.7a.626.626,0,0,0-.625.625v1.786a.625.625,0,0,0,.625.625h7.074v7.073a.625.625,0,0,0,.625.625h1.786a.625.625,0,0,0,.625-.625V54.244h7.073a.625.625,0,0,0,.625-.625V51.832a.626.626,0,0,0-.625-.625" transform="translate(-15.93 -14.124)" fill="#fcbf10"/>
          <path id="Path_39189" data-name="Path 39189" d="M74.631,26.981,51.818,13.809a3.225,3.225,0,0,0-3.225,0L25.78,26.981a3.225,3.225,0,0,0-1.612,2.793V56.115a3.225,3.225,0,0,0,1.612,2.793L48.593,72.079a3.225,3.225,0,0,0,3.225,0L74.631,58.908a3.224,3.224,0,0,0,1.613-2.793V29.773a3.225,3.225,0,0,0-1.613-2.793m-1.9,26.973a3.469,3.469,0,0,1-1.73,3L51.935,67.96a3.468,3.468,0,0,1-3.459,0L29.406,56.95a3.469,3.469,0,0,1-1.73-3V31.934a3.469,3.469,0,0,1,1.73-3l19.07-11.01a3.468,3.468,0,0,1,3.459,0l19.07,11.01a3.468,3.468,0,0,1,1.73,3Z" transform="translate(-7.845 -4.343)" fill="#511110"/>
          <path id="Path_39190" data-name="Path 39190" d="M71.113,35.894l-16.074-9.28a2.273,2.273,0,0,0-2.273,0l-16.074,9.28a2.271,2.271,0,0,0-1.136,1.968V56.423a2.271,2.271,0,0,0,1.136,1.968l16.074,9.28a2.273,2.273,0,0,0,2.273,0l16.074-9.28a2.272,2.272,0,0,0,1.136-1.968V37.862a2.272,2.272,0,0,0-1.136-1.968M69.124,54.581a2.343,2.343,0,0,1-1.168,2.024L55.071,64.044a2.341,2.341,0,0,1-2.338,0L39.849,56.605a2.345,2.345,0,0,1-1.169-2.024V39.7a2.345,2.345,0,0,1,1.169-2.024l12.884-7.439a2.342,2.342,0,0,1,2.338,0L67.956,37.68A2.343,2.343,0,0,1,69.124,39.7Z" transform="translate(-11.542 -8.541)" fill="#ff7f30"/>
        </g>
      </g>
    </g>
  </g>
</svg>
