<svg xmlns="http://www.w3.org/2000/svg" xmlns:xlink="http://www.w3.org/1999/xlink" width="11.147" height="7.113" viewBox="0 0 11.147 7.113">
  <defs>
    <clipPath id="clip-path">
      <rect id="Rectangle_1498" data-name="Rectangle 1498" width="11.147" height="7.113" transform="translate(0 0)" fill="#f2d1a1"/>
    </clipPath>
  </defs>
  <g id="Group_21631" data-name="Group 21631" transform="translate(0 0.001)">
    <g id="Group_21630" data-name="Group 21630" transform="translate(0 -0.001)" clip-path="url(#clip-path)">
      <path id="Path_39514" data-name="Path 39514" d="M10.815,6.613l.319-1.552a.625.625,0,0,0-.208-.6L5.85.148a.625.625,0,0,0-.821.01L.168,4.493a.5.5,0,0,0-.076.666L1.163,6.676a.5.5,0,0,0,.689.129L5.6,4.321,9.868,7.016a.625.625,0,0,0,.947-.4" transform="translate(0 0)" fill="#f2d1a1"/>
    </g>
  </g>
</svg>
