<svg xmlns="http://www.w3.org/2000/svg" xmlns:xlink="http://www.w3.org/1999/xlink" width="17.68" height="20.039" viewBox="0 0 17.68 20.039">
  <defs>
    <clipPath id="clip-path">
      <rect id="Rectangle_1686" data-name="Rectangle 1686" width="17.68" height="20.039" transform="translate(0 0)" fill="#ffb100"/>
    </clipPath>
  </defs>
  <g id="Group_22629" data-name="Group 22629" transform="translate(0 0)">
    <g id="Group_22629-2" data-name="Group 22629" transform="translate(0 0)" clip-path="url(#clip-path)">
      <path id="Path_39902" data-name="Path 39902" d="M17.647,5.525a1.093,1.093,0,0,0-.55-.945L9.35.145a1.093,1.093,0,0,0-1.093,0L.543,4.64A1.093,1.093,0,0,0,0,5.589l.032,8.927a1.093,1.093,0,0,0,.55.945L8.329,19.9a1.093,1.093,0,0,0,1.093,0L17.137,15.4a1.093,1.093,0,0,0,.543-.948Zm-4.235,1.71L8.668,13.789a.879.879,0,0,1-1.323.12L4.379,11.055A.879.879,0,1,1,5.6,9.789l2.235,2.15L11.9,6.285a.934.934,0,0,1,.419-.342.888.888,0,0,1,.927.187.779.779,0,0,1,.169,1.1" transform="translate(0 0)" fill="#ffb100"/>
    </g>
  </g>
</svg>
