<svg id="Group_27355" data-name="Group 27355" xmlns="http://www.w3.org/2000/svg" xmlns:xlink="http://www.w3.org/1999/xlink" width="40.58" height="40.58" viewBox="0 0 40.58 40.58">
  <defs>
    <clipPath id="clip-path">
      <rect id="Rectangle_1289" data-name="Rectangle 1289" width="14.138" height="22.154" fill="none"/>
    </clipPath>
  </defs>
  <g id="Group_27351" data-name="Group 27351" transform="translate(0 0)">
    <rect id="Rectangle_1280" data-name="Rectangle 1280" width="40.58" height="40.58" rx="7" fill="#75391c"/>
    <g id="Group_21069" data-name="Group 21069" transform="translate(14.236 9.214)">
      <g id="Group_21068" data-name="Group 21068" clip-path="url(#clip-path)">
        <path id="Path_39093" data-name="Path 39093" d="M.994.66,4.078.026a1.243,1.243,0,0,1,1.2.413l8.566,10.089a1.243,1.243,0,0,1-.02,1.632L5.207,21.82a1,1,0,0,1-1.322.151L.869,19.843a1,1,0,0,1-.257-1.369l4.936-7.456L.193,2.542A1.243,1.243,0,0,1,.994.66" transform="translate(0 0)" fill="#fbf1da"/>
      </g>
    </g>
  </g>
</svg>
