<svg id="Group_19623" data-name="Group 19623" xmlns="http://www.w3.org/2000/svg" xmlns:xlink="http://www.w3.org/1999/xlink" width="29.179" height="30.1" viewBox="0 0 29.179 30.1">
  <defs>
    <clipPath id="clip-path">
      <rect id="Rectangle_1073" data-name="Rectangle 1073" width="29.179" height="30.1" fill="#ffb100"/>
    </clipPath>
  </defs>
  <g id="Group_19623-2" data-name="Group 19623" clip-path="url(#clip-path)">
    <path id="Path_38815" data-name="Path 38815" d="M34.291,16.78,23.169,13.007a1.357,1.357,0,0,0-1.327.264l-8.829,7.746a1.356,1.356,0,0,0-.435,1.281l2.293,11.519a1.356,1.356,0,0,0,.892,1.017l11.122,3.773a1.356,1.356,0,0,0,1.327-.264L37.042,30.6a1.357,1.357,0,0,0,.434-1.281L35.183,17.8a1.356,1.356,0,0,0-.892-1.017M23.733,18.269l3.316-.889.889,3.316-3.316.889ZM18.784,19.6l3.316-.889.889,3.316-3.316.889ZM32.413,23.05l-3.135.84.415,1.548-3.089.828L27.792,30.7l1.8-.482.57,2.127L24.393,33.89l-.527-1.965-2.175.583-1.575-5.875-3.279.879L15.948,24.2l3.316-.889.857,3.2,1.844-.494-.326-1.218L28.81,22.87l-.6-2.247,3.316-.889Z" transform="translate(-10.438 -10.756)" fill="#ffb100"/>
    <path id="Path_38816" data-name="Path 38816" d="M25.382,4.472,12.462.089a1.67,1.67,0,0,0-1.638.326l-10.255,9a1.671,1.671,0,0,0-.537,1.582L2.7,24.374a1.67,1.67,0,0,0,1.1,1.256l12.919,4.383a1.67,1.67,0,0,0,1.638-.326l10.255-9a1.67,1.67,0,0,0,.537-1.582L26.483,5.728a1.671,1.671,0,0,0-1.1-1.256m2.472,14.079a1.9,1.9,0,0,1-.608,1.792L18.19,28.288a1.9,1.9,0,0,1-1.856.369L4.926,24.787a1.9,1.9,0,0,1-1.248-1.423L1.326,11.55a1.9,1.9,0,0,1,.608-1.792l9.055-7.944a1.9,1.9,0,0,1,1.856-.37l11.408,3.87A1.9,1.9,0,0,1,25.5,6.737Z" transform="translate(0 0)" fill="#ffb100"/>
  </g>
</svg>
