<svg xmlns="http://www.w3.org/2000/svg" xmlns:xlink="http://www.w3.org/1999/xlink" width="61.516" height="63.831" viewBox="0 0 61.516 63.831">
  <defs>
    <clipPath id="clip-path">
      <rect id="Rectangle_1422" data-name="Rectangle 1422" width="61.516" height="63.831" fill="none"/>
    </clipPath>
  </defs>
  <g id="Group_46734" data-name="Group 46734" transform="translate(0 0)">
    <g id="Group_21439" data-name="Group 21439" transform="translate(0 0)" clip-path="url(#clip-path)">
      <path id="Path_39378" data-name="Path 39378" d="M60.54,7.461,16.1,12.5a3.154,3.154,0,0,0-2.975,3.308v9.94l-3.127.137V13.235a3.154,3.154,0,0,1,2.975-3.307L54.835,5.181a1.886,1.886,0,0,0,1.674-1.875A3.154,3.154,0,0,0,53.534,0L12.46,4.656c-6.344.075-6.344,4.8-6.344,6.626v24.59l6.919-3.995a3.133,3.133,0,0,1,3.134,0l12.866,7.75A3.135,3.135,0,0,1,30.6,42.341v8.286H60.54a3.154,3.154,0,0,0,2.974-3.308V10.768A3.154,3.154,0,0,0,60.54,7.461M59.005,36.871c0,.189-.172.357-.433.424l-1.733.442a.939.939,0,0,1-.65-.067l-1.168-.617a.423.423,0,0,1-.257-.356V23.913a.388.388,0,0,1,.183-.31l1.524-1.091a.919.919,0,0,1,.892-.05l1.375.7a.426.426,0,0,1,.266.361Z" transform="translate(-1.998 0)" fill="#835636"/>
      <path id="Path_39379" data-name="Path 39379" d="M25.164,60.237a1.559,1.559,0,0,0-.784-1.347L13.334,52.565a1.557,1.557,0,0,0-1.559.006l-11,6.4A1.56,1.56,0,0,0,0,60.327L.046,73.057A1.557,1.557,0,0,0,.83,74.4l11.046,6.324a1.559,1.559,0,0,0,1.559-.005l11-6.4a1.559,1.559,0,0,0,.774-1.352Zm-4.337,7.52c0,.084-.119.824-.028.826-2.028-.056-4.066-.061-6.1-.04-.159,0-.411,5.4-.425,5.6a5.637,5.637,0,0,1-.053.877c-.083.344-.49.132-.756.141a19.754,19.754,0,0,1-3.174-.422q.2-3.049.446-6.113c-1.978.068-3.953.16-5.914.3l-.485-3.967c2.232-.158,4.192-.27,6.444-.339.031,0,.088-1.857.088-1.961,0-1.871.067-1.627.013-3.229-.03-.875.016-1.166.922-.968a27.984,27.984,0,0,1,2.969.615c.193.068.36.016.371.28.024.568.178,5.175-.111,5.2.3,0,5.628.2,5.659.048a3.543,3.543,0,0,0,.084.77,9.924,9.924,0,0,1,.052,2.378" transform="translate(0 -17.103)" fill="#fcbf10"/>
    </g>
  </g>
</svg>
