<svg xmlns="http://www.w3.org/2000/svg" xmlns:xlink="http://www.w3.org/1999/xlink" width="161.946" height="170.375" viewBox="0 0 161.946 170.375">
  <defs>
    <clipPath id="clip-path">
      <rect id="Rectangle_1421" data-name="Rectangle 1421" width="161.946" height="170.375" fill="none"/>
    </clipPath>
  </defs>
  <g id="Group_21437" data-name="Group 21437" clip-path="url(#clip-path)">
    <path id="Path_39369" data-name="Path 39369" d="M80.406,83.105c1.491-.093,1.985-.68,2.018-2.053.246-10.245.632-20.487.723-30.73.036-4.135-.555-8.275-.875-12.626a215.234,215.234,0,0,0-44.582.837,6.294,6.294,0,0,0-.211.857,223.8,223.8,0,0,0-.067,41.355c.1,1.146.612,1.387,1.637,1.5a244.056,244.056,0,0,0,41.357.864" transform="translate(14.747 14.918)" fill="#835636"/>
    <path id="Path_39370" data-name="Path 39370" d="M43.33,79.185c-.183-1.469-1.078-1.58-2.16-1.786-5.979-1.142-12-2.119-17.916-3.531C16.173,72.176,9.182,70.1,1.775,68.1a75.089,75.089,0,0,0,21.566,34.823A74.224,74.224,0,0,0,51.759,119.31a4.028,4.028,0,0,0,0-.716A239.449,239.449,0,0,1,43.33,79.185" transform="translate(0.717 27.522)" fill="#835636"/>
    <path id="Path_39371" data-name="Path 39371" d="M101.5,72.988l5.245,3q4.926-1.257,9.808-2.718a2.018,2.018,0,0,0,1.64-1.9,72.146,72.146,0,0,0,.037-23.014,2.308,2.308,0,0,0-1.883-2.16,236.149,236.149,0,0,0-32.7-7.3c-2.54-.378-5.1-.639-7.79-.972a230.98,230.98,0,0,1,.01,43.7c1.59-.187,2.9-.329,4.215-.5,1.036-.133,2.068-.285,3.1-.434l13.2-7.684a5.119,5.119,0,0,1,5.118-.018" transform="translate(30.658 15.327)" fill="#835636"/>
    <path id="Path_39372" data-name="Path 39372" d="M42.24,79.845V39.016c.117.028-.017-.044-.135-.024A218.184,218.184,0,0,0,1.546,49.533a2.514,2.514,0,0,0-1.4,1.78C.008,56.526.046,61.744,0,66.96c-.013,1.453.754,2.077,2.07,2.46,8.028,2.345,15.993,4.912,24.07,7.066,5.333,1.422,10.818,2.276,16.1,3.359" transform="translate(0 15.758)" fill="#835636"/>
    <path id="Path_39373" data-name="Path 39373" d="M80.043,41.795A240.757,240.757,0,0,0,71.32,2.418,2.276,2.276,0,0,0,69.058.632,80.642,80.642,0,0,0,49,.621,2.38,2.38,0,0,0,46.686,2.6a253.511,253.511,0,0,0-7.8,33.631c-.39,2.405-.663,4.83-.927,6.776,14.192-.279,28.1-.553,42.084-.827,0,.119.028-.14,0-.39" transform="translate(15.343 0)" fill="#835636"/>
    <path id="Path_39374" data-name="Path 39374" d="M117.609,49.688c-5.235-19.893-31.332-45.229-48.244-47,2.832,13.157,5.7,26.454,8.459,39.3l39.785,7.7" transform="translate(28.035 1.088)" fill="#835636"/>
    <path id="Path_39375" data-name="Path 39375" d="M75.388,78.7l3-1.748a240.33,240.33,0,0,1-39.961-1.1c0,.409-.02.6,0,.788a249.489,249.489,0,0,0,8.727,40.365,2.4,2.4,0,0,0,2.372,1.917,82.286,82.286,0,0,0,19.842.024,2.535,2.535,0,0,0,2.608-2.161c.32-1.363.647-2.724.97-4.087l-.107-29.555A5.118,5.118,0,0,1,75.388,78.7" transform="translate(15.528 30.658)" fill="#835636"/>
    <path id="Path_39376" data-name="Path 39376" d="M41.452,44.3c1.286-.188,1.706-.777,1.927-2.032,1.4-7.974,2.77-15.958,4.413-23.885,1.094-5.277,2.622-10.465,4.041-16.031A75,75,0,0,0,15.8,26.706,73.425,73.425,0,0,0,1.761,53.768c.784-.191,1.227-.268,1.65-.406A231.7,231.7,0,0,1,41.452,44.3" transform="translate(0.712 0.952)" fill="#835636"/>
    <path id="Path_39377" data-name="Path 39377" d="M134.171,88.748a4.073,4.073,0,0,0-2.049-3.519L103.261,68.705a4.072,4.072,0,0,0-4.072.014L70.447,85.452a4.071,4.071,0,0,0-2.023,3.534l.121,33.256a4.068,4.068,0,0,0,2.049,3.519l28.861,16.526a4.076,4.076,0,0,0,4.072-.015l28.742-16.732a4.075,4.075,0,0,0,2.023-3.534ZM96.107,85.983h10.854v7.6H96.107Zm16.2,39.024H92.234v-5.273h4.9V104.456H92.254v-5.3h15.165v20.56h4.889Z" transform="translate(27.654 27.55)" fill="#fcbf10"/>
  </g>
</svg>
